<svg xmlns="http://www.w3.org/2000/svg" xmlns:xlink="http://www.w3.org/1999/xlink" version="1.1" style="enable-background:new 0 0 310.4 310.4;" xml:space="preserve" width="170.09524536132812" height="170"><rect id="backgroundrect" width="100%" height="100%" x="0" y="0" fill="none" stroke="none" style="" class=""/>


<g class="currentLayer" style=""><title>Layer 1</title><g id="svg_1" class="selected" fill="#391540" fill-opacity="1">
	<path d="M84.72380371093749,3.4761886596679688 C39.3238037109375,3.4761886596679688 2.5238037109375,40.276188659667966 2.5238037109375,85.67618865966796 c0,43.4 33.7,79 76.3,82 c1,0.1 2,0.1 3,0.2 c0.9,0 1.8,0 2.8,0 h0.1 c7.7,0 15.1,-1 22.1,-3 c34.6,-9.7 60.1,-41.5 60.1,-79.2 C166.9238037109375,40.276188659667966 130.1238037109375,3.4761886596679688 84.72380371093749,3.4761886596679688 zM106.82380371093751,149.17618865966796 c-1.9,0.7000000000000001 -3.8,1.3 -5.8,1.7000000000000002 c-5.2,1.3 -10.7,2 -16.3,2 h-0.1 c-1.9,0 -3.9,-0.1 -5.8,-0.30000000000000004 c-34.3,-3 -61.3,-31.9 -61.3,-66.9 c0,-37.1 30.1,-67.2 67.2,-67.2 c37,0 67.2,30.1 67.2,67.2 C151.9238037109375,114.97618865966797 133.0238037109375,139.97618865966797 106.82380371093751,149.17618865966796 z" id="svg_2" fill="#391540" fill-opacity="1"/>
</g><g id="svg_3" class="selected" fill="#391540" fill-opacity="1">
	<path d="M101.22380371093749,85.67618865966796 c0,9.1 -7.4,16.5 -16.5,16.5 c-9.1,0 -16.5,-7.4 -16.5,-16.5 c0,-9.1 7.4,-16.5 16.5,-16.5 C93.82380371093751,69.17618865966796 101.22380371093749,76.57618865966796 101.22380371093749,85.67618865966796 z" id="svg_4" fill="#391540" fill-opacity="1"/>
	<path d="M123.32380371093751,56.47618865966797 c-0.8,-2.2 -2.1,-4.1 -3.7,-5.7 c-1.6,-1.6 -3.5,-2.9 -5.7,-3.7 c-1.7000000000000002,-0.7000000000000001 -4.4,-1.5 -9.2,-1.7000000000000002 c-5.2,-0.2 -6.8,-0.30000000000000004 -20,-0.30000000000000004 c-13.2,0 -14.8,0.1 -20,0.30000000000000004 c-4.8,0.2 -7.5,1 -9.2,1.7000000000000002 c-2.2,0.8 -4.1,2.1 -5.7,3.7 c-1.6,1.6 -2.9,3.5 -3.7,5.7 c-0.7000000000000001,1.7000000000000002 -1.5,4.4 -1.7000000000000002,9.2 c-0.2,5.2 -0.30000000000000004,6.8 -0.30000000000000004,20 c0,13.2 0.1,14.8 0.30000000000000004,20 c0.2,4.8 1,7.5 1.7000000000000002,9.2 c0.8,2.2 2.1,4.1 3.7,5.7 c1.6,1.6 3.5,2.9 5.7,3.7 c1.7000000000000002,0.7000000000000001 4.4,1.5 9.2,1.7000000000000002 c5.2,0.2 6.8,0.30000000000000004 20,0.30000000000000004 c13.2,0 14.8,-0.1 20,-0.30000000000000004 c4.8,-0.2 7.5,-1 9.2,-1.7000000000000002 c4.3,-1.7000000000000002 7.7,-5.1 9.4,-9.4 c0.7000000000000001,-1.7000000000000002 1.5,-4.4 1.7000000000000002,-9.2 c0.2,-5.2 0.30000000000000004,-6.8 0.30000000000000004,-20 c0,-13.2 -0.1,-14.8 -0.30000000000000004,-20 C124.82380371093751,60.876188659667974 124.0238037109375,58.17618865966797 123.32380371093751,56.47618865966797 zM84.72380371093749,111.17618865966796 c-14.1,0 -25.4,-11.4 -25.4,-25.4 s11.4,-25.4 25.4,-25.4 c14.1,0 25.4,11.4 25.4,25.4 S98.82380371093751,111.17618865966796 84.72380371093749,111.17618865966796 zM111.22380371093749,65.17618865966796 c-3.3,0 -5.9,-2.7 -5.9,-5.9 c0,-3.3 2.7,-5.9 5.9,-5.9 s5.9,2.7 5.9,5.9 C117.1238037109375,62.47618865966797 114.4238037109375,65.17618865966796 111.22380371093749,65.17618865966796 z" id="svg_5" fill="#391540" fill-opacity="1"/>
</g></g></svg>