<svg xmlns="http://www.w3.org/2000/svg" xmlns:xlink="http://www.w3.org/1999/xlink" version="1.1" style="enable-background:new 0 0 310.4 310.4;" xml:space="preserve" width="169.047607421875" height="172.8571319580078"><rect id="backgroundrect" width="100%" height="100%" x="0" y="0" fill="none" stroke="none" style="" class=""/>


<g class="currentLayer" style=""><title>Layer 1</title><g id="svg_1" class="selected" fill="#391540" fill-opacity="1">
	<path d="M84.72380371093749,4.428565979003906 C39.3238037109375,4.428565979003906 2.5238037109375,41.2285659790039 2.5238037109375,86.6285659790039 c0,43.4 33.7,79 76.3,82 c1,0.1 2,0.1 3,0.2 c0.9,0 1.8,0 2.8,0 h0.1 c7.7,0 15.1,-1 22.1,-3 c34.6,-9.7 60.1,-41.5 60.1,-79.2 C166.9238037109375,41.2285659790039 130.1238037109375,4.428565979003906 84.72380371093749,4.428565979003906 zM106.82380371093751,150.1285659790039 c-1.9,0.7000000000000001 -3.8,1.3 -5.8,1.7000000000000002 c-5.2,1.3 -10.7,2 -16.3,2 h-0.1 c-1.9,0 -3.9,-0.1 -5.8,-0.30000000000000004 c-34.3,-3 -61.3,-31.9 -61.3,-66.9 c0,-37.1 30.1,-67.2 67.2,-67.2 c37,0 67.2,30.1 67.2,67.2 C151.9238037109375,115.9285659790039 133.0238037109375,140.9285659790039 106.82380371093751,150.1285659790039 z" id="svg_2" fill="#391540" fill-opacity="1"/>
</g><path d="M122.6238037109375,69.9285659790039 c0,22 -12.3,38.5 -30.3,38.5 c-6.1,0 -11.8,-3.3 -13.7,-7 c0,0 -3.3,12.9 -4,15.4 c-2.4,8.8 -9.6,17.7 -10.1,18.4 c-0.4,0.5 -1.2,0.30000000000000004 -1.3,-0.30000000000000004 c-0.1,-1.1 -2,-12.3 0.2,-21.3 c1.1,-4.6 7.2,-30.6 7.2,-30.6 s-1.8,-3.6 -1.8,-8.9 c0,-8.3 4.8,-14.5 10.8,-14.5 c5.1,0 7.6,3.8 7.6,8.4 c0,5.1 -3.3,12.8 -4.9,19.9 c-1.4,6 3,10.8 8.9,10.8 c10.6,0 17.8,-13.7 17.8,-29.9 c0,-12.3 -8.3,-21.5 -23.4,-21.5 c-17,0 -27.6,12.7 -27.6,26.9 c0,4.9 1.4,8.3 3.7,11 c1,1.2 1.2,1.7000000000000002 0.8,3.1 c-0.30000000000000004,1 -0.9,3.5 -1.1,4.5 c-0.4,1.4 -1.5,1.9 -2.8,1.4 c-7.8,-3.2 -11.5,-11.8 -11.5,-21.5 c0,-15.9 13.5,-35.1 40.1,-35.1 C108.4238037109375,37.7285659790039 122.6238037109375,53.2285659790039 122.6238037109375,69.9285659790039 z" id="svg_3" class="selected" fill="#391540" fill-opacity="1"/></g></svg>