<svg xmlns="http://www.w3.org/2000/svg" xmlns:xlink="http://www.w3.org/1999/xlink" version="1.1" style="enable-background:new 0 0 512 512;" xml:space="preserve" width="514.8041960000701" height="423.3986013333099"><rect id="backgroundrect" width="100%" height="100%" x="0" y="0" fill="none" stroke="none" style="" class=""/>
    <g class="currentLayer" style=""><title>Layer 1</title><path style="" d="M511.3006993532181,51.793457839965825 c-19.04,8.352 -39.328,13.888 -60.48,16.576 c21.76,-12.992 38.368,-33.408 46.176,-58.016 c-20.288,12.096 -42.688,20.64 -66.56,25.408 C411.1726993532181,15.249457839965821 383.7166993532181,2.5454578399658203 353.7646993532181,2.5454578399658203 c-58.112,0 -104.896,47.168 -104.896,104.992 c0,8.32 0.7040000000000002,16.32 2.432,23.936 c-87.264,-4.256 -164.48,-46.08 -216.352,-109.792 c-9.056,15.712 -14.368,33.696 -14.368,53.056 c0,36.352 18.72,68.576 46.624,87.232 c-16.864,-0.3200000000000001 -33.408,-5.216 -47.424,-12.928 c0,0.3200000000000001 0,0.7360000000000002 0,1.1520000000000001 c0,51.008 36.384,93.376 84.096,103.136 c-8.544,2.3360000000000003 -17.856,3.456 -27.52,3.456 c-6.72,0 -13.504,-0.3840000000000001 -19.872,-1.792 c13.6,41.568 52.192,72.128 98.08,73.12 c-35.712,27.936 -81.056,44.768 -130.144,44.768 c-8.608,0 -16.864,-0.3840000000000001 -25.12,-1.44 C45.79669935321808,401.4254578399658 100.90069935321807,418.5454578399658 160.32469935321808,418.5454578399658 c193.152,0 298.752,-160 298.752,-298.688 c0,-4.6400000000000015 -0.16000000000000006,-9.12 -0.3840000000000001,-13.568 C479.52469935321807,91.50545783996583 497.0286993532181,73.04145783996582 511.3006993532181,51.793457839965825 z" id="svg_1" class="" fill="#ffffff" fill-opacity="1"/><g id="svg_2">
    </g><g id="svg_3">
    </g><g id="svg_4">
    </g><g id="svg_5">
    </g><g id="svg_6">
    </g><g id="svg_7">
    </g><g id="svg_8">
    </g><g id="svg_9">
    </g><g id="svg_10">
    </g><g id="svg_11">
    </g><g id="svg_12">
    </g><g id="svg_13">
    </g><g id="svg_14">
    </g><g id="svg_15">
    </g><g id="svg_16">
    </g></g>
</svg>