<svg xmlns="http://www.w3.org/2000/svg" xmlns:xlink="http://www.w3.org/1999/xlink" version="1.1" style="" xml:space="preserve" width="167.14285278320312" height="172.8571319580078"><rect id="backgroundrect" width="100%" height="100%" x="0" y="0" fill="none" stroke="none" style="" class=""/>


<g class="currentLayer" style=""><title>Layer 1</title><g id="svg_1" class="selected" fill="#391540" fill-opacity="1">
	<path d="M83.77142639160155,3.4761886596679688 C38.37142639160156,3.4761886596679688 1.5714263916015625,40.276188659667966 1.5714263916015625,85.67618865966796 c0,43.4 33.7,79 76.3,82 c1,0.1 2,0.1 3,0.2 c0.9,0 1.8,0 2.8,0 h0.1 c7.7,0 15.1,-1 22.1,-3 c34.6,-9.7 60.1,-41.5 60.1,-79.2 C165.97142639160157,40.276188659667966 129.17142639160156,3.4761886596679688 83.77142639160155,3.4761886596679688 zM105.87142639160157,149.17618865966796 c-1.9,0.7000000000000001 -3.8,1.3 -5.8,1.7000000000000002 c-5.2,1.3 -10.7,2 -16.3,2 h-0.1 c-1.9,0 -3.9,-0.1 -5.8,-0.30000000000000004 c-34.3,-3 -61.3,-31.9 -61.3,-66.9 c0,-37.1 30.1,-67.2 67.2,-67.2 c37,0 67.2,30.1 67.2,67.2 C150.97142639160157,114.97618865966797 132.07142639160156,139.97618865966797 105.87142639160157,149.17618865966796 z" id="svg_2" fill="#391540" fill-opacity="1"/>
</g><g id="svg_3" class="selected" fill="#391540" fill-opacity="1">
	<path d="M109.17142639160156,97.17618865966796 c0.30000000000000004,0.5 0.30000000000000004,3 -0.7000000000000001,5.9 c-1,2.9 -6,5.6 -8.4,5.9 c-2.2,0.30000000000000004 -4.9,0.5 -7.9,-0.5 c-1.8,-0.6000000000000001 -4.1,-1.3 -7.1,-2.6 c-12.5,-5.4 -20.7,-18 -21.3,-18.9 c-0.6000000000000001,-0.8 -5.1,-6.8 -5.1,-12.9 c0,-6.1 3.2,-9.2 4.4,-10.4 c1.1,-1.3 2.5,-1.6 3.3,-1.6 c0.8,0 1.7000000000000002,0 2.4,0 c0.8,0 1.8,-0.30000000000000004 2.8,2.1 c1,2.5 3.5,8.7 3.8,9.3 c0.30000000000000004,0.6000000000000001 0.5,1.4 0.1,2.2 c-0.4,0.8 -1.8,2.6 -3.1,4.3 c-0.6000000000000001,0.7000000000000001 -1.3,1.3 -0.5,2.5 c0.7000000000000001,1.2 3.2,5.3 6.9,8.7 c4.8,4.2 8.8,5.6 10.1,6.2 c1.2,0.6000000000000001 2,0.5 2.7,-0.30000000000000004 c0.7000000000000001,-0.8 3.1,-3.6 4,-4.9 c0.8,-1.3 1.7000000000000002,-1 2.8,-0.6000000000000001 c1.2,0.4 7.3,3.4 8.5,4.1 C108.07142639160156,96.27618865966798 108.87142639160157,96.67618865966796 109.17142639160156,97.17618865966796 z" id="svg_4" fill="#391540" fill-opacity="1"/>
	<path d="M119.37142639160157,49.876188659667974 c-9.4,-9.5 -22,-14.7 -35.4,-14.7 c-27.6,0 -50,22.4 -50,50 c0,8.8 2.3,17.4 6.7,25 l-7.1,25.9 l26.5,-7 c7.3,4 15.5,6.1 23.9,6.1 h0 c27.6,0 50,-22.4 50,-50 C133.97142639160157,71.87618865966797 128.77142639160155,59.376188659667974 119.37142639160157,49.876188659667974 zM83.97142639160157,126.77618865966798 L83.97142639160157,126.77618865966798 c-7.5,0 -14.8,-2 -21.2,-5.8 l-1.5,-0.9 l-15.7,4.1 l4.2,-15.3 l-1,-1.6 c-4.2,-6.6 -6.4,-14.3 -6.4,-22.1 c0,-22.9 18.7,-41.6 41.6,-41.6 c11.1,0 21.5,4.3 29.4,12.2 c7.9,7.9 12.2,18.3 12.2,29.4 C125.57142639160156,108.17618865966796 106.87142639160157,126.77618865966798 83.97142639160157,126.77618865966798 z" id="svg_5" fill="#391540" fill-opacity="1"/>
</g></g></svg>