<svg xmlns="http://www.w3.org/2000/svg" xmlns:xlink="http://www.w3.org/1999/xlink" version="1.1" style="enable-background:new 0 0 414 310.4;" xml:space="preserve" width="237.4895146681606" height="232.83916266732035"><rect id="backgroundrect" width="100%" height="100%" x="0" y="0" fill="none" stroke="none" style="" class=""/>
<style type="text/css">
	.st0{fill:#391540;}
	.st1{clip-path:url(#SVGID_1_);fill:#D97E85;}
	.st2{clip-path:url(#SVGID_1_);fill:#F2B6BB;}
	.st3{clip-path:url(#SVGID_1_);fill:#603813;}
	.st4{clip-path:url(#SVGID_1_);fill:#F8B0A5;}
	.st5{clip-path:url(#SVGID_1_);fill:#E98787;}
	.st6{clip-path:url(#SVGID_1_);fill:#8C6239;}
	.st7{clip-path:url(#SVGID_1_);fill:#FFFFFF;}
	.st8{clip-path:url(#SVGID_1_);fill:#AED4E5;}
	.st9{clip-path:url(#SVGID_1_);}
	.st10{fill:#9BBF95;}
	.st11{fill:#758E70;}
	.st12{fill:#52634D;}
</style>

<g class="currentLayer" style=""><title>Layer 1</title><path class="st0" d="M131.38881225585936,11.338463592529294 l25.2,51.2 c2.2,4.4 6.3,7.4 11.1,8.1 l56.5,8.2 c12.1,1.8 17,16.6 8.2,25.2 l-40.8,39.8 c-3.5,3.4 -5.1,8.3 -4.2,13.1 l9.6,56.2 c2.1,12.1 -10.6,21.3 -21.4,15.6 l-50.5,-26.5 c-4.3,-2.3 -9.4,-2.3 -13.7,0 l-50.5,26.5 c-10.8,5.7 -23.5,-3.5 -21.4,-15.6 l9.6,-56.2 c0.8,-4.8 -0.8,-9.7 -4.2,-13.1 l-40.8,-39.8 c-8.8,-8.5 -3.9,-23.4 8.2,-25.2 l56.5,-8.2 c4.8,-0.7000000000000001 9,-3.7 11.1,-8.1 l25.2,-51.2 C110.38881225585936,0.33846359252929403 125.98881225585939,0.33846359252929403 131.38881225585936,11.338463592529294 z" id="svg_1"/></g></svg>