<svg xmlns="http://www.w3.org/2000/svg" xmlns:xlink="http://www.w3.org/1999/xlink" version="1.1" style="" xml:space="preserve" width="173.80952034948075" height="174.5238063232698"><rect id="backgroundrect" width="100%" height="100%" x="0" y="0" fill="none" stroke="none" style="" class="selected"/>
<g class="currentLayer" style=""><title>Layer 1</title><path d="M102.92856979370117,78.6285659790039 v13.7 h21.3 l0,21.5 h-21.3 v52.1 c-6.1,1.7000000000000002 -12.5,2.7 -19.1,3 c-1,0 -2,-0.1 -3,-0.2 v-54.9 h-18.5 v-21.5 h18.5 V76.4285659790039 c0,-18.4 11.2,-28.4 27.6,-28.4 l16.6,0 v20 l-11.4,0 C104.72856979370118,68.1285659790039 102.92856979370117,72.32856597900391 102.92856979370117,78.6285659790039 z" id="svg_1" class="" fill="#ffffff" fill-opacity="1"/><g id="svg_2" class="" fill="#ffffff" fill-opacity="1">
	<path d="M86.62856979370116,4.428565979003906 C41.22856979370117,4.428565979003906 4.428569793701172,41.2285659790039 4.428569793701172,86.6285659790039 c0,43.4 33.7,79 76.3,82 c1,0.1 2,0.1 3,0.2 c0.9,0 1.8,0 2.8,0 h0.1 c7.7,0 15.1,-1 22.1,-3 c34.6,-9.7 60.1,-41.5 60.1,-79.2 C168.82856979370118,41.2285659790039 132.02856979370117,4.428565979003906 86.62856979370116,4.428565979003906 zM108.72856979370118,150.1285659790039 c-1.9,0.7000000000000002 -3.8,1.3 -5.8,1.7000000000000002 c-5.2,1.3 -10.7,2 -16.3,2 h-0.1 c-1.9,0 -3.9,-0.1 -5.8,-0.3000000000000001 c-34.3,-3 -61.3,-31.9 -61.3,-66.9 c0,-37.1 30.1,-67.2 67.2,-67.2 c37,0 67.2,30.1 67.2,67.2 C153.82856979370118,115.9285659790039 134.92856979370117,140.9285659790039 108.72856979370118,150.1285659790039 z" id="svg_3" fill="#ffffff" fill-opacity="1"/>
</g></g></svg>