<svg xmlns="http://www.w3.org/2000/svg" xmlns:xlink="http://www.w3.org/1999/xlink" version="1.1" style="enable-background:new 0 0 310.4 310.4;" xml:space="preserve" width="168.42696401660862" height="166.179772969253"><rect id="backgroundrect" width="100%" height="100%" x="0" y="0" fill="none" stroke="none" class="" style=""/>


<g class="currentLayer" style=""><title>Layer 1</title><path d="M100.71348571777344,73.04269714355468 v13.7 h21.3 l0,21.5 h-21.3 v52.1 c-6.1,1.7000000000000002 -12.5,2.7 -19.1,3 c-1,0 -2,-0.1 -3,-0.2 v-54.9 h-18.5 v-21.5 h18.5 V70.84269714355469 c0,-18.4 11.2,-28.4 27.6,-28.4 l16.6,0 v20 l-11.4,0 C102.51348571777345,62.542697143554676 100.71348571777344,66.7426971435547 100.71348571777344,73.04269714355468 z" id="svg_1" class="selected" fill-opacity="1" fill="#391540"/><g id="svg_2" class="selected" fill-opacity="1" fill="#391540">
	<path d="M84.41348571777343,-1.1573028564453125 C39.013485717773435,-1.1573028564453125 2.2134857177734375,35.642697143554685 2.2134857177734375,81.04269714355468 c0,43.4 33.7,79 76.3,82 c1,0.1 2,0.1 3,0.2 c0.9,0 1.8,0 2.8,0 h0.1 c7.7,0 15.1,-1 22.1,-3 c34.6,-9.7 60.1,-41.5 60.1,-79.2 C166.61348571777344,35.642697143554685 129.81348571777343,-1.1573028564453125 84.41348571777343,-1.1573028564453125 zM106.51348571777345,144.54269714355468 c-1.9,0.7000000000000001 -3.8,1.3 -5.8,1.7000000000000002 c-5.2,1.3 -10.7,2 -16.3,2 h-0.1 c-1.9,0 -3.9,-0.1 -5.8,-0.30000000000000004 c-34.3,-3 -61.3,-31.9 -61.3,-66.9 c0,-37.1 30.1,-67.2 67.2,-67.2 c37,0 67.2,30.1 67.2,67.2 C151.61348571777344,110.34269714355469 132.71348571777344,135.3426971435547 106.51348571777345,144.54269714355468 z" id="svg_3" fill="#391540"/>
</g></g></svg>