<svg xmlns="http://www.w3.org/2000/svg" xmlns:xlink="http://www.w3.org/1999/xlink" version="1.1" style="enable-background:new 0 0 310.4 310.4;" xml:space="preserve" width="167.14285278320312" height="169.047607421875"><rect id="backgroundrect" width="100%" height="100%" x="0" y="0" fill="none" stroke="none" style="" class=""/>


<g class="currentLayer" style=""><title>Layer 1</title><g id="svg_1" class="selected" fill="#391540" fill-opacity="1">
	<path d="M82.81904513835906,0.619041442871094 C37.41904513835907,0.619041442871094 0.6190451383590696,37.41904144287109 0.6190451383590696,82.81904144287108 c0,43.4 33.7,79 76.3,82 c1,0.1 2,0.1 3,0.2 c0.9,0 1.8,0 2.8,0 h0.1 c7.7,0 15.1,-1 22.1,-3 c34.6,-9.7 60.1,-41.5 60.1,-79.2 C165.01904513835908,37.41904144287109 128.21904513835906,0.619041442871094 82.81904513835906,0.619041442871094 zM104.91904513835908,146.31904144287108 c-1.9,0.7000000000000002 -3.8,1.3 -5.8,1.7000000000000002 c-5.2,1.3 -10.7,2 -16.3,2 h-0.1 c-1.9,0 -3.9,-0.1 -5.8,-0.3000000000000001 c-34.3,-3 -61.3,-31.9 -61.3,-66.9 c0,-37.1 30.1,-67.2 67.2,-67.2 c37,0 67.2,30.1 67.2,67.2 C150.01904513835908,112.1190414428711 131.11904513835907,137.1190414428711 104.91904513835908,146.31904144287108 z" id="svg_2" fill="#391540" fill-opacity="1"/>
</g><g id="svg_3" class="selected" fill="#391540" fill-opacity="1">
	<g id="svg_4" fill="#391540" fill-opacity="1">
		<path d="M127.81904513835906,60.81904144287108 c-1.1,-5 -5.2,-8.6 -10.1,-9.2 c-11.5,-1.3 -23.2,-1.3 -34.9,-1.3 c-11.6,0 -23.3,0 -34.9,1.3 c-4.9,0.6000000000000002 -8.9,4.2 -10.1,9.2 c-1.6,7.1 -1.6,14.8 -1.6,22 s0,15 1.6,22 c1.1,5 5.2,8.6 10.1,9.2 c11.6,1.3 23.2,1.3 34.9,1.3 c11.6,0 23.3,0 34.9,-1.3 c4.9,-0.5 8.9,-4.2 10.1,-9.2 c1.6,-7.1 1.6,-14.8 1.6,-22 S129.41904513835908,67.81904144287108 127.81904513835906,60.81904144287108 zM70.81904513835906,97.31904144287108 v-30.8 c9.9,5.1 19.7,10.3 29.6,15.4 C90.51904513835908,87.0190414428711 80.71904513835906,92.1190414428711 70.81904513835906,97.31904144287108 z" id="svg_5" fill="#391540" fill-opacity="1"/>
	</g>
</g></g></svg>