<svg xmlns="http://www.w3.org/2000/svg" xmlns:xlink="http://www.w3.org/1999/xlink" version="1.1" style="" xml:space="preserve" width="657.6190461485294" height="202.66666424463654"><rect id="backgroundrect" width="100%" height="100%" x="0" y="0" fill="none" stroke="none"/>
<style type="text/css">
	.st0{fill:#FCDCBA;}
	.st1{fill:#391540;}
	.st2{fill:#DA9774;}
	.st3{fill:#F2F2F2;}
	.st4{fill:#D97E85;}
	.st5{fill:#F2B6BB;}
</style>

<g class="currentLayer" style=""><title>Layer 1</title><g id="svg_1" class="">
	<g id="svg_2">
		<g id="svg_3">
			<path class="st0" d="M23.023807525634766,154.81428298950195 c-8,-0.30000000000000004 -14.4,-6.8 -14.4,-14.9 c0,-5 2.5,-9.5 6.3,-12.2 C15.923807525634764,137.31428298950195 18.72380752563477,146.41428298950194 23.023807525634766,154.81428298950195 z" id="svg_4"/>
			<path class="st1" d="M14.923807525634764,127.71428298950195 c1,9.6 3.8,18.7 8.1,27.1 c-8,-0.30000000000000004 -14.4,-6.8 -14.4,-14.9 C8.623807525634767,134.91428298950194 11.123807525634767,130.41428298950194 14.923807525634764,127.71428298950195 M19.823807525634763,116.91428298950194 l-8.4,5.9 c-5.5,3.9 -8.8,10.3 -8.8,17.1 c0,11.3 8.9,20.5 20.2,20.9 l10.2,0.30000000000000004 l-4.6,-9.1 c-4,-7.9 -6.6,-16.3 -7.5,-25 L19.823807525634763,116.91428298950194 L19.823807525634763,116.91428298950194 z" id="svg_5"/>
		</g>
		<path class="st2" d="M15.523807525634766,132.21428298950195 c-1.4,2.2 -2.1,4.9 -2.1,7.7 c0,6.1 3.7,11.4 9,13.7 " id="svg_6"/>
		<g id="svg_7">
			<path class="st0" d="M181.92380752563477,154.81428298950195 c8,-0.30000000000000004 14.4,-6.8 14.4,-14.9 c0,-5 -2.5,-9.5 -6.3,-12.2 C189.02380752563477,137.31428298950195 186.22380752563475,146.41428298950194 181.92380752563477,154.81428298950195 z" id="svg_8"/>
			<path class="st1" d="M190.02380752563477,127.71428298950195 c3.8,2.7 6.3,7.2 6.3,12.2 c0,8.1 -6.4,14.7 -14.4,14.9 C186.22380752563475,146.41428298950194 189.02380752563477,137.31428298950195 190.02380752563477,127.71428298950195 M185.12380752563476,116.91428298950194 l-1.1,10.2 c-0.9,8.7 -3.4,17.1 -7.5,25 l-4.6,9.1 l10.2,-0.30000000000000004 c11.3,-0.4 20.2,-9.6 20.2,-20.9 c0,-6.8 -3.3,-13.2 -8.8,-17.1 L185.12380752563476,116.91428298950194 L185.12380752563476,116.91428298950194 z" id="svg_9"/>
		</g>
		<path class="st2" d="M182.52380752563477,153.61428298950196 c5.3,-2.3 9,-7.6 9,-13.7 c0,-2.8 -0.8,-5.5 -2.1,-7.7 " id="svg_10"/>
		<path class="st0" d="M15.423807525634764,119.61428298950196 c0,4.8 0.5,9.4 1.4,14 c7.3,36.7 42.8,64.6 85.5,64.6 c38.9,0 71.9,-23.1 82.9,-55 c0.7000000000000001,-2.1 1.3,-4.2 1.9,-6.3 c1.4,-5.5 2.1,-11.3 2.1,-17.2 c0,-0.8 0,-1.6 0,-2.4 c-0.6000000000000001,-18.6 -8.4,-35.6 -20.9,-48.7 c-7.7,-8.1 -17.2,-14.8 -28,-19.6 c-4.5,-2 -9.2,-3.6 -14,-4.9 c-2.2,-0.6000000000000001 -4.5,-1.1 -6.8,-1.5 c-3.3,-0.6000000000000001 -6.6,-1 -10.1,-1.3 c-2.4,-0.2 -4.7,-0.30000000000000004 -7.2,-0.30000000000000004 c-1,0 -1.9,0 -2.9,0 c-32.1,0.9 -59.8,17.6 -74,41.8 c-6.2,10.6 -9.8,22.5 -10,35.3 C15.423807525634764,118.71428298950195 15.423807525634764,119.11428298950196 15.423807525634764,119.61428298950196 z" id="svg_11"/>
		<path class="st2" d="M15.423807525634764,119.61428298950196 c0,4.8 0.5,9.4 1.4,14 c7.3,36.7 42.8,64.6 85.5,64.6 c38.9,0 71.9,-23.1 82.9,-55 c0.7000000000000001,-2.1 1.3,-4.2 1.9,-6.3 c1.4,-5.5 2.1,-11.3 2.1,-17.2 c0,-0.8 0,-1.6 0,-2.4 c0,-1.1 -0.1,-2.1 -0.2,-3.2 c-0.30000000000000004,4 -0.9,7.9 -1.9,11.6 c-0.5,2.1 -1.2,4.3 -1.9,6.3 c-11.1,31.9 -44,55 -82.9,55 c-42.7,0 -78.2,-27.9 -85.5,-64.6 c-0.5,-2.7 -0.9,-5.6 -1.1,-8.4 c-0.1,1.3 -0.2,2.7 -0.2,4.1 C15.423807525634764,118.71428298950195 15.423807525634764,119.11428298950196 15.423807525634764,119.61428298950196 z" id="svg_12"/>
		<path class="st1" d="M13.823807525634763,134.21428298950195 c-0.9,-4.8 -1.4,-9.7 -1.4,-14.6 c0,-0.5 0,-1 0,-1.5 c0.30000000000000004,-12.8 3.9,-25.5 10.4,-36.7 c15.1,-25.8 44.4,-42.4 76.4,-43.3 c3.4,-0.1 7,0 10.4,0.2 c3.5,0.2 7,0.7000000000000001 10.4,1.3 c2.4,0.4 4.7,0.9 7,1.5 c5,1.3 9.8,3 14.5,5 c11.1,4.9 20.9,11.7 29,20.2 c13.4,14.1 21.1,32.1 21.7,50.7 c0,0.8 0,1.7000000000000002 0,2.5 c0,6 -0.7000000000000001,12.1 -2.2,17.9 c-0.5,2.2 -1.2,4.4 -2,6.6 c-11.8,34.1 -46.3,57 -85.8,57 C58.72380752563477,201.21428298950195 21.523807525634766,173.01428298950196 13.823807525634763,134.21428298950195 zM99.52380752563477,44.11428298950196 c-30,0.9 -57.4,16.3 -71.5,40.3 c-6.1,10.5 -9.4,21.9 -9.6,33.9 c0,0.4 0,0.9 0,1.3 c0,4.5 0.4,9 1.3,13.4 c7.2,36 41.9,62.2 82.6,62.2 c36.9,0 69.1,-21.3 80.1,-53 c0.7000000000000001,-2 1.3,-4.1 1.8,-6.1 c1.3,-5.4 2,-10.9 2,-16.5 c0,-0.8 0,-1.5 0,-2.3 c-0.6000000000000001,-17.1 -7.7,-33.7 -20.1,-46.8 c-7.6,-8 -16.6,-14.3 -27,-18.9 c-4.3,-1.9 -8.9,-3.5 -13.6,-4.7 c-2.1,-0.5 -4.3,-1 -6.5,-1.4 c-3.2,-0.6000000000000001 -6.5,-1 -9.7,-1.2 c-2.3,-0.2 -4.6,-0.30000000000000004 -6.9,-0.30000000000000004 C101.42380752563477,44.11428298950196 100.52380752563477,44.11428298950196 99.52380752563477,44.11428298950196 z" id="svg_13"/>
		<path class="st1" d="M67.72380752563477,136.21428298950195 c1.9,0 3.5,-1.6 3.5,-3.5 c0,-5.4 4.4,-9.8 9.8,-9.8 c5.4,0 9.8,4.4 9.8,9.8 c0,1.9 1.6,3.5 3.5,3.5 c1.9,0 3.5,-1.6 3.5,-3.5 c0,-9.3 -7.5,-16.8 -16.8,-16.8 s-16.8,7.5 -16.8,16.8 C64.22380752563477,134.61428298950196 65.72380752563477,136.21428298950195 67.72380752563477,136.21428298950195 z" id="svg_14"/>
		<path class="st1" d="M110.92380752563477,136.21428298950195 c1.9,0 3.5,-1.6 3.5,-3.5 c0,-5.4 4.4,-9.8 9.8,-9.8 c5.4,0 9.8,4.4 9.8,9.8 c0,1.9 1.6,3.5 3.5,3.5 c1.9,0 3.5,-1.6 3.5,-3.5 c0,-9.3 -7.5,-16.8 -16.8,-16.8 s-16.8,7.5 -16.8,16.8 C107.42380752563477,134.61428298950196 109.02380752563477,136.21428298950195 110.92380752563477,136.21428298950195 z" id="svg_15"/>
		<path class="st1" d="M102.52380752563477,182.71428298950195 c7.9,0 15.3,-4.2 19.2,-11.1 c1,-1.7000000000000002 0.4,-3.8 -1.3,-4.8 c-1.7000000000000002,-1 -3.8,-0.4 -4.8,1.3 c-2.7,4.7 -7.7,7.6 -13.1,7.6 s-10.4,-2.9 -13.1,-7.6 c-1,-1.7000000000000002 -3.1,-2.3 -4.8,-1.3 c-1.7000000000000002,1 -2.3,3.1 -1.3,4.8 C87.32380752563476,178.51428298950196 94.62380752563476,182.71428298950195 102.52380752563477,182.71428298950195 z" id="svg_16"/>
		<g id="svg_17">
			<path class="st1" d="M15.323807525634763,124.81428298950195 c0,-1 0.1,-1.9 0.1,-2.9 c-0.1,2.6 -0.1,5.3 -0.1,8.1 v-2 c0,-0.6000000000000001 0,-1.2 0,-1.8 C15.323807525634763,125.81428298950195 15.323807525634763,125.31428298950195 15.323807525634763,124.81428298950195 z" id="svg_18"/>
			<path class="st1" d="M180.02380752563477,58.71428298950195 H146.52380752563477 c-2,-1.1 -4.2,-2.1 -6.3,-3.1 c-4.5,-2 -9.2,-3.6 -14,-4.9 c-2.2,-0.6000000000000001 -4.5,-1.1 -6.8,-1.5 c-3.3,-0.6000000000000001 -6.7,-1 -10.1,-1.3 c-2.4,-0.2 -4.7,-0.30000000000000004 -7.2,-0.30000000000000004 c-1,0 -1.9,0 -2.9,0 c-15.1,0.4 -29.3,4.4 -41.4,10.9 H23.423807525634764 c0,-0.5 0.1,-0.9 0.30000000000000004,-1.3 c2,-3.8 19,-53.4 35.1,-54.3 c0,0 7.8,-2.4 0,19.2 c0,0 10.3,-14 23.2,-12.8 c12.9,1.2 67.4,-1.6 71.8,-8.8 c0,0 0.8,6.9 -11.2,11.8 c0,0 20,-3.1 31.4,-9.5 c0,0 3.8,-2.6 4.3,2.6 c0.5,5.2 -1.4,23.3 -17.8,32.2 c0,0 16.4,4.2 19.9,8.2 C181.42380752563477,47.21428298950195 181.12380752563476,51.914282989501956 180.02380752563477,58.71428298950195 z" id="svg_19"/>
			<path class="st1" d="M15.323807525634763,136.01428298950196 c0,-2 0,-4 0,-5.9 L15.323807525634763,136.01428298950196 L15.323807525634763,136.01428298950196 z" id="svg_20"/>
			<path class="st1" d="M23.423807525634764,58.71428298950195 h34.5 c-13.8,7.4 -25,18.1 -32.5,30.9 c-5.7,9.8 -9.2,20.7 -9.9,32.4 C16.523807525634766,69.41428298950196 23.423807525634764,58.71428298950195 23.423807525634764,58.71428298950195 z" id="svg_21"/>
			<path class="st1" d="M189.12380752563476,136.01428298950196 v-11.1 h0 c0,-0.30000000000000004 0,-0.6000000000000001 0,-0.9 c-0.6000000000000001,-18.6 -8.4,-35.6 -20.9,-48.7 c-6.2,-6.5 -13.5,-12.1 -21.7,-16.5 h33.4 C191.12380752563476,58.71428298950195 189.12380752563476,136.01428298950196 189.12380752563476,136.01428298950196 z" id="svg_22"/>
		</g>
		<g id="svg_23">
			<g id="svg_24">
				<path class="st2" d="M59.22380752563477,78.71428298950195 c3.5,-0.4 6.9,-0.6000000000000001 10.4,-0.7000000000000001 c3.5,-0.1 6.9,-0.2 10.4,-0.1 c3.5,0.1 6.9,0.4 10.4,0.5 c3.5,0.1 6.9,0 10.4,-0.2 c3.5,-0.2 6.9,-0.30000000000000004 10.4,-0.4 c3.5,-0.1 6.9,-0.2 10.4,-0.1 c6.9,0.1 13.8,0.30000000000000004 20.8,1 v0.2 c-6.9,0.6000000000000001 -13.8,0.9 -20.8,1 c-3.5,0 -6.9,-0.1 -10.4,-0.1 c-3.5,0 -6.9,-0.2 -10.4,-0.4 c-3.5,-0.2 -6.9,-0.30000000000000004 -10.4,-0.2 c-3.5,0.1 -6.9,0.4 -10.4,0.5 c-3.5,0.1 -6.9,0.1 -10.4,-0.1 c-3.5,-0.1 -6.9,-0.30000000000000004 -10.4,-0.7000000000000001 V78.71428298950195 z" id="svg_25"/>
			</g>
			<g id="svg_26">
				<path class="st2" d="M114.02380752563477,84.91428298950194 c2.4,-0.30000000000000004 4.7,-0.4 7.1,-0.4 c1.2,0.1 2.4,0.2 3.5,0.30000000000000004 c1.2,0 2.4,0 3.5,-0.1 c2.4,-0.2 4.7,-0.30000000000000004 7.1,-0.30000000000000004 c2.4,0.1 4.7,0.2 7.1,0.5 v0.1 c-2.4,0.30000000000000004 -4.7,0.4 -7.1,0.5 c-2.4,0 -4.7,-0.1 -7.1,-0.30000000000000004 c-1.2,-0.1 -2.4,-0.1 -3.5,-0.1 c-1.2,0 -2.4,0.2 -3.5,0.30000000000000004 c-2.4,0.1 -4.7,0 -7.1,-0.4 V84.91428298950194 z" id="svg_27"/>
			</g>
			<g id="svg_28">
				<path class="st2" d="M59.22380752563477,84.91428298950194 c3.1,-0.30000000000000004 6.2,-0.4 9.4,-0.4 c1.6,0.1 3.1,0.2 4.7,0.30000000000000004 c1.6,0 3.1,0 4.7,-0.1 c3.1,-0.2 6.2,-0.30000000000000004 9.4,-0.30000000000000004 c3.1,0.1 6.2,0.2 9.4,0.5 v0.1 c-3.1,0.30000000000000004 -6.2,0.4 -9.4,0.5 c-3.1,0 -6.2,-0.1 -9.4,-0.30000000000000004 c-1.6,-0.1 -3.1,-0.1 -4.7,-0.1 c-1.6,0 -3.1,0.2 -4.7,0.30000000000000004 c-3.1,0.1 -6.2,0 -9.4,-0.4 V84.91428298950194 z" id="svg_29"/>
			</g>
			<g id="svg_30">
				<path class="st2" d="M126.12380752563476,90.31428298950195 c1.3,-0.2 2.7,-0.2 4,-0.2 c1.3,0.1 2.7,0.2 4,0.1 c2.7,-0.2 5.4,-0.2 8.1,0.1 v0.1 c-2.7,0.30000000000000004 -5.4,0.30000000000000004 -8.1,0.1 c-1.3,-0.1 -2.7,0 -4,0.1 C128.82380752563478,90.61428298950196 127.42380752563477,90.51428298950196 126.12380752563476,90.31428298950195 L126.12380752563476,90.31428298950195 z" id="svg_31"/>
			</g>
			<g id="svg_32">
				<path class="st2" d="M77.32380752563476,90.31428298950195 c0.9,-0.2 1.7000000000000002,-0.2 2.6,-0.2 c0.4,0 0.9,0.1 1.3,0.1 c0.4,0 0.9,0 1.3,-0.1 c1.7000000000000002,-0.2 3.4,-0.2 5.1,0.1 v0.1 c-1.7000000000000002,0.30000000000000004 -3.4,0.30000000000000004 -5.1,0.1 c-0.4,0 -0.9,-0.1 -1.3,-0.1 c-0.4,0 -0.9,0.1 -1.3,0.1 C79.02380752563477,90.61428298950196 78.22380752563477,90.51428298950196 77.32380752563476,90.31428298950195 L77.32380752563476,90.31428298950195 z" id="svg_33"/>
			</g>
			<g id="svg_34">
				<path class="st2" d="M59.22380752563477,90.31428298950195 c1.1,-0.2 2.1,-0.2 3.2,-0.2 c0.5,0 1.1,0.1 1.6,0.1 c0.5,0 1.1,0 1.6,-0.1 c2.1,-0.2 4.2,-0.2 6.3,0.1 v0.1 c-2.1,0.30000000000000004 -4.2,0.30000000000000004 -6.3,0.1 c-0.5,0 -1.1,-0.1 -1.6,-0.1 c-0.5,0 -1.1,0.1 -1.6,0.1 C61.32380752563476,90.61428298950196 60.22380752563477,90.51428298950196 59.22380752563477,90.31428298950195 L59.22380752563477,90.31428298950195 z" id="svg_35"/>
			</g>
		</g>
		<path class="st1" d="M102.32380752563478,151.11428298950196 c0.6000000000000001,-1.7000000000000002 2.5,-5 8.4,-5 c7.8,0 15.2,9.6 15.7,10.4 c0.5,0.7000000000000001 6.7,8 11.7,5.8 c5.1,-2.2 3.8,-3.9 5.2,-3.8 c1.4,0.1 -1.2,5.9 -6,9 c-4.8,3.1 -12.5,5.5 -21.8,3.3 c-6.4,-1.5 -11,-5.3 -13.2,-7.5 c-2.2,2.2 -6.8,6 -13.2,7.5 c-9.3,2.2 -18.3,-1 -23.1,-4.1 c-4.8,-3.1 -6,-8.1 -4.7,-8.3 c1.4,-0.1 0.1,1.6 5.2,3.8 c5.1,2.2 11.2,-5.1 11.7,-5.8 c0.5,-0.7000000000000001 7.9,-10.4 15.7,-10.4 C99.82380752563478,146.11428298950196 101.72380752563475,149.51428298950196 102.32380752563478,151.11428298950196 z" id="svg_36"/>
	</g>
	<g id="svg_37">
		<g id="svg_38">
			<path class="st0" d="M476.1238075256348,146.21428298950195 c-8,-0.30000000000000004 -14.4,-6.8 -14.4,-14.9 c0,-5 2.5,-9.5 6.3,-12.2 C469.02380752563477,128.71428298950195 471.8238075256348,137.81428298950195 476.1238075256348,146.21428298950195 z" id="svg_39"/>
			<path class="st1" d="M468.02380752563477,119.11428298950196 c1,9.6 3.8,18.7 8.1,27.1 c-8,-0.30000000000000004 -14.4,-6.8 -14.4,-14.9 C461.72380752563475,126.21428298950195 464.22380752563475,121.81428298950195 468.02380752563477,119.11428298950196 M472.92380752563474,108.31428298950195 l-8.4,5.9 c-5.5,3.9 -8.8,10.3 -8.8,17.1 c0,11.3 8.9,20.5 20.2,20.9 l10.2,0.30000000000000004 l-4.6,-9.1 c-4,-7.9 -6.6,-16.3 -7.5,-25 L472.92380752563474,108.31428298950195 L472.92380752563474,108.31428298950195 z" id="svg_40"/>
		</g>
		<path class="st2" d="M468.6238075256348,123.61428298950196 c-1.4,2.2 -2.1,4.9 -2.1,7.7 c0,6.1 3.7,11.4 9,13.7 " id="svg_41"/>
		<g id="svg_42">
			<path class="st0" d="M635.0238075256348,146.21428298950195 c8,-0.30000000000000004 14.4,-6.8 14.4,-14.9 c0,-5 -2.5,-9.5 -6.3,-12.2 C642.1238075256348,128.71428298950195 639.3238075256347,137.81428298950195 635.0238075256348,146.21428298950195 z" id="svg_43"/>
			<path class="st1" d="M643.1238075256348,119.11428298950196 c3.8,2.7 6.3,7.2 6.3,12.2 c0,8.1 -6.4,14.7 -14.4,14.9 C639.3238075256347,137.81428298950195 642.1238075256348,128.71428298950195 643.1238075256348,119.11428298950196 M638.2238075256348,108.31428298950195 l-1.1,10.2 c-0.9,8.7 -3.4,17.1 -7.5,25 l-4.6,9.1 l10.2,-0.30000000000000004 c11.3,-0.4 20.2,-9.6 20.2,-20.9 c0,-6.8 -3.3,-13.2 -8.8,-17.1 L638.2238075256348,108.31428298950195 L638.2238075256348,108.31428298950195 z" id="svg_44"/>
		</g>
		<path class="st2" d="M635.6238075256348,145.01428298950196 c5.3,-2.3 9,-7.6 9,-13.7 c0,-2.8 -0.8,-5.5 -2.1,-7.7 " id="svg_45"/>
		<path class="st0" d="M468.52380752563477,111.01428298950196 c0,4.8 0.5,9.4 1.4,14 c7.3,36.7 42.8,64.6 85.5,64.6 c38.9,0 71.9,-23.1 82.9,-55 c0.7000000000000001,-2.1 1.3,-4.2 1.9,-6.3 c1.4,-5.5 2.1,-11.3 2.1,-17.2 c0,-0.8 0,-1.6 0,-2.4 c-0.6000000000000001,-18.6 -8.4,-35.6 -20.9,-48.7 c-7.7,-8.1 -17.2,-14.8 -28,-19.6 c-4.5,-2 -9.2,-3.6 -14,-4.9 c-2.2,-0.6000000000000001 -4.5,-1.1 -6.8,-1.5 c-3.3,-0.6000000000000001 -6.6,-1 -10.1,-1.3 c-2.4,-0.2 -4.7,-0.30000000000000004 -7.2,-0.30000000000000004 c-1,0 -1.9,0 -2.9,0 c-32.1,0.9 -59.8,17.6 -74,41.8 c-6.2,10.6 -9.8,22.5 -10,35.3 C468.52380752563477,110.01428298950196 468.52380752563477,110.51428298950196 468.52380752563477,111.01428298950196 z" id="svg_46"/>
		<path class="st2" d="M468.52380752563477,111.01428298950196 c0,4.8 0.5,9.4 1.4,14 c7.3,36.7 42.8,64.6 85.5,64.6 c38.9,0 71.9,-23.1 82.9,-55 c0.7000000000000001,-2.1 1.3,-4.2 1.9,-6.3 c1.4,-5.5 2.1,-11.3 2.1,-17.2 c0,-0.8 0,-1.6 0,-2.4 c0,-1.1 -0.1,-2.1 -0.2,-3.2 c-0.30000000000000004,4 -0.9,7.9 -1.9,11.6 c-0.5,2.1 -1.2,4.3 -1.9,6.3 c-11.1,31.9 -44,55 -82.9,55 c-42.7,0 -78.2,-27.9 -85.5,-64.6 c-0.5,-2.7 -0.9,-5.6 -1.1,-8.4 c-0.1,1.3 -0.2,2.7 -0.2,4.1 C468.52380752563477,110.01428298950196 468.52380752563477,110.51428298950196 468.52380752563477,111.01428298950196 z" id="svg_47"/>
		<path class="st1" d="M466.92380752563474,125.51428298950196 c-0.9,-4.8 -1.4,-9.7 -1.4,-14.6 c0,-0.5 0,-1 0,-1.5 c0.30000000000000004,-12.8 3.9,-25.5 10.4,-36.7 c15.1,-25.8 44.4,-42.4 76.4,-43.3 c3.4,-0.1 7,0 10.4,0.2 c3.5,0.2 7,0.7000000000000001 10.4,1.3 c2.4,0.4 4.7,0.9 7,1.5 c5,1.3 9.8,3 14.5,5 c11.1,4.9 20.9,11.7 29,20.2 c13.4,14.1 21.1,32.1 21.7,50.7 c0,0.8 0,1.7000000000000002 0,2.5 c0,6 -0.7000000000000001,12.1 -2.2,17.9 c-0.5,2.2 -1.2,4.4 -2,6.6 c-11.8,34.1 -46.3,57 -85.8,57 C511.8238075256347,192.51428298950196 474.6238075256348,164.41428298950194 466.92380752563474,125.51428298950196 zM552.6238075256348,35.51428298950195 c-30,0.9 -57.4,16.3 -71.5,40.3 c-6.1,10.5 -9.4,21.9 -9.6,33.9 c0,0.4 0,0.9 0,1.3 c0,4.5 0.4,9 1.3,13.4 c7.2,36 41.9,62.2 82.6,62.2 c36.9,0 69.1,-21.3 80.1,-53 c0.7000000000000001,-2 1.3,-4.1 1.8,-6.1 c1.3,-5.4 2,-10.9 2,-16.5 c0,-0.8 0,-1.5 0,-2.3 c-0.6000000000000001,-17.1 -7.7,-33.7 -20.1,-46.8 c-7.6,-8 -16.6,-14.3 -27,-18.9 c-4.3,-1.9 -8.9,-3.5 -13.6,-4.7 c-2.1,-0.5 -4.3,-1 -6.5,-1.4 c-3.2,-0.6000000000000001 -6.5,-1 -9.7,-1.2 c-2.3,-0.2 -4.6,-0.30000000000000004 -6.9,-0.30000000000000004 C554.5238075256348,35.414282989501956 553.5238075256348,35.414282989501956 552.6238075256348,35.51428298950195 z" id="svg_48"/>
		<path class="st1" d="M520.8238075256347,147.61428298950196 c1.9,0 3.5,-1.6 3.5,-3.5 c0,-5.4 4.4,-9.8 9.8,-9.8 s9.8,4.4 9.8,9.8 c0,1.9 1.6,3.5 3.5,3.5 c1.9,0 3.5,-1.6 3.5,-3.5 c0,-9.3 -7.5,-16.8 -16.8,-16.8 s-16.8,7.5 -16.8,16.8 C517.3238075256347,146.11428298950196 518.8238075256347,147.61428298950196 520.8238075256347,147.61428298950196 z" id="svg_49"/>
		<path class="st1" d="M564.0238075256348,147.61428298950196 c1.9,0 3.5,-1.6 3.5,-3.5 c0,-5.4 4.4,-9.8 9.8,-9.8 s9.8,4.4 9.8,9.8 c0,1.9 1.6,3.5 3.5,3.5 c1.9,0 3.5,-1.6 3.5,-3.5 c0,-9.3 -7.5,-16.8 -16.8,-16.8 s-16.8,7.5 -16.8,16.8 C560.5238075256348,146.11428298950196 562.1238075256348,147.61428298950196 564.0238075256348,147.61428298950196 z" id="svg_50"/>
		<path class="st1" d="M555.6238075256348,174.11428298950196 c7.9,0 15.3,-4.2 19.2,-11.1 c1,-1.7000000000000002 0.4,-3.8 -1.3,-4.8 c-1.7000000000000002,-1 -3.8,-0.4 -4.8,1.3 c-2.7,4.7 -7.7,7.6 -13.1,7.6 s-10.4,-2.9 -13.1,-7.6 c-1,-1.7000000000000002 -3.1,-2.3 -4.8,-1.3 c-1.7000000000000002,1 -2.3,3.1 -1.3,4.8 C540.3238075256347,169.81428298950195 547.7238075256348,174.11428298950196 555.6238075256348,174.11428298950196 z" id="svg_51"/>
	</g>
	<g id="svg_52">
		<path class="st1" d="M389.72380752563475,50.81428298950195 c-0.6000000000000001,0 -1.2,-0.2 -1.7000000000000002,-0.5 c-10.4,-6.8 -22,-11.4 -34.4,-13.9 c-4.8,-1 -9.7,-1.6 -14.5,-1.8 c-3.3,-0.2 -6.8,-0.2 -9.7,-0.1 c-0.9,0 -1.8,-0.30000000000000004 -2.4,-1 c-0.6000000000000001,-0.7000000000000001 -0.9,-1.6 -0.8,-2.5 c1.9,-17.6 16.8,-30.9 34.6,-30.9 c14.1,0 26.7,8.4 32.1,21.4 c1.6,3.9 2.5,8.1 2.6,12.3 c0,0.4 0,0.7000000000000001 0,1.1 c0,4.9 -1,9.7 -3,14.1 c-0.4,0.8 -1.1,1.5 -2,1.7000000000000002 C390.3238075256348,50.71428298950195 390.02380752563477,50.81428298950195 389.72380752563475,50.81428298950195 zM333.22380752563475,28.01428298950195 c2.1,0 4.3,0.1 6.4,0.2 c5.1,0.30000000000000004 10.2,0.9 15.3,1.9 c11.9,2.4 23.1,6.7 33.3,12.8 c0.8,-2.6 1.2,-5.4 1.2,-8.2 c0,-0.2 0,-0.5 0,-0.7000000000000001 c0,0 0,-0.1 0,-0.1 c-0.1,-3.5 -0.8,-6.9 -2.2,-10.1 c-4.4,-10.7 -14.8,-17.6 -26.3,-17.6 C347.52380752563477,6.3142829895019545 336.1238075256348,15.414282989501956 333.22380752563475,28.01428298950195 C333.1238075256348,28.01428298950195 333.1238075256348,28.01428298950195 333.22380752563475,28.01428298950195 z" id="svg_53"/>
		<g id="svg_54">
			<path class="st0" d="M415.8238075256348,153.51428298950196 c8.3,-0.30000000000000004 15,-7.1 15,-15.6 c0,-5.3 -2.6,-9.9 -6.6,-12.7 C423.22380752563475,135.21428298950195 420.3238075256348,144.71428298950195 415.8238075256348,153.51428298950196 z" id="svg_55"/>
			<path class="st1" d="M424.3238075256348,125.21428298950195 c4,2.8 6.6,7.5 6.6,12.7 c0,8.4 -6.7,15.3 -15,15.6 C420.3238075256348,144.71428298950195 423.22380752563475,135.21428298950195 424.3238075256348,125.21428298950195 M419.22380752563475,113.91428298950194 l-1.1,10.6 c-1,9.1 -3.6,17.8 -7.8,26.1 l-4.8,9.5 l10.6,-0.4 c11.8,-0.4 21.1,-10 21.1,-21.8 c0,-7.1 -3.4,-13.7 -9.2,-17.8 L419.22380752563475,113.91428298950194 L419.22380752563475,113.91428298950194 z" id="svg_56"/>
		</g>
		<path class="st2" d="M416.52380752563477,152.21428298950195 c5.5,-2.4 9.4,-7.9 9.4,-14.3 c0,-2.9 -0.8,-5.7 -2.2,-8 " id="svg_57"/>
		<g id="svg_58">
			<path class="st0" d="M250.22380752563475,153.51428298950196 c-8.3,-0.30000000000000004 -15,-7.1 -15,-15.6 c0,-5.3 2.6,-9.9 6.6,-12.7 C242.82380752563478,135.21428298950195 245.72380752563475,144.71428298950195 250.22380752563475,153.51428298950196 z" id="svg_59"/>
			<path class="st1" d="M241.72380752563475,125.21428298950195 c1.1,10 4,19.5 8.4,28.3 c-8.3,-0.30000000000000004 -15,-7.1 -15,-15.6 C235.1238075256348,132.71428298950195 237.72380752563475,128.01428298950196 241.72380752563475,125.21428298950195 M246.82380752563478,113.91428298950194 l-8.7,6.2 c-5.8,4.1 -9.2,10.8 -9.2,17.8 c0,11.8 9.3,21.4 21.1,21.8 l10.6,0.4 l-4.8,-9.5 c-4.2,-8.2 -6.8,-17 -7.8,-26.1 L246.82380752563478,113.91428298950194 L246.82380752563478,113.91428298950194 z" id="svg_60"/>
		</g>
		<path class="st2" d="M242.42380752563474,129.91428298950194 c-1.4,2.3 -2.2,5.1 -2.2,8 c0,6.4 3.9,11.9 9.4,14.3 " id="svg_61"/>
		<path class="st0" d="M423.8238075256348,116.81428298950195 c0,5 -0.5,9.8 -1.4,14.6 c-7.6,38.3 -44.6,67.3 -89.2,67.3 c-40.6,0 -74.9,-24.1 -86.5,-57.4 c-0.8,-2.2 -1.4,-4.4 -2,-6.6 c-1.4,-5.8 -2.2,-11.8 -2.2,-17.9 c0,-0.8 0,-1.7000000000000002 0,-2.5 c0.6000000000000001,-19.4 8.7,-37.1 21.8,-50.8 c8,-8.5 18,-15.4 29.2,-20.4 c4.7,-2.1 9.5,-3.8 14.6,-5.1 c2.3,-0.6000000000000001 4.7,-1.1 7,-1.5 c3.4,-0.6000000000000001 6.9,-1.1 10.5,-1.3 c2.5,-0.2 5,-0.30000000000000004 7.5,-0.30000000000000004 c1,0 2,0 3,0.1 c33.5,1 62.4,18.4 77.1,43.6 c6.4,11 10.2,23.5 10.5,36.8 C423.8238075256348,115.81428298950195 423.8238075256348,116.31428298950195 423.8238075256348,116.81428298950195 z" id="svg_62"/>
		<path class="st2" d="M423.8238075256348,116.81428298950195 c0,5 -0.5,9.8 -1.4,14.6 c-7.6,38.3 -44.6,67.3 -89.2,67.3 c-40.6,0 -74.9,-24.1 -86.5,-57.4 c-0.8,-2.2 -1.4,-4.4 -2,-6.6 c-1.4,-5.8 -2.2,-11.8 -2.2,-17.9 c0,-0.8 0,-1.7000000000000002 0,-2.5 c0,-1.1 0.1,-2.2 0.2,-3.3 c0.30000000000000004,4.1 1,8.2 1.9,12.1 c0.6000000000000001,2.2 1.2,4.5 2,6.6 c11.5,33.2 45.9,57.4 86.5,57.4 c44.5,0 81.6,-29.1 89.2,-67.3 c0.6000000000000001,-2.9 1,-5.8 1.2,-8.8 c0.1,1.4 0.2,2.8 0.2,4.2 C423.8238075256348,115.81428298950195 423.8238075256348,116.31428298950195 423.8238075256348,116.81428298950195 z" id="svg_63"/>
		<g id="svg_64">
			<path class="st3" d="M244.72380752563475,134.71428298950195 c-1.4,-5.8 -2.2,-11.8 -2.2,-17.9 c0,-0.8 0,-1.7000000000000002 0,-2.5 c0.6000000000000001,-19.4 8.7,-37.1 21.8,-50.8 c8,-8.5 18,-15.4 29.2,-20.4 c1.4,5.8 2.2,11.8 2.2,17.9 C295.72380752563475,93.41428298950194 274.92380752563474,121.41428298950194 244.72380752563475,134.71428298950195 z" id="svg_65"/>
			<path class="st1" d="M243.72380752563475,136.91428298950194 l-0.4,-1.8 c-1.5,-6 -2.2,-12.1 -2.2,-18.3 c0,-0.9 0,-1.7000000000000002 0,-2.5 c0.6000000000000001,-19 8.5,-37.4 22.2,-51.8 C271.52380752563477,53.61428298950196 281.52380752563477,46.71428298950195 292.92380752563474,41.71428298950195 l1.7000000000000002,-0.7000000000000001 l0.4,1.8 c1.5,6 2.2,12.1 2.2,18.3 c0,31.8 -20.4,61.2 -51.9,75.1 L243.72380752563475,136.91428298950194 zM292.52380752563477,45.31428298950195 c-10.3,4.8 -19.4,11.3 -27,19.3 c-13.2,13.9 -20.7,31.5 -21.3,49.8 c0,0.8 0,1.6 0,2.4 c0,5.3 0.6000000000000001,10.6 1.7000000000000002,15.7 c29.9,-13.8 48.4,-41.1 48.4,-71.5 C294.22380752563475,55.71428298950195 293.6238075256348,50.414282989501956 292.52380752563477,45.31428298950195 z" id="svg_66"/>
		</g>
		<g id="svg_67">
			<path class="st4" d="M319.42380752563474,61.01428298950195 c0,8.9 -1.6,17.5 -4.5,25.5 c-10,27.7 -36,48.9 -68.2,54.8 c-0.8,-2.2 -1.4,-4.4 -2,-6.6 c30.2,-13.3 51,-41.3 51,-73.7 c0,-6.1 -0.8,-12.2 -2.2,-17.9 c4.7,-2.1 9.5,-3.8 14.6,-5.1 c2.3,-0.6000000000000001 4.7,-1.1 7,-1.5 C317.92380752563474,44.21428298950195 319.42380752563474,52.51428298950195 319.42380752563474,61.01428298950195 z" id="svg_68"/>
			<path class="st1" d="M245.72380752563475,143.11428298950196 l-0.4,-1.3 c-0.8,-2.2 -1.4,-4.5 -2,-6.8 l-0.30000000000000004,-1.3 l1.2,-0.5 c30.9,-13.6 50.1,-41.3 50.1,-72.3 c0,-5.9 -0.7000000000000001,-11.8 -2.1,-17.5 l-0.30000000000000004,-1.3 l1.2,-0.5 c4.7,-2.1 9.7,-3.8 14.9,-5.1 c2.3,-0.6000000000000001 4.7,-1.1 7.2,-1.6 l1.3,-0.2 l0.4,1.3 c2.8,8.1 4.2,16.5 4.2,25 c0,8.9 -1.5,17.7 -4.6,26.1 c-10.3,28.5 -36.9,49.9 -69.4,55.8 L245.72380752563475,143.11428298950196 zM246.6238075256348,135.61428298950196 c0.4,1.3 0.7000000000000001,2.6 1.2,3.9 c30.7,-6 55.8,-26.4 65.6,-53.5 c2.9,-8 4.4,-16.4 4.4,-25 c0,-7.7 -1.2,-15.4 -3.6,-22.7 c-1.9,0.4 -3.8,0.8 -5.6,1.3 c-4.5,1.2 -8.9,2.7 -13.2,4.5 c1.3,5.6 1.9,11.3 1.9,17 C297.3238075256348,92.31428298950195 277.42380752563474,121.51428298950196 246.6238075256348,135.61428298950196 z" id="svg_69"/>
		</g>
		<g id="svg_70">
			<path class="st5" d="M295.72380752563475,61.01428298950195 c0,32.4 -20.8,60.4 -51,73.7 c-1.4,-5.8 -2.2,-11.8 -2.2,-17.9 c0,-0.8 0,-1.7000000000000002 0,-2.5 c13,-13.7 21.1,-31.4 21.8,-50.8 c8,-8.5 18,-15.4 29.2,-20.4 C295.02380752563477,48.81428298950195 295.72380752563475,54.81428298950195 295.72380752563475,61.01428298950195 z" id="svg_71"/>
			<path class="st1" d="M243.72380752563475,136.91428298950194 l-0.4,-1.8 c-1.5,-6 -2.2,-12.1 -2.2,-18.3 c0,-0.9 0,-1.7000000000000002 0,-2.5 l0,-0.6000000000000001 l0.4,-0.4 c13.2,-13.9 20.7,-31.6 21.3,-49.8 l0,-0.6000000000000001 l0.4,-0.4 C271.52380752563477,53.61428298950196 281.52380752563477,46.71428298950195 292.92380752563474,41.71428298950195 l1.7000000000000002,-0.7000000000000001 l0.4,1.8 c1.5,6 2.2,12.1 2.2,18.3 c0,31.8 -20.4,61.2 -51.9,75.1 L243.72380752563475,136.91428298950194 zM244.1238075256348,114.91428298950194 c0,0.6000000000000001 0,1.2 0,1.8 c0,5.3 0.6000000000000001,10.6 1.7000000000000002,15.7 c29.9,-13.8 48.4,-41.1 48.4,-71.5 c0,-5.3 -0.6000000000000001,-10.6 -1.7000000000000002,-15.7 c-10.1,4.7 -19.1,11 -26.6,18.8 C265.22380752563475,82.71428298950195 257.42380752563474,100.71428298950195 244.1238075256348,114.91428298950194 z" id="svg_72"/>
		</g>
		<g id="svg_73">
			<path class="st4" d="M423.8238075256348,116.81428298950195 c0,5 -0.5,9.8 -1.4,14.6 c-7.9,2.1 -16.3,3.2 -25,3.2 c-36.6,0 -68.2,-19.7 -82.5,-48 c2.9,-8 4.5,-16.6 4.5,-25.5 c0,-8.5 -1.4,-16.8 -4.1,-24.5 c3.4,-0.6000000000000001 6.9,-1.1 10.5,-1.3 c2.5,-0.2 5,-0.30000000000000004 7.5,-0.30000000000000004 c1,0 2,0 3,0.1 c33.5,1 62.4,18.4 77.1,43.6 c6.4,11 10.2,23.5 10.5,36.8 C423.8238075256348,115.81428298950195 423.8238075256348,116.31428298950195 423.8238075256348,116.81428298950195 z" id="svg_74"/>
			<path class="st1" d="M397.3238075256348,136.11428298950196 c-36,0 -68.9,-19.2 -83.9,-48.8 l-0.30000000000000004,-0.6000000000000001 l0.2,-0.6000000000000001 c2.9,-8 4.4,-16.4 4.4,-25 c0,-8.2 -1.4,-16.3 -4.1,-24 l-0.6000000000000001,-1.7000000000000002 l1.8,-0.30000000000000004 c3.5,-0.6000000000000001 7.1,-1.1 10.7,-1.4 c3.5,-0.30000000000000004 7.1,-0.4 10.6,-0.2 c32.9,1 63,18 78.4,44.4 c6.8,11.6 10.4,24.3 10.7,37.5 c0,0.5 0,1 0,1.5 c0,5 -0.5,10 -1.5,14.9 l-0.2,1 l-1,0.2 C414.52380752563477,135.01428298950196 406.02380752563477,136.11428298950196 397.3238075256348,136.11428298950196 zM316.6238075256348,86.41428298950194 c14.6,28.3 46.2,46.5 80.8,46.5 c8,0 16,-1 23.7,-2.9 c0.8,-4.4 1.2,-8.8 1.2,-13.3 c0,-0.5 0,-1 0,-1.4 c-0.30000000000000004,-12.7 -3.7,-24.9 -10.2,-36 c-14.9,-25.5 -44,-41.9 -75.8,-42.8 c-3.5,-0.1 -6.9,0 -10.3,0.2 c-2.9,0.2 -5.7,0.5 -8.5,1 c2.4,7.5 3.6,15.4 3.6,23.3 C320.92380752563474,69.71428298950195 319.52380752563477,78.31428298950195 316.6238075256348,86.41428298950194 z" id="svg_75"/>
		</g>
		<g id="svg_76">
			<path class="st5" d="M423.8238075256348,115.31428298950195 c-2.5,0.2 -5,0.30000000000000004 -7.5,0.30000000000000004 c-49.5,0 -89.7,-35.9 -90.6,-80.4 c2.5,-0.2 5,-0.30000000000000004 7.5,-0.30000000000000004 c1,0 2,0 3,0.1 c33.5,1 62.4,18.4 77.1,43.6 C419.72380752563475,89.51428298950196 423.52380752563477,102.01428298950196 423.8238075256348,115.31428298950195 z" id="svg_77"/>
			<path class="st1" d="M416.3238075256348,117.11428298950196 c-24.3,0 -47.2,-8.5 -64.6,-23.9 c-17.4,-15.4 -27.2,-36 -27.6,-58 l0,-1.5 l1.5,-0.1 c3.5,-0.30000000000000004 7.1,-0.4 10.6,-0.2 c32.9,1 63,18 78.4,44.4 c6.8,11.6 10.4,24.3 10.7,37.5 l0,1.5 l-1.5,0.1 C421.42380752563474,117.01428298950196 418.8238075256348,117.11428298950196 416.3238075256348,117.11428298950196 zM327.3238075256348,36.61428298950196 c1.7000000000000002,42.8 41.3,77.4 89,77.4 c2,0 3.9,-0.1 5.9,-0.2 c-0.5,-12.2 -3.9,-23.8 -10.2,-34.5 c-14.9,-25.5 -44,-41.9 -75.8,-42.8 C333.1238075256348,36.414282989501956 330.22380752563475,36.414282989501956 327.3238075256348,36.61428298950196 z" id="svg_78"/>
		</g>
		<g id="svg_79">
			<path class="st3" d="M413.3238075256348,78.51428298950196 c-33.5,-1 -62.4,-18.4 -77.1,-43.6 C369.6238075256348,35.914282989501956 398.52380752563477,53.31428298950195 413.3238075256348,78.51428298950196 z" id="svg_80"/>
			<path class="st1" d="M416.1238075256348,80.21428298950195 l-2.8,-0.1 c-32.9,-1 -63,-18 -78.4,-44.4 l-1.4,-2.4 l2.8,0.1 c32.9,1 63,18 78.4,44.4 L416.1238075256348,80.21428298950195 zM339.02380752563477,36.61428298950196 c14.8,23.3 41.7,38.5 71.4,40.2 C395.6238075256348,53.51428298950195 368.72380752563475,38.414282989501956 339.02380752563477,36.61428298950196 z" id="svg_81"/>
		</g>
		<path class="st1" d="M333.22380752563475,201.81428298950198 c-41.1,0 -77.1,-23.9 -89.4,-59.5 c-0.8,-2.3 -1.5,-4.6 -2,-6.9 c-1.5,-6.1 -2.3,-12.4 -2.3,-18.7 c0,-0.9 0,-1.7000000000000002 0,-2.6 c0.6000000000000001,-19.4 8.7,-38.2 22.6,-52.9 c8.4,-8.9 18.6,-16 30.2,-21.1 c4.8,-2.1 9.9,-3.9 15.1,-5.2 c2.3,-0.6000000000000001 4.8,-1.1 7.3,-1.6 c3.5,-0.7000000000000001 7.2,-1.1 10.8,-1.4 c3.5,-0.30000000000000004 7.2,-0.4 10.8,-0.2 c33.4,1 64,18.3 79.7,45.1 c6.9,11.7 10.6,25 10.9,38.3 c0,0.5 0,1 0,1.6 c0,5.1 -0.5,10.2 -1.5,15.2 C417.42380752563474,172.41428298950194 378.6238075256348,201.81428298950198 333.22380752563475,201.81428298950198 zM333.22380752563475,38.01428298950195 c-2.4,0 -4.9,0.1 -7.2,0.30000000000000004 c-3.4,0.2 -6.8,0.7000000000000001 -10.2,1.3 c-2.3,0.4 -4.6,0.9 -6.8,1.5 c-4.9,1.3 -9.6,2.9 -14.1,4.9 c-10.8,4.8 -20.3,11.4 -28.2,19.7 c-12.9,13.6 -20.3,30.9 -20.9,48.8 c0,0.8 0,1.6 0,2.4 c0,5.8 0.7000000000000001,11.6 2.1,17.2 c0.5,2.1 1.2,4.3 1.9,6.3 c11.5,33.1 45,55.3 83.5,55.3 c42.4,0 78.7,-27.3 86.1,-64.8 c0.9,-4.6 1.4,-9.3 1.4,-14 c0,-0.5 0,-0.9 0,-1.4 c-0.2,-12.5 -3.6,-24.4 -10,-35.3 c-14.6,-25 -43.2,-41.1 -74.5,-42 C335.1238075256348,38.01428298950195 334.1238075256348,38.01428298950195 333.22380752563475,38.01428298950195 z" id="svg_82"/>
		<path class="st1" d="M369.3238075256348,155.01428298950196 c-2,0 -3.6,-1.6 -3.6,-3.6 c0,-5.6 -4.6,-10.2 -10.2,-10.2 c-5.6,0 -10.2,4.6 -10.2,10.2 c0,2 -1.6,3.6 -3.6,3.6 c-2,0 -3.6,-1.6 -3.6,-3.6 c0,-9.6 7.9,-17.5 17.5,-17.5 s17.5,7.9 17.5,17.5 C372.92380752563474,153.31428298950195 371.3238075256348,155.01428298950196 369.3238075256348,155.01428298950196 z" id="svg_83"/>
		<path class="st1" d="M324.22380752563475,155.01428298950196 c-2,0 -3.6,-1.6 -3.6,-3.6 c0,-5.6 -4.6,-10.2 -10.2,-10.2 c-5.6,0 -10.2,4.6 -10.2,10.2 c0,2 -1.6,3.6 -3.6,3.6 s-3.6,-1.6 -3.6,-3.6 c0,-9.6 7.9,-17.5 17.5,-17.5 c9.6,0 17.5,7.9 17.5,17.5 C327.8238075256348,153.31428298950195 326.22380752563475,155.01428298950196 324.22380752563475,155.01428298950196 z" id="svg_84"/>
		<path class="st1" d="M332.92380752563474,182.51428298950196 c-8.2,0 -15.9,-4.4 -20,-11.6 c-1,-1.7000000000000002 -0.4,-4 1.3,-5 c1.7000000000000002,-1 4,-0.4 5,1.3 c2.8,4.9 8,7.9 13.7,7.9 s10.9,-3 13.7,-7.9 c1,-1.7000000000000002 3.2,-2.3 5,-1.3 c1.7000000000000002,1 2.3,3.2 1.3,5 C348.8238075256348,178.11428298950196 341.22380752563475,182.51428298950196 332.92380752563474,182.51428298950196 z" id="svg_85"/>
		<ellipse class="st5" cx="289.52380752563477" cy="162.31428909301758" rx="9.5" ry="4.900000095367432" id="svg_86"/>
		<ellipse class="st5" cx="375.6238136291504" cy="162.31428909301758" rx="9.5" ry="4.900000095367432" id="svg_87"/>
		<g id="svg_88">
			<path class="st3" d="M392.52380752563477,34.81428298950195 c0,3.2 -0.5,6.2 -1.3,9.1 c-0.6000000000000001,1.9 -2.9,2.8 -4.6,1.8 c-9.7,-5.8 -20.6,-10 -32.3,-12.4 c-4.8,-1 -9.8,-1.6 -14.9,-1.9 c-2,-0.1 -4.1,-0.2 -6.2,-0.2 c0,0 0,0 0,0 c-2,0 -3.6,-1.9 -3.1,-3.9 c3.3,-13.9 15.9,-24.2 30.8,-24.2 c13.2,0 24.5,8 29.2,19.5 c1.4,3.5 2.3,7.3 2.4,11.2 C392.52380752563477,34.21428298950195 392.52380752563477,34.51428298950195 392.52380752563477,34.81428298950195 z" id="svg_89"/>
			<path class="st1" d="M388.1238075256348,47.61428298950196 c-0.8,0 -1.7000000000000002,-0.2 -2.4,-0.7000000000000001 c-9.7,-5.8 -20.4,-9.9 -31.8,-12.2 c-4.9,-1 -9.8,-1.6 -14.7,-1.9 c-2,-0.1 -4,-0.2 -6.1,-0.2 c0,0 0,0 0,0 c-1.5,0 -2.9,-0.7000000000000001 -3.8,-1.8 c-0.9,-1.1 -1.2,-2.6 -0.9,-4 c3.6,-14.9 16.9,-25.4 32.3,-25.4 c13.5,0 25.5,8 30.7,20.4 c1.6,3.8 2.4,7.7 2.5,11.8 c0,0.30000000000000004 0,0.6000000000000001 0,1 c0,3.3 -0.5,6.5 -1.4,9.5 c-0.4,1.4 -1.4,2.5 -2.8,3 C389.3238075256348,47.51428298950195 388.72380752563475,47.61428298950196 388.1238075256348,47.61428298950196 zM333.1238075256348,29.61428298950196 c2.1,0 4.2,0.1 6.3,0.2 c5,0.30000000000000004 10.1,0.9 15.1,1.9 c11.7,2.3 22.7,6.6 32.8,12.6 c0.4,0.30000000000000004 0.9,0.30000000000000004 1.4,0.1 c0.30000000000000004,-0.1 0.7000000000000001,-0.4 0.9,-1 c0.8,-2.8 1.3,-5.7 1.3,-8.6 c0,-0.30000000000000004 0,-0.6000000000000001 0,-0.8 c-0.1,-3.7 -0.9,-7.3 -2.3,-10.7 C383.92380752563474,12.01428298950195 373.02380752563477,4.714282989501953 360.8238075256348,4.714282989501953 c-14,0 -26,9.5 -29.2,23 c-0.2,0.6000000000000001 0.1,1.1 0.30000000000000004,1.3 C332.22380752563475,29.414282989501956 332.6238075256348,29.61428298950196 333.1238075256348,29.61428298950196 C333.1238075256348,29.61428298950196 333.1238075256348,29.61428298950196 333.1238075256348,29.61428298950196 z" id="svg_90"/>
		</g>
		<g id="svg_91">
			<path class="st5" d="M392.52380752563477,34.81428298950195 c0,4.6 -1,8.9 -2.7,12.8 c-10.5,-6.8 -22.5,-11.8 -35.5,-14.4 c-4.8,-1 -9.8,-1.6 -14.9,-1.9 c5.1,-10.6 16,-17.9 28.5,-17.9 c8.7,0 16.5,3.5 22.2,9.1 c1.4,3.5 2.3,7.3 2.4,11.2 C392.52380752563477,34.21428298950195 392.52380752563477,34.51428298950195 392.52380752563477,34.81428298950195 z" id="svg_92"/>
			<path class="st1" d="M390.42380752563474,49.914282989501956 l-1.5,-1 c-10.6,-6.9 -22.3,-11.6 -35,-14.2 c-4.9,-1 -9.8,-1.6 -14.7,-1.9 l-2.4,-0.1 l1,-2.1 c5.6,-11.6 17.1,-18.7 29.9,-18.7 c8.8,0 17.1,3.4 23.3,9.5 l0.2,0.2 l0.1,0.30000000000000004 c1.6,3.8 2.4,7.7 2.5,11.8 c0,0.30000000000000004 0,0.6000000000000001 0,1 c0,4.7 -1,9.2 -2.9,13.5 L390.42380752563474,49.914282989501956 zM341.8238075256348,30.01428298950195 c4.2,0.30000000000000004 8.5,0.9 12.7,1.8 c12.4,2.5 24,7.1 34.5,13.6 c1.3,-3.3 1.9,-6.9 1.9,-10.5 c0,-0.30000000000000004 0,-0.6000000000000001 0,-0.8 c-0.1,-3.6 -0.8,-7.1 -2.2,-10.5 c-5.6,-5.4 -13,-8.4 -20.9,-8.4 C357.02380752563477,15.114282989501959 347.22380752563475,20.714282989501953 341.8238075256348,30.01428298950195 z" id="svg_93"/>
		</g>
		<g id="svg_94">
			<path class="st4" d="M392.52380752563477,34.81428298950195 c0,4.6 -1,8.9 -2.7,12.8 c-10.5,-6.8 -22.5,-11.8 -35.5,-14.4 c5.2,-3.8 11.7,-6.1 18.7,-6.1 c7.3,0 14.1,2.5 19.5,6.7 C392.52380752563477,34.21428298950195 392.52380752563477,34.51428298950195 392.52380752563477,34.81428298950195 z" id="svg_95"/>
			<path class="st1" d="M390.42380752563474,49.914282989501956 l-1.5,-1 c-10.6,-6.9 -22.3,-11.6 -35,-14.2 l-3.5,-0.7000000000000001 l2.9,-2.1 c5.7,-4.2 12.5,-6.4 19.6,-6.4 c7.5,0 14.6,2.4 20.5,7.1 l0.5,0.4 l0,0.7000000000000001 c0,0.30000000000000004 0,0.7000000000000001 0,1 c0,4.7 -1,9.2 -2.9,13.5 L390.42380752563474,49.914282989501956 zM358.22380752563475,32.51428298950195 c11,2.6 21.3,6.9 30.8,12.8 c1.3,-3.3 1.9,-6.9 1.9,-10.5 c0,-0.1 0,-0.1 0,-0.2 C385.72380752563475,30.714282989501953 379.52380752563477,28.714282989501953 372.92380752563474,28.714282989501953 C367.72380752563475,28.714282989501953 362.72380752563475,30.01428298950195 358.22380752563475,32.51428298950195 z" id="svg_96"/>
		</g>
	</g>
</g></g></svg>