<svg xmlns="http://www.w3.org/2000/svg" xmlns:xlink="http://www.w3.org/1999/xlink" version="1.1" style="" xml:space="preserve" width="477.5" height="477.5"><rect id="backgroundrect" width="100%" height="100%" x="0" y="0" fill="none" stroke="none"/>


<g class="currentLayer" style=""><title>Layer 1</title><g id="svg_1" class="" fill-opacity="1" fill="#000000">
	<g id="svg_2" fill="#000000" fill-opacity="1">
		<path d="M400.16,77.38c-43.13-43.13-100.41-66.94-161.42-66.94S120.44,34.15,77.31,77.28c-83.2,83.2-89.22,216.12-15.11,306.2    c-10.23,20.94-22.38,34.9-35.96,41.6c-8.32,4.11-13.01,13.1-11.67,22.28c1.43,9.28,8.51,16.45,17.79,17.88    c5.07,0.77,10.52,1.24,16.16,1.24l0,0c28.02,0,57.47-9.66,82.05-26.58c33.09,17.79,70.29,27.16,108.16,27.16    c61.01,0,118.29-23.72,161.42-66.84S467,299.71,467,238.8S443.28,120.5,400.16,77.38z M381.89,381.95    c-38.25,38.25-89.13,59.29-143.16,59.29c-36.15,0-71.63-9.66-102.51-27.83c-2.01-1.15-4.3-1.82-6.5-1.82    c-2.77,0-5.64,0.96-7.94,2.68c-29.26,22.66-58.72,26.01-71.63,26.3c15.4-11.48,28.31-29.26,39.11-54.03    c2.01-4.59,1.15-9.95-2.2-13.77C16.3,292.83,20.03,171,95.58,95.45c38.25-38.25,89.13-59.29,143.16-59.29    c54.13,0,104.9,21.04,143.16,59.29C460.88,174.54,460.88,303.06,381.89,381.95z" id="svg_3" fill="#000000" fill-opacity="1"/>
		<path d="M296.68,134.18c-20.66,0-40.07,8.03-54.7,22.66l-3.25,3.25l-3.25-3.25c-14.63-14.63-34.04-22.66-54.7-22.66    c-20.56,0-39.97,8.03-54.51,22.57c-14.63,14.63-22.66,34.04-22.57,54.6c0,20.66,8.13,39.97,22.66,54.6l103.18,103.18    c2.49,2.49,5.83,3.83,9.08,3.83c3.25,0,6.6-1.24,9.08-3.73l103.47-103.09c14.63-14.63,22.66-34.04,22.66-54.6    c0-20.66-8.03-40.07-22.57-54.7C336.66,142.21,317.25,134.18,296.68,134.18z M332.93,247.88l-94.29,93.91l-94.1-94.1    c-9.75-9.75-15.11-22.66-15.11-36.43c0-13.77,5.36-26.68,15.01-36.34c9.66-9.66,22.57-15.01,36.34-15.01    c13.77,0,26.68,5.36,36.43,15.11l12.43,12.43c5.07,5.07,13.2,5.07,18.27,0l12.34-12.34C270,165.35,282.91,160,296.68,160    c13.67,0,26.58,5.36,36.34,15.11c9.75,9.75,15.11,22.66,15.01,36.34C348.04,225.22,342.68,238.13,332.93,247.88z" id="svg_4" fill="#000000" fill-opacity="1"/>
	</g>
</g><g id="svg_5" class="" fill-opacity="1" fill="#000000">
	<circle cx="193.1300048828125" cy="238.75" r="15.210000038146973" id="svg_6" fill="#000000" fill-opacity="1"/>
	<circle cx="238.75" cy="238.75" r="15.210000038146973" id="svg_7" fill="#000000" fill-opacity="1"/>
	<circle cx="284.3699951171875" cy="238.75" r="15.210000038146973" id="svg_8" fill="#000000" fill-opacity="1"/>
</g></g></svg>