<svg xmlns="http://www.w3.org/2000/svg" xmlns:xlink="http://www.w3.org/1999/xlink" version="1.1" style="enable-background:new 0 0 291 347;" xml:space="preserve" width="222.42857609962903" height="267.00000544956686"><rect id="backgroundrect" width="100%" height="100%" x="0" y="0" fill="none" stroke="none" class="" style=""/>
<style type="text/css">
	.st0{fill:#FCDCBA;}
	.st1{fill:#391540;}
	.st2{fill:#DA9774;}
	.st3{fill:#F2F2F2;}
	.st4{fill:#D97E85;}
	.st5{fill:#F2B6BB;}
	.st6{fill:#FFFFFF;}
	.st7{fill:#9BBF95;}
</style>

<g class="currentLayer" style=""><title>Layer 1</title><g id="svg_1" class="">
	<g id="svg_2">
		<path class="st0" d="M47.651430206298826,228.76285850524903 c-6.17,-0.21000000000000002 -11.11,-5.28 -11.11,-11.51 c0,-3.88 1.9300000000000002,-7.32 4.87,-9.41 C42.18143020629883,215.24285850524902 44.341430206298824,222.29285850524903 47.651430206298826,228.76285850524903 z" id="svg_3"/>
		<path class="st1" d="M41.401430206298826,207.842858505249 c0.78,7.41 2.94,14.45 6.24,20.92 c-6.17,-0.21000000000000002 -11.11,-5.28 -11.11,-11.51 C36.53143020629882,213.36285850524902 38.46143020629883,209.93285850524902 41.401430206298826,207.842858505249 M45.18143020629883,199.49285850524902 l-6.45,4.57 c-4.27,3.03 -6.82,7.96 -6.82,13.18 c0,8.75 6.84,15.83 15.58,16.13 l7.85,0.26 l-3.5700000000000003,-6.99 c-3.12,-6.1 -5.06,-12.59 -5.76,-19.3 L45.18143020629883,199.49285850524902 L45.18143020629883,199.49285850524902 z" id="svg_4"/>
	</g>
	<path class="st2" d="M41.88143020629883,211.312858505249 c-1.05,1.73 -1.6500000000000001,3.77 -1.6500000000000001,5.94 c0,4.74 2.8600000000000003,8.8 6.94,10.57 " id="svg_5"/>
	<g id="svg_6">
		<path class="st0" d="M170.16143020629883,228.76285850524903 c6.17,-0.21000000000000002 11.11,-5.28 11.11,-11.51 c0,-3.88 -1.9300000000000002,-7.32 -4.87,-9.41 C175.62143020629884,215.24285850524902 173.46143020629881,222.29285850524903 170.16143020629883,228.76285850524903 z" id="svg_7"/>
		<path class="st1" d="M176.40143020629884,207.842858505249 c2.94,2.09 4.87,5.53 4.87,9.41 c0,6.23 -4.94,11.3 -11.11,11.51 C173.46143020629881,222.29285850524903 175.62143020629884,215.24285850524902 176.40143020629884,207.842858505249 M172.63143020629883,199.49285850524902 l-0.8300000000000001,7.86 c-0.7000000000000001,6.71 -2.64,13.2 -5.76,19.3 l-3.5700000000000003,6.99 l7.85,-0.26 c8.74,-0.29000000000000004 15.58,-7.38 15.58,-16.13 c0,-5.22 -2.55,-10.15 -6.82,-13.18 L172.63143020629883,199.49285850524902 L172.63143020629883,199.49285850524902 z" id="svg_8"/>
	</g>
	<path class="st2" d="M170.63143020629883,227.82285850524903 c4.08,-1.7600000000000002 6.94,-5.83 6.94,-10.57 c0,-2.17 -0.6000000000000001,-4.21 -1.6500000000000001,-5.94 " id="svg_9"/>
	<path class="st0" d="M41.77143020629883,201.60285850524903 c0,3.68 0.36000000000000004,7.28 1.06,10.77 c5.63,28.31 33.02,49.8 65.95,49.8 c30.01,0 55.41,-17.84 63.95,-42.43 c0.55,-1.6 1.04,-3.24 1.45,-4.890000000000001 c1.06,-4.26 1.61,-8.7 1.61,-13.25 c0,-0.6200000000000001 -0.010000000000000002,-1.23 -0.030000000000000006,-1.83 c-0.47000000000000003,-14.34 -6.45,-27.42 -16.1,-37.58 c-5.95,-6.27 -13.29,-11.42 -21.59,-15.08 c-3.45,-1.52 -7.06,-2.77 -10.81,-3.75 c-1.71,-0.45 -3.45,-0.8200000000000001 -5.21,-1.1400000000000001 c-2.54,-0.47000000000000003 -5.13,-0.8 -7.75,-0.99 c-1.82,-0.14 -3.66,-0.21000000000000002 -5.52,-0.21000000000000002 c-0.7400000000000001,0 -1.48,0.010000000000000002 -2.21,0.04000000000000001 c-24.76,0.7200000000000001 -46.14,13.6 -57.05,32.24 c-4.76,8.14 -7.54,17.38 -7.73,27.18 C41.77143020629883,200.86285850524902 41.77143020629883,201.23285850524903 41.77143020629883,201.60285850524903 z" id="svg_10"/>
	<path class="st2" d="M41.77143020629883,201.60285850524903 c0,3.68 0.36000000000000004,7.28 1.06,10.77 c5.63,28.31 33.02,49.8 65.95,49.8 c30.01,0 55.41,-17.84 63.95,-42.43 c0.55,-1.6 1.04,-3.24 1.45,-4.890000000000001 c1.06,-4.26 1.61,-8.7 1.61,-13.25 c0,-0.6200000000000001 -0.010000000000000002,-1.23 -0.030000000000000006,-1.83 c-0.020000000000000004,-0.8200000000000001 -0.07,-1.6300000000000001 -0.14,-2.44 c-0.23,3.06 -0.7200000000000001,6.07 -1.44,8.98 c-0.41000000000000003,1.6600000000000001 -0.8900000000000001,3.29 -1.45,4.890000000000001 c-8.53,24.59 -33.93,42.43 -63.95,42.43 c-32.93,0 -60.32,-21.49 -65.95,-49.8 c-0.42000000000000004,-2.12 -0.7200000000000001,-4.29 -0.8900000000000001,-6.47 c-0.08000000000000002,1.03 -0.13,2.08 -0.15000000000000002,3.14 C41.77143020629883,200.86285850524902 41.77143020629883,201.23285850524903 41.77143020629883,201.60285850524903 z" id="svg_11"/>
	<path class="st1" d="M40.56143020629882,212.83285850524902 c-0.7300000000000001,-3.68 -1.1,-7.46 -1.1,-11.22 c0,-0.4 0,-0.8 0.020000000000000004,-1.1600000000000001 c0.19000000000000003,-9.85 2.98,-19.64 8.05,-28.31 c11.63,-19.87 34.23,-32.66 58.95,-33.38 c2.66,-0.11000000000000001 5.39,-0.030000000000000006 7.99,0.17 c2.6900000000000004,0.19000000000000003 5.38,0.53 8,1.02 c1.84,0.33000000000000007 3.6500000000000004,0.7300000000000001 5.38,1.18 c3.84,0.99 7.59,2.3 11.16,3.87 c8.57,3.77 16.09,9.02 22.33,15.6 c10.32,10.86 16.26,24.75 16.73,39.09 c0.020000000000000004,0.6400000000000001 0.030000000000000006,1.28 0.030000000000000006,1.92 c0,4.66 -0.56,9.31 -1.6800000000000002,13.8 c-0.42000000000000004,1.7000000000000002 -0.93,3.42 -1.51,5.1 c-9.13,26.31 -35.7,43.98 -66.13,43.98 C75.20143020629882,264.49285850524905 46.511430206298826,242.76285850524903 40.56143020629882,212.83285850524902 zM106.63143020629883,143.38285850524903 c-23.17,0.6800000000000002 -44.29,12.59 -55.12,31.1 c-4.74,8.1 -7.23,16.87 -7.42,26.11 c-0.010000000000000002,0.3400000000000001 -0.010000000000000002,0.6800000000000002 -0.010000000000000002,1.01 c0,3.46 0.3400000000000001,6.94 1.01,10.32 c5.52,27.78 32.3,47.93 63.68,47.93 c28.46,0 53.28,-16.43 61.76,-40.87 c0.54,-1.55 1,-3.13 1.3900000000000001,-4.69 c1.02,-4.13 1.54,-8.4 1.54,-12.69 c0,-0.5900000000000001 -0.010000000000000002,-1.17 -0.030000000000000006,-1.7600000000000002 c-0.43000000000000005,-13.21 -5.93,-26.02 -15.47,-36.06 c-5.82,-6.13 -12.83,-11.03 -20.84,-14.55 c-3.34,-1.47 -6.86,-2.6900000000000004 -10.46,-3.62 c-1.62,-0.42000000000000004 -3.31,-0.79 -5.05,-1.1 c-2.46,-0.46 -4.98,-0.78 -7.51,-0.9500000000000001 c-1.75,-0.13 -3.55,-0.2 -5.34,-0.2 C108.07143020629883,143.342858505249 107.36143020629882,143.35285850524903 106.63143020629883,143.38285850524903 z" id="svg_12"/>
	<path class="st1" d="M82.08143020629883,229.86285850524902 c1.49,0 2.7,-1.21 2.7,-2.7 c0,-4.16 3.39,-7.55 7.55,-7.55 c4.16,0 7.55,3.39 7.55,7.55 c0,1.49 1.21,2.7 2.7,2.7 s2.7,-1.21 2.7,-2.7 c0,-7.14 -5.8100000000000005,-12.94 -12.94,-12.94 c-7.14,0 -12.94,5.8100000000000005 -12.94,12.94 C79.38143020629883,228.65285850524901 80.59143020629882,229.86285850524902 82.08143020629883,229.86285850524902 z" id="svg_13"/>
	<path class="st1" d="M115.43143020629884,229.86285850524902 c1.49,0 2.7,-1.21 2.7,-2.7 c0,-4.16 3.39,-7.55 7.55,-7.55 c4.16,0 7.55,3.39 7.55,7.55 c0,1.49 1.21,2.7 2.7,2.7 c1.49,0 2.7,-1.21 2.7,-2.7 c0,-7.14 -5.8100000000000005,-12.94 -12.94,-12.94 c-7.14,0 -12.94,5.8100000000000005 -12.94,12.94 C112.73143020629882,228.65285850524901 113.94143020629883,229.86285850524902 115.43143020629884,229.86285850524902 z" id="svg_14"/>
	<path class="st1" d="M108.95143020629882,250.25285850524904 c6.1,0 11.77,-3.27 14.8,-8.55 c0.7400000000000001,-1.29 0.30000000000000004,-2.94 -0.99,-3.68 c-1.29,-0.7400000000000001 -2.94,-0.30000000000000004 -3.68,0.99 c-2.07,3.6 -5.95,5.84 -10.12,5.84 s-8.05,-2.24 -10.12,-5.84 c-0.7400000000000001,-1.29 -2.39,-1.7400000000000002 -3.68,-0.99 c-1.29,0.7400000000000001 -1.7400000000000002,2.39 -0.99,3.68 C97.18143020629884,246.972858505249 102.85143020629883,250.25285850524904 108.95143020629882,250.25285850524904 z" id="svg_15"/>
	<path class="st1" d="M165.39143020629882,50.55285850524902 c-0.6000000000000001,0 -1.19,-0.17 -1.7000000000000002,-0.51 c-10.39,-6.76 -21.96,-11.45 -34.41,-13.94 c-4.79,-0.9600000000000001 -9.66,-1.57 -14.47,-1.83 c-3.31,-0.2 -6.8,-0.23 -9.69,-0.11000000000000001 c-0.92,0.030000000000000006 -1.79,-0.33000000000000007 -2.41,-0.99 c-0.6200000000000001,-0.6700000000000002 -0.92,-1.57 -0.8200000000000001,-2.48 c1.9500000000000002,-17.62 16.81,-30.9 34.56,-30.9 c14.09,0 26.7,8.4 32.12,21.4 c1.6400000000000001,3.94 2.5300000000000002,8.08 2.6500000000000004,12.31 c0.020000000000000004,0.36000000000000004 0.020000000000000004,0.7200000000000001 0.020000000000000004,1.08 c0,4.92 -1.01,9.67 -2.99,14.12 c-0.37000000000000005,0.8400000000000001 -1.09,1.46 -1.97,1.7200000000000002 C165.99143020629882,50.51285850524903 165.69143020629883,50.55285850524902 165.39143020629882,50.55285850524902 zM108.82143020629883,27.842858505249026 c2.13,0 4.27,0.07 6.35,0.19000000000000003 c5.08,0.27 10.25,0.92 15.34,1.94 c11.92,2.39 23.11,6.68 33.29,12.77 c0.79,-2.63 1.18,-5.36 1.18,-8.16 c0,-0.24000000000000002 0,-0.49000000000000005 -0.010000000000000002,-0.7300000000000001 c0,-0.04000000000000001 -0.010000000000000002,-0.08000000000000002 -0.010000000000000002,-0.13 c-0.09000000000000002,-3.48 -0.8200000000000001,-6.890000000000001 -2.17,-10.13 c-4.45,-10.66 -14.79,-17.55 -26.35,-17.55 c-13.34,0 -24.69,9.15 -27.73,21.79 C108.75143020629883,27.842858505249026 108.79143020629883,27.842858505249026 108.82143020629883,27.842858505249026 z" id="svg_16"/>
	<g id="svg_17">
		<path class="st0" d="M191.48143020629882,153.282858505249 c8.35,-0.28 15.03,-7.14 15.03,-15.56 c0,-5.25 -2.6100000000000003,-9.9 -6.59,-12.73 C198.87143020629884,135.01285850524903 195.95143020629882,144.54285850524903 191.48143020629882,153.282858505249 z" id="svg_18"/>
		<path class="st1" d="M199.92143020629882,125.00285850524904 c3.98,2.8200000000000003 6.59,7.47 6.59,12.73 c0,8.42 -6.68,15.28 -15.03,15.56 C195.95143020629882,144.54285850524903 198.87143020629884,135.01285850524903 199.92143020629882,125.00285850524904 M194.82143020629883,113.71285850524902 l-1.12,10.63 c-0.9500000000000001,9.07 -3.5700000000000003,17.85 -7.79,26.09 l-4.83,9.45 l10.61,-0.36000000000000004 c11.82,-0.4 21.07,-9.98 21.07,-21.81 c0,-7.07 -3.45,-13.73 -9.22,-17.83 L194.82143020629883,113.71285850524902 L194.82143020629883,113.71285850524902 z" id="svg_19"/>
	</g>
	<path class="st2" d="M192.12143020629884,152.01285850524903 c5.52,-2.39 9.39,-7.88 9.39,-14.29 c0,-2.94 -0.81,-5.69 -2.23,-8.04 " id="svg_20"/>
	<g id="svg_21">
		<path class="st0" d="M25.821430206298828,153.282858505249 c-8.35,-0.28 -15.03,-7.14 -15.03,-15.56 c0,-5.25 2.6100000000000003,-9.9 6.59,-12.73 C18.431430206298828,135.01285850524903 21.35143020629883,144.54285850524903 25.821430206298828,153.282858505249 z" id="svg_22"/>
		<path class="st1" d="M17.38143020629883,125.00285850524904 c1.05,10.02 3.9699999999999998,19.54 8.44,28.29 c-8.35,-0.28 -15.03,-7.14 -15.03,-15.56 C10.791430206298827,132.47285850524904 13.391430206298828,127.82285850524903 17.38143020629883,125.00285850524904 M22.481430206298825,113.71285850524902 l-8.72,6.19 c-5.77,4.1 -9.22,10.76 -9.22,17.83 c0,11.83 9.26,21.41 21.07,21.81 l10.61,0.36000000000000004 l-4.83,-9.45 c-4.22,-8.25 -6.84,-17.02 -7.79,-26.09 L22.481430206298825,113.71285850524902 L22.481430206298825,113.71285850524902 z" id="svg_23"/>
	</g>
	<path class="st2" d="M18.02143020629883,129.69285850524903 c-1.42,2.34 -2.23,5.1 -2.23,8.04 c0,6.41 3.87,11.9 9.39,14.29 " id="svg_24"/>
	<path class="st0" d="M199.43143020629884,116.56285850524901 c0,4.97 -0.49000000000000005,9.84 -1.4300000000000002,14.57 c-7.61,38.28 -44.65,67.34 -89.18,67.34 c-40.58,0 -74.94,-24.13 -86.47,-57.37 c-0.7500000000000001,-2.17 -1.4100000000000001,-4.38 -1.96,-6.62 c-1.4300000000000002,-5.76 -2.18,-11.77 -2.18,-17.92 c0,-0.8300000000000001 0.010000000000000002,-1.6600000000000001 0.04000000000000001,-2.48 c0.6400000000000001,-19.39 8.72,-37.08 21.77,-50.82 c8.05,-8.47 17.97,-15.45 29.19,-20.39 c4.66,-2.05 9.55,-3.75 14.61,-5.07 c2.31,-0.6000000000000001 4.66,-1.12 7.05,-1.54 c3.43,-0.6400000000000001 6.93,-1.08 10.48,-1.33 c2.46,-0.19000000000000003 4.95,-0.28 7.46,-0.28 c1,0 2,0.010000000000000002 2.99,0.05000000000000001 c33.49,0.98 62.39,18.38 77.14,43.6 c6.44,11.01 10.19,23.5 10.45,36.76 C199.43143020629884,115.56285850524901 199.43143020629884,116.06285850524901 199.43143020629884,116.56285850524901 z" id="svg_25"/>
	<path class="st2" d="M199.43143020629884,116.56285850524901 c0,4.97 -0.49000000000000005,9.84 -1.4300000000000002,14.57 c-7.61,38.28 -44.65,67.34 -89.18,67.34 c-40.58,0 -74.94,-24.13 -86.47,-57.37 c-0.7500000000000001,-2.17 -1.4100000000000001,-4.38 -1.96,-6.62 c-1.4300000000000002,-5.76 -2.18,-11.77 -2.18,-17.92 c0,-0.8300000000000001 0.010000000000000002,-1.6600000000000001 0.04000000000000001,-2.48 c0.030000000000000006,-1.1 0.09000000000000002,-2.21 0.19000000000000003,-3.3 c0.31000000000000005,4.14 0.97,8.2 1.9500000000000002,12.14 c0.55,2.24 1.21,4.45 1.96,6.62 c11.54,33.25 45.89,57.37 86.47,57.37 c44.53,0 81.57,-29.06 89.18,-67.34 c0.5700000000000001,-2.87 0.97,-5.79 1.2,-8.75 c0.11000000000000001,1.4 0.18000000000000002,2.81 0.21000000000000002,4.24 C199.43143020629884,115.56285850524901 199.43143020629884,116.06285850524901 199.43143020629884,116.56285850524901 z" id="svg_26"/>
	<g id="svg_27">
		<path class="st3" d="M20.39143020629883,134.48285850524903 c-1.4300000000000002,-5.76 -2.18,-11.77 -2.18,-17.92 c0,-0.8300000000000001 0.010000000000000002,-1.6600000000000001 0.04000000000000001,-2.48 c0.6400000000000001,-19.39 8.72,-37.08 21.77,-50.82 c8.05,-8.47 17.97,-15.45 29.19,-20.39 c1.4300000000000002,5.76 2.18,11.77 2.18,17.92 C71.39143020629882,93.19285850524902 50.58143020629883,121.20285850524903 20.39143020629883,134.48285850524903 z" id="svg_28"/>
		<path class="st1" d="M19.321430206298828,136.66285850524903 l-0.45,-1.8 c-1.48,-5.96 -2.22,-12.11 -2.22,-18.29 c0,-0.8500000000000001 0.010000000000000002,-1.7000000000000002 0.04000000000000001,-2.54 c0.6200000000000001,-19.01 8.51,-37.42 22.2,-51.84 c8.3,-8.74 18.29,-15.72 29.7,-20.74 l1.7000000000000002,-0.7500000000000001 l0.45,1.8 c1.48,5.96 2.22,12.11 2.22,18.29 c0,31.76 -20.39,61.24 -51.94,75.12 L19.321430206298828,136.66285850524903 zM68.13143020629883,45.092858505249026 C57.82143020629883,49.87285850524903 48.751430206298835,56.342858505249026 41.16143020629883,64.34285850524903 c-13.17,13.86 -20.75,31.54 -21.34,49.79 c-0.030000000000000006,0.81 -0.04000000000000001,1.62 -0.04000000000000001,2.43 c0,5.3 0.5700000000000001,10.57 1.7000000000000002,15.71 c29.88,-13.84 48.35,-41.07 48.35,-71.48 C69.83143020629883,55.50285850524902 69.26143020629883,50.22285850524902 68.13143020629883,45.092858505249026 z" id="svg_29"/>
	</g>
	<g id="svg_30">
		<path class="st4" d="M95.01143020629883,60.80285850524902 c0,8.91 -1.57,17.5 -4.5,25.53 c-10.05,27.72 -36.03,48.93 -68.16,54.77 c-0.7500000000000001,-2.17 -1.4100000000000001,-4.38 -1.96,-6.62 c30.19,-13.28 51.01,-41.29 51.01,-73.68 c0,-6.15 -0.7500000000000001,-12.15 -2.18,-17.92 c4.66,-2.05 9.55,-3.75 14.61,-5.07 c2.31,-0.6000000000000001 4.66,-1.12 7.05,-1.54 C93.56143020629882,44.02285850524902 95.01143020629883,52.25285850524902 95.01143020629883,60.80285850524902 z" id="svg_31"/>
		<path class="st1" d="M21.31143020629883,142.88285850524903 l-0.44000000000000006,-1.27 c-0.77,-2.23 -1.44,-4.5 -2,-6.76 l-0.31000000000000005,-1.28 l1.2,-0.53 c30.89,-13.58 50.07,-41.27 50.07,-72.25 c0,-5.93 -0.7200000000000001,-11.83 -2.13,-17.54 l-0.32000000000000006,-1.28 l1.2,-0.53 c4.74,-2.09 9.74,-3.8200000000000003 14.85,-5.15 c2.31,-0.6000000000000001 4.72,-1.13 7.16,-1.57 l1.31,-0.24000000000000002 l0.44000000000000006,1.26 c2.8,8.07 4.22,16.5 4.22,25.04 c0,8.93 -1.55,17.7 -4.6,26.07 c-10.33,28.51 -36.9,49.88 -69.35,55.77 L21.31143020629883,142.88285850524903 zM22.231430206298825,135.372858505249 c0.35000000000000003,1.32 0.7400000000000001,2.63 1.17,3.94 c30.75,-6.03 55.83,-26.43 65.64,-53.51 c2.93,-8.03 4.41,-16.44 4.41,-25 c0,-7.74 -1.22,-15.38 -3.62,-22.74 c-1.9100000000000001,0.37000000000000005 -3.79,0.8 -5.6,1.27 c-4.52,1.17 -8.95,2.67 -13.18,4.47 c1.27,5.55 1.92,11.27 1.92,17 C72.96143020629883,92.14285850524902 53.091430206298824,121.28285850524901 22.231430206298825,135.372858505249 z" id="svg_32"/>
	</g>
	<g id="svg_33">
		<path class="st5" d="M71.39143020629882,60.80285850524902 c0,32.39 -20.81,60.41 -51.01,73.68 c-1.4300000000000002,-5.76 -2.18,-11.77 -2.18,-17.92 c0,-0.8300000000000001 0.010000000000000002,-1.6600000000000001 0.04000000000000001,-2.48 c13.05,-13.75 21.14,-31.43 21.77,-50.82 c8.05,-8.47 17.97,-15.45 29.19,-20.39 C70.64143020629882,48.64285850524902 71.39143020629882,54.65285850524903 71.39143020629882,60.80285850524902 z" id="svg_34"/>
		<path class="st1" d="M19.321430206298828,136.66285850524903 l-0.45,-1.8 c-1.48,-5.96 -2.22,-12.11 -2.22,-18.29 c0,-0.8500000000000001 0.010000000000000002,-1.7000000000000002 0.04000000000000001,-2.54 l0.020000000000000004,-0.5900000000000001 l0.41000000000000003,-0.43000000000000005 C30.28143020629883,99.14285850524902 37.861430206298834,81.45285850524903 38.46143020629883,63.21285850524902 l0.020000000000000004,-0.5900000000000001 l0.41000000000000003,-0.43000000000000005 c8.3,-8.74 18.29,-15.72 29.7,-20.74 l1.7000000000000002,-0.7500000000000001 l0.45,1.8 c1.48,5.96 2.22,12.11 2.22,18.29 c0,31.76 -20.39,61.24 -51.94,75.12 L19.321430206298828,136.66285850524903 zM19.791430206298827,114.73285850524903 c-0.020000000000000004,0.6100000000000001 -0.020000000000000004,1.22 -0.020000000000000004,1.84 c0,5.3 0.5700000000000001,10.57 1.7000000000000002,15.71 c29.88,-13.84 48.35,-41.07 48.35,-71.48 c0,-5.3 -0.5700000000000001,-10.57 -1.7000000000000002,-15.71 c-10.12,4.7 -19.05,11.02 -26.56,18.83 C40.80143020629883,82.52285850524902 33.091430206298824,100.52285850524902 19.791430206298827,114.73285850524903 z" id="svg_35"/>
	</g>
	<g id="svg_36">
		<path class="st4" d="M199.43143020629884,116.56285850524901 c0,4.97 -0.49000000000000005,9.84 -1.4300000000000002,14.57 c-7.94,2.05 -16.33,3.16 -25.01,3.16 c-36.64,0 -68.21,-19.67 -82.48,-47.96 c2.93,-8.04 4.5,-16.62 4.5,-25.53 c0,-8.55 -1.45,-16.78 -4.14,-24.52 c3.43,-0.6400000000000001 6.93,-1.08 10.48,-1.33 c2.46,-0.19000000000000003 4.95,-0.28 7.46,-0.28 c1,0 2,0.010000000000000002 2.99,0.05000000000000001 c33.49,0.98 62.39,18.38 77.14,43.6 c6.44,11.01 10.19,23.5 10.45,36.76 C199.43143020629884,115.56285850524901 199.43143020629884,116.06285850524901 199.43143020629884,116.56285850524901 z" id="svg_37"/>
		<path class="st1" d="M172.99143020629882,135.86285850524902 c-36,0 -68.92,-19.16 -83.88,-48.82 l-0.30000000000000004,-0.6000000000000001 l0.23,-0.6400000000000001 c2.92,-8.02 4.41,-16.44 4.41,-25 c0,-8.19 -1.36,-16.27 -4.05,-24.01 l-0.6000000000000001,-1.7200000000000002 l1.79,-0.33000000000000007 c3.5,-0.6500000000000001 7.09,-1.1 10.66,-1.36 c3.47,-0.27 7.1,-0.38000000000000006 10.63,-0.23 c32.91,0.9600000000000001 62.97,17.96 78.43,44.37 c6.82,11.65 10.41,24.27 10.67,37.52 c0.020000000000000004,0.49000000000000005 0.020000000000000004,1.01 0.020000000000000004,1.53 c0,4.99 -0.49000000000000005,10 -1.46,14.870000000000001 l-0.19000000000000003,0.9600000000000001 l-0.9500000000000001,0.25 C190.16143020629883,134.782858505249 181.61143020629882,135.86285850524902 172.99143020629882,135.86285850524902 zM92.21143020629883,86.22285850524902 c14.57,28.27 46.19,46.51 80.78,46.51 c8.03,0 15.98,-0.9600000000000001 23.66,-2.87 c0.81,-4.37 1.21,-8.84 1.21,-13.3 c0,-0.48000000000000004 0,-0.9600000000000001 -0.020000000000000004,-1.44 c-0.25,-12.74 -3.7,-24.85 -10.24,-36.03 c-14.92,-25.48 -43.98,-41.89 -75.84,-42.82 c-3.48,-0.15000000000000002 -6.93,-0.030000000000000006 -10.29,0.23 c-2.8600000000000003,0.2 -5.73,0.54 -8.55,1 c2.42,7.54 3.64,15.37 3.64,23.3 C96.57143020629883,69.50285850524902 95.11143020629883,78.05285850524902 92.21143020629883,86.22285850524902 z" id="svg_38"/>
	</g>
	<g id="svg_39">
		<path class="st5" d="M199.41143020629883,115.06285850524901 c-2.46,0.19000000000000003 -4.96,0.28 -7.47,0.28 c-49.48,0 -89.7,-35.85 -90.58,-80.41 c2.46,-0.19000000000000003 4.95,-0.28 7.46,-0.28 c1,0 2,0.010000000000000002 2.99,0.05000000000000001 c33.49,0.98 62.39,18.38 77.14,43.6 C195.40143020629884,89.31285850524903 199.15143020629884,101.81285850524903 199.41143020629883,115.06285850524901 z" id="svg_40"/>
		<path class="st1" d="M191.94143020629883,116.91285850524903 c-24.3,0 -47.22,-8.48 -64.56,-23.89 c-17.36,-15.43 -27.15,-36.04 -27.59,-58.05 l-0.030000000000000006,-1.48 l1.47,-0.11000000000000001 c3.48,-0.27 7.11,-0.38000000000000006 10.64,-0.23 c32.91,0.9600000000000001 62.97,17.96 78.43,44.37 c6.82,11.65 10.41,24.27 10.67,37.52 l0.030000000000000006,1.48 l-1.47,0.11000000000000001 C197.04143020629883,116.81285850524901 194.49143020629882,116.91285850524903 191.94143020629883,116.91285850524903 zM102.97143020629883,36.39285850524902 c1.7200000000000002,42.81 41.29,77.39 88.97,77.39 c1.97,0 3.93,-0.06000000000000001 5.87,-0.18000000000000002 c-0.48000000000000004,-12.16 -3.91,-23.77 -10.2,-34.51 c-14.92,-25.48 -43.98,-41.89 -75.84,-42.82 C108.80143020629882,36.15285850524902 105.86143020629882,36.22285850524902 102.97143020629883,36.39285850524902 z" id="svg_41"/>
	</g>
	<g id="svg_42">
		<path class="st3" d="M188.96143020629881,78.30285850524902 c-33.49,-0.97 -62.39,-18.38 -77.14,-43.6 C145.30143020629882,35.69285850524902 174.20143020629882,53.092858505249026 188.96143020629881,78.30285850524902 z" id="svg_43"/>
		<path class="st1" d="M191.73143020629882,79.95285850524903 l-2.8200000000000003,-0.08000000000000002 c-32.93,-0.9500000000000001 -62.99,-17.95 -78.45,-44.37 l-1.4300000000000002,-2.44 l2.8200000000000003,0.08000000000000002 c32.93,0.9600000000000001 62.99,17.96 78.45,44.37 L191.73143020629882,79.95285850524903 zM114.68143020629884,36.40285850524902 c14.84,23.31 41.75,38.47 71.42,40.21 C171.26143020629883,53.312858505249025 144.35143020629883,38.15285850524902 114.68143020629884,36.40285850524902 z" id="svg_44"/>
	</g>
	<path class="st1" d="M108.82143020629883,201.60285850524903 c-41.14,0 -77.08,-23.9 -89.43,-59.48 c-0.79,-2.27 -1.47,-4.59 -2.04,-6.890000000000001 c-1.51,-6.08 -2.27,-12.36 -2.27,-18.66 c0,-0.8700000000000001 0.010000000000000002,-1.7400000000000002 0.04000000000000001,-2.6 c0.6400000000000001,-19.39 8.67,-38.16 22.63,-52.85 c8.45,-8.89 18.61,-15.99 30.2,-21.09 c4.82,-2.12 9.9,-3.88 15.09,-5.23 c2.34,-0.6100000000000001 4.8,-1.15 7.28,-1.59 c3.54,-0.6600000000000001 7.18,-1.12 10.82,-1.3800000000000001 c3.52,-0.27 7.21,-0.38000000000000006 10.8,-0.23 c33.43,0.98 63.98,18.27 79.71,45.14 c6.86,11.72 10.620000000000001,24.95 10.88,38.28 c0.020000000000000004,0.47000000000000003 0.020000000000000004,1.02 0.020000000000000004,1.56 c0,5.09 -0.5,10.2 -1.49,15.18 C193.02143020629882,172.22285850524904 154.23143020629882,201.60285850524903 108.82143020629883,201.60285850524903 zM108.82143020629883,37.782858505249024 c-2.43,0 -4.86,0.09000000000000002 -7.22,0.27 c-3.42,0.24000000000000002 -6.83,0.6700000000000002 -10.15,1.29 c-2.34,0.42000000000000004 -4.63,0.92 -6.83,1.49 c-4.87,1.26 -9.63,2.91 -14.14,4.9 c-10.83,4.77 -20.31,11.39 -28.19,19.68 c-12.9,13.58 -20.33,30.9 -20.91,48.77 c-0.030000000000000006,0.8 -0.04000000000000001,1.58 -0.04000000000000001,2.38 c0,5.8 0.7000000000000001,11.57 2.09,17.16 c0.52,2.12 1.15,4.25 1.8800000000000001,6.35 c11.47,33.06 45.04,55.27 83.52,55.27 c42.43,0 78.65,-27.26 86.12,-64.82 c0.91,-4.58 1.37,-9.27 1.37,-13.96 c0,-0.46 0,-0.91 -0.020000000000000004,-1.37 c-0.25,-12.5 -3.62,-24.36 -10.03,-35.31 c-14.65,-25.02 -43.21,-41.13 -74.54,-42.05 C110.73143020629882,37.79285850524902 109.78143020629884,37.782858505249024 108.82143020629883,37.782858505249024 z" id="svg_45"/>
	<path class="st1" d="M144.92143020629882,154.77285850524902 c-2.01,0 -3.6500000000000004,-1.6300000000000001 -3.6500000000000004,-3.6500000000000004 c0,-5.63 -4.58,-10.2 -10.2,-10.2 s-10.2,4.58 -10.2,10.2 c0,2.01 -1.6300000000000001,3.6500000000000004 -3.6500000000000004,3.6500000000000004 S113.57143020629883,153.14285850524902 113.57143020629883,151.122858505249 c0,-9.65 7.85,-17.5 17.5,-17.5 s17.5,7.85 17.5,17.5 C148.57143020629883,153.14285850524902 146.93143020629884,154.77285850524902 144.92143020629882,154.77285850524902 z" id="svg_46"/>
	<path class="st1" d="M99.82143020629883,154.77285850524902 c-2.01,0 -3.6500000000000004,-1.6300000000000001 -3.6500000000000004,-3.6500000000000004 c0,-5.63 -4.58,-10.2 -10.2,-10.2 s-10.2,4.58 -10.2,10.2 c0,2.01 -1.6300000000000001,3.6500000000000004 -3.6500000000000004,3.6500000000000004 c-2.01,0 -3.6500000000000004,-1.6300000000000001 -3.6500000000000004,-3.6500000000000004 c0,-9.65 7.85,-17.5 17.5,-17.5 s17.5,7.85 17.5,17.5 C103.47143020629883,153.14285850524902 101.84143020629884,154.77285850524902 99.82143020629883,154.77285850524902 z" id="svg_47"/>
	<path class="st1" d="M108.59143020629884,182.35285850524903 c-8.24,0 -15.91,-4.43 -20.01,-11.56 c-1,-1.75 -0.4,-3.98 1.35,-4.98 c1.75,-1 3.98,-0.4 4.98,1.35 c2.8,4.87 8.04,7.9 13.68,7.9 s10.88,-3.03 13.68,-7.9 c1,-1.75 3.23,-2.35 4.98,-1.35 c1.75,1 2.35,3.23 1.35,4.98 C124.50143020629883,177.92285850524902 116.83143020629882,182.35285850524903 108.59143020629884,182.35285850524903 z" id="svg_48"/>
	<ellipse class="st5" cx="65.12143325805664" cy="162.08286094665527" rx="9.460000038146973" ry="4.860000133514404" id="svg_49"/>
	<ellipse class="st5" cx="151.24142837524414" cy="162.08286094665527" rx="9.460000038146973" ry="4.860000133514404" id="svg_50"/>
	<g id="svg_51">
		<path class="st3" d="M168.11143020629882,34.58285850524902 c0,3.16 -0.46,6.21 -1.33,9.09 c-0.5800000000000001,1.94 -2.8600000000000003,2.79 -4.61,1.75 c-9.69,-5.78 -20.59,-10.04 -32.29,-12.38 c-4.85,-0.97 -9.83,-1.62 -14.91,-1.8900000000000001 c-2.03,-0.13 -4.09,-0.19000000000000003 -6.16,-0.19000000000000003 c-0.010000000000000002,0 -0.030000000000000006,0 -0.04000000000000001,0 c-2.03,0 -3.58,-1.8800000000000001 -3.1,-3.8600000000000003 c3.35,-13.88 15.85,-24.19 30.77,-24.19 c13.17,0 24.46,8.04 29.23,19.48 c1.45,3.48 2.3,7.26 2.41,11.25 C168.11143020629882,33.962858505249024 168.11143020629882,34.272858505249026 168.11143020629882,34.58285850524902 z" id="svg_52"/>
		<path class="st1" d="M163.79143020629883,47.44285850524902 c-0.8400000000000001,0 -1.6700000000000002,-0.23 -2.41,-0.6700000000000002 c-9.74,-5.8100000000000005 -20.44,-9.92 -31.79,-12.19 c-4.86,-0.97 -9.81,-1.6 -14.69,-1.86 c-2,-0.12000000000000001 -4.04,-0.19000000000000003 -6.08,-0.19000000000000003 c0,0 0,0 0,0 c-1.51,0 -2.87,-0.6600000000000001 -3.7800000000000002,-1.81 c-0.8900000000000001,-1.13 -1.21,-2.58 -0.8700000000000001,-3.9699999999999998 c3.6100000000000003,-14.95 16.88,-25.39 32.29,-25.39 c13.46,0 25.5,8.02 30.68,20.44 c1.57,3.77 2.42,7.75 2.5300000000000002,11.81 c0.020000000000000004,0.28 0.020000000000000004,0.6300000000000001 0.020000000000000004,0.98 c0,3.25 -0.47000000000000003,6.46 -1.3900000000000001,9.54 c-0.41000000000000003,1.3800000000000001 -1.42,2.47 -2.77,2.99 C164.95143020629882,47.33285850524902 164.37143020629884,47.44285850524902 163.79143020629883,47.44285850524902 zM108.78143020629884,29.40285850524902 c2.13,0 4.24,0.06000000000000001 6.29,0.19000000000000003 c5.02,0.27 10.11,0.91 15.12,1.9100000000000001 c11.71,2.34 22.73,6.57 32.78,12.57 c0.43000000000000005,0.25 0.93,0.30000000000000004 1.4,0.12000000000000001 c0.26,-0.1 0.7200000000000001,-0.36000000000000004 0.91,-0.98 c0.8400000000000001,-2.79 1.26,-5.69 1.26,-8.64 c0,-0.28 0,-0.56 -0.020000000000000004,-0.8300000000000001 c-0.1,-3.74 -0.8700000000000001,-7.33 -2.29,-10.75 c-4.69,-11.25 -15.6,-18.52 -27.79,-18.52 c-13.95,0 -25.98,9.46 -29.25,22.99 c-0.15000000000000002,0.6200000000000001 0.12000000000000001,1.08 0.29000000000000004,1.3 C107.80143020629882,29.182858505249023 108.27143020629882,29.40285850524902 108.78143020629884,29.40285850524902 C108.78143020629884,29.40285850524902 108.78143020629884,29.40285850524902 108.78143020629884,29.40285850524902 z" id="svg_53"/>
	</g>
	<g id="svg_54">
		<path class="st5" d="M168.11143020629882,34.58285850524902 c0,4.58 -0.97,8.92 -2.72,12.84 c-10.46,-6.8100000000000005 -22.49,-11.78 -35.5,-14.38 c-4.85,-0.97 -9.83,-1.62 -14.91,-1.8900000000000001 c5.13,-10.57 15.96,-17.85 28.49,-17.85 c8.66,0 16.51,3.47 22.21,9.1 c1.45,3.48 2.3,7.26 2.41,11.25 C168.11143020629882,33.962858505249024 168.11143020629882,34.272858505249026 168.11143020629882,34.58285850524902 z" id="svg_55"/>
		<path class="st1" d="M166.07143020629883,49.73285850524903 l-1.53,-1 c-10.55,-6.86 -22.31,-11.63 -34.95,-14.16 c-4.86,-0.97 -9.81,-1.6 -14.69,-1.86 l-2.35,-0.13 l1.03,-2.12 c5.61,-11.56 17.06,-18.73 29.9,-18.73 c8.79,0 17.07,3.39 23.31,9.55 l0.22000000000000003,0.22000000000000003 l0.12000000000000001,0.29000000000000004 c1.57,3.77 2.42,7.75 2.5300000000000002,11.81 c0.020000000000000004,0.28 0.020000000000000004,0.6300000000000001 0.020000000000000004,0.98 c0,4.7 -0.9600000000000001,9.23 -2.8600000000000003,13.48 L166.07143020629883,49.73285850524903 zM117.50143020629883,29.752858505249023 c4.24,0.33000000000000007 8.5,0.91 12.7,1.7600000000000002 c12.4,2.48 23.98,7.05 34.46,13.59 c1.26,-3.35 1.8900000000000001,-6.88 1.8900000000000001,-10.52 c0,-0.28 0,-0.56 -0.020000000000000004,-0.8300000000000001 c-0.1,-3.63 -0.8300000000000001,-7.13 -2.17,-10.46 c-5.62,-5.44 -13.03,-8.43 -20.89,-8.43 C132.64143020629882,14.862858505249022 122.89143020629882,20.51285850524902 117.50143020629883,29.752858505249023 z" id="svg_56"/>
	</g>
	<g id="svg_57">
		<path class="st4" d="M168.11143020629882,34.58285850524902 c0,4.58 -0.97,8.92 -2.72,12.84 c-10.46,-6.8100000000000005 -22.49,-11.78 -35.5,-14.38 c5.24,-3.85 11.7,-6.12 18.71,-6.12 c7.35,0 14.12,2.5 19.49,6.72 C168.11143020629882,33.962858505249024 168.11143020629882,34.272858505249026 168.11143020629882,34.58285850524902 z" id="svg_58"/>
		<path class="st1" d="M166.07143020629883,49.73285850524903 l-1.53,-1 c-10.55,-6.86 -22.31,-11.63 -34.95,-14.16 l-3.48,-0.7000000000000001 l2.8600000000000003,-2.1 c5.73,-4.2 12.51,-6.42 19.63,-6.42 c7.51,0 14.59,2.44 20.46,7.06 l0.55,0.43000000000000005 l0.05000000000000001,0.6900000000000002 c0.020000000000000004,0.35000000000000003 0.020000000000000004,0.6900000000000002 0.020000000000000004,1.04 c0,4.7 -0.9600000000000001,9.23 -2.8600000000000003,13.48 L166.07143020629883,49.73285850524903 zM133.90143020629884,32.32285850524902 c11.01,2.6100000000000003 21.33,6.9 30.76,12.78 c1.26,-3.35 1.8900000000000001,-6.88 1.8900000000000001,-10.52 c0,-0.05000000000000001 0,-0.1 0,-0.15000000000000002 c-5.2,-3.89 -11.39,-5.95 -17.95,-5.95 C143.39143020629882,28.492858505249025 138.37143020629884,29.80285850524902 133.90143020629884,32.32285850524902 z" id="svg_59"/>
	</g>
</g></g></svg>