<?xml version="1.0" encoding="utf-8"?>
<!-- Generator: Adobe Illustrator 23.0.5, SVG Export Plug-In . SVG Version: 6.00 Build 0)  -->
<svg version="1.1" id="Layer_1" xmlns="http://www.w3.org/2000/svg" xmlns:xlink="http://www.w3.org/1999/xlink" x="0px" y="0px"
	 viewBox="0 0 1201 347" style="enable-background:new 0 0 1201 347;" xml:space="preserve">
<style type="text/css">
	.st0{fill:#FCDCBA;}
	.st1{fill:#391540;}
	.st2{fill:#DA9774;}
	.st3{fill:#F2F2F2;}
	.st4{fill:#D97E85;}
	.st5{fill:#F2B6BB;}
	.st6{fill:#FFFFFF;}
	.st7{fill:#9BBF95;}
</style>
<g>
	<g>
		<path class="st0" d="M79.08,251.62c-6.17-0.21-11.11-5.28-11.11-11.51c0-3.88,1.93-7.32,4.87-9.41
			C73.61,238.1,75.77,245.15,79.08,251.62z"/>
		<path class="st1" d="M72.83,230.7c0.78,7.41,2.94,14.45,6.24,20.92c-6.17-0.21-11.11-5.28-11.11-11.51
			C67.96,236.22,69.89,232.79,72.83,230.7 M76.61,222.35l-6.45,4.57c-4.27,3.03-6.82,7.96-6.82,13.18c0,8.75,6.84,15.83,15.58,16.13
			l7.85,0.26l-3.57-6.99c-3.12-6.1-5.06-12.59-5.76-19.3L76.61,222.35L76.61,222.35z"/>
	</g>
	<path class="st2" d="M73.31,234.17c-1.05,1.73-1.65,3.77-1.65,5.94c0,4.74,2.86,8.8,6.94,10.57"/>
	<g>
		<path class="st0" d="M201.59,251.62c6.17-0.21,11.11-5.28,11.11-11.51c0-3.88-1.93-7.32-4.87-9.41
			C207.05,238.1,204.89,245.15,201.59,251.62z"/>
		<path class="st1" d="M207.83,230.7c2.94,2.09,4.87,5.53,4.87,9.41c0,6.23-4.94,11.3-11.11,11.51
			C204.89,245.15,207.05,238.1,207.83,230.7 M204.06,222.35l-0.83,7.86c-0.7,6.71-2.64,13.2-5.76,19.3l-3.57,6.99l7.85-0.26
			c8.74-0.29,15.58-7.38,15.58-16.13c0-5.22-2.55-10.15-6.82-13.18L204.06,222.35L204.06,222.35z"/>
	</g>
	<path class="st2" d="M202.06,250.68c4.08-1.76,6.94-5.83,6.94-10.57c0-2.17-0.6-4.21-1.65-5.94"/>
	<path class="st0" d="M73.2,224.46c0,3.68,0.36,7.28,1.06,10.77c5.63,28.31,33.02,49.8,65.95,49.8c30.01,0,55.41-17.84,63.95-42.43
		c0.55-1.6,1.04-3.24,1.45-4.89c1.06-4.26,1.61-8.7,1.61-13.25c0-0.62-0.01-1.23-0.03-1.83c-0.47-14.34-6.45-27.42-16.1-37.58
		c-5.95-6.27-13.29-11.42-21.59-15.08c-3.45-1.52-7.06-2.77-10.81-3.75c-1.71-0.45-3.45-0.82-5.21-1.14
		c-2.54-0.47-5.13-0.8-7.75-0.99c-1.82-0.14-3.66-0.21-5.52-0.21c-0.74,0-1.48,0.01-2.21,0.04c-24.76,0.72-46.14,13.6-57.05,32.24
		c-4.76,8.14-7.54,17.38-7.73,27.18C73.2,223.72,73.2,224.09,73.2,224.46z"/>
	<path class="st2" d="M73.2,224.46c0,3.68,0.36,7.28,1.06,10.77c5.63,28.31,33.02,49.8,65.95,49.8c30.01,0,55.41-17.84,63.95-42.43
		c0.55-1.6,1.04-3.24,1.45-4.89c1.06-4.26,1.61-8.7,1.61-13.25c0-0.62-0.01-1.23-0.03-1.83c-0.02-0.82-0.07-1.63-0.14-2.44
		c-0.23,3.06-0.72,6.07-1.44,8.98c-0.41,1.66-0.89,3.29-1.45,4.89c-8.53,24.59-33.93,42.43-63.95,42.43
		c-32.93,0-60.32-21.49-65.95-49.8c-0.42-2.12-0.72-4.29-0.89-6.47c-0.08,1.03-0.13,2.08-0.15,3.14
		C73.2,223.72,73.2,224.09,73.2,224.46z"/>
	<path class="st1" d="M71.99,235.69c-0.73-3.68-1.1-7.46-1.1-11.22c0-0.4,0-0.8,0.02-1.16c0.19-9.85,2.98-19.64,8.05-28.31
		c11.63-19.87,34.23-32.66,58.95-33.38c2.66-0.11,5.39-0.03,7.99,0.17c2.69,0.19,5.38,0.53,8,1.02c1.84,0.33,3.65,0.73,5.38,1.18
		c3.84,0.99,7.59,2.3,11.16,3.87c8.57,3.77,16.09,9.02,22.33,15.6c10.32,10.86,16.26,24.75,16.73,39.09
		c0.02,0.64,0.03,1.28,0.03,1.92c0,4.66-0.56,9.31-1.68,13.8c-0.42,1.7-0.93,3.42-1.51,5.1c-9.13,26.31-35.7,43.98-66.13,43.98
		C106.63,287.35,77.94,265.62,71.99,235.69z M138.06,166.24c-23.17,0.68-44.29,12.59-55.12,31.1c-4.74,8.1-7.23,16.87-7.42,26.11
		c-0.01,0.34-0.01,0.68-0.01,1.01c0,3.46,0.34,6.94,1.01,10.32c5.52,27.78,32.3,47.93,63.68,47.93c28.46,0,53.28-16.43,61.76-40.87
		c0.54-1.55,1-3.13,1.39-4.69c1.02-4.13,1.54-8.4,1.54-12.69c0-0.59-0.01-1.17-0.03-1.76c-0.43-13.21-5.93-26.02-15.47-36.06
		c-5.82-6.13-12.83-11.03-20.84-14.55c-3.34-1.47-6.86-2.69-10.46-3.62c-1.62-0.42-3.31-0.79-5.05-1.1
		c-2.46-0.46-4.98-0.78-7.51-0.95c-1.75-0.13-3.55-0.2-5.34-0.2C139.5,166.2,138.79,166.21,138.06,166.24z"/>
	<path class="st1" d="M113.51,252.72c1.49,0,2.7-1.21,2.7-2.7c0-4.16,3.39-7.55,7.55-7.55c4.16,0,7.55,3.39,7.55,7.55
		c0,1.49,1.21,2.7,2.7,2.7s2.7-1.21,2.7-2.7c0-7.14-5.81-12.94-12.94-12.94c-7.14,0-12.94,5.81-12.94,12.94
		C110.81,251.51,112.02,252.72,113.51,252.72z"/>
	<path class="st1" d="M146.86,252.72c1.49,0,2.7-1.21,2.7-2.7c0-4.16,3.39-7.55,7.55-7.55c4.16,0,7.55,3.39,7.55,7.55
		c0,1.49,1.21,2.7,2.7,2.7c1.49,0,2.7-1.21,2.7-2.7c0-7.14-5.81-12.94-12.94-12.94c-7.14,0-12.94,5.81-12.94,12.94
		C144.16,251.51,145.37,252.72,146.86,252.72z"/>
	<path class="st1" d="M140.38,273.11c6.1,0,11.77-3.27,14.8-8.55c0.74-1.29,0.3-2.94-0.99-3.68c-1.29-0.74-2.94-0.3-3.68,0.99
		c-2.07,3.6-5.95,5.84-10.12,5.84s-8.05-2.24-10.12-5.84c-0.74-1.29-2.39-1.74-3.68-0.99c-1.29,0.74-1.74,2.39-0.99,3.68
		C128.61,269.83,134.28,273.11,140.38,273.11z"/>
	<path class="st1" d="M196.82,73.41c-0.6,0-1.19-0.17-1.7-0.51c-10.39-6.76-21.96-11.45-34.41-13.94
		c-4.79-0.96-9.66-1.57-14.47-1.83c-3.31-0.2-6.8-0.23-9.69-0.11c-0.92,0.03-1.79-0.33-2.41-0.99c-0.62-0.67-0.92-1.57-0.82-2.48
		c1.95-17.62,16.81-30.9,34.56-30.9c14.09,0,26.7,8.4,32.12,21.4c1.64,3.94,2.53,8.08,2.65,12.31c0.02,0.36,0.02,0.72,0.02,1.08
		c0,4.92-1.01,9.67-2.99,14.12c-0.37,0.84-1.09,1.46-1.97,1.72C197.42,73.37,197.12,73.41,196.82,73.41z M140.25,50.7
		c2.13,0,4.27,0.07,6.35,0.19c5.08,0.27,10.25,0.92,15.34,1.94c11.92,2.39,23.11,6.68,33.29,12.77c0.79-2.63,1.18-5.36,1.18-8.16
		c0-0.24,0-0.49-0.01-0.73c0-0.04-0.01-0.08-0.01-0.13c-0.09-3.48-0.82-6.89-2.17-10.13c-4.45-10.66-14.79-17.55-26.35-17.55
		c-13.34,0-24.69,9.15-27.73,21.79C140.18,50.7,140.22,50.7,140.25,50.7z"/>
	<g>
		<path class="st0" d="M222.91,176.14c8.35-0.28,15.03-7.14,15.03-15.56c0-5.25-2.61-9.9-6.59-12.73
			C230.3,157.87,227.38,167.4,222.91,176.14z"/>
		<path class="st1" d="M231.35,147.86c3.98,2.82,6.59,7.47,6.59,12.73c0,8.42-6.68,15.28-15.03,15.56
			C227.38,167.4,230.3,157.87,231.35,147.86 M226.25,136.57l-1.12,10.63c-0.95,9.07-3.57,17.85-7.79,26.09l-4.83,9.45l10.61-0.36
			c11.82-0.4,21.07-9.98,21.07-21.81c0-7.07-3.45-13.73-9.22-17.83L226.25,136.57L226.25,136.57z"/>
	</g>
	<path class="st2" d="M223.55,174.87c5.52-2.39,9.39-7.88,9.39-14.29c0-2.94-0.81-5.69-2.23-8.04"/>
	<g>
		<path class="st0" d="M57.25,176.14c-8.35-0.28-15.03-7.14-15.03-15.56c0-5.25,2.61-9.9,6.59-12.73
			C49.86,157.87,52.78,167.4,57.25,176.14z"/>
		<path class="st1" d="M48.81,147.86c1.05,10.02,3.97,19.54,8.44,28.29c-8.35-0.28-15.03-7.14-15.03-15.56
			C42.22,155.33,44.82,150.68,48.81,147.86 M53.91,136.57l-8.72,6.19c-5.77,4.1-9.22,10.76-9.22,17.83
			c0,11.83,9.26,21.41,21.07,21.81l10.61,0.36l-4.83-9.45c-4.22-8.25-6.84-17.02-7.79-26.09L53.91,136.57L53.91,136.57z"/>
	</g>
	<path class="st2" d="M49.45,152.55c-1.42,2.34-2.23,5.1-2.23,8.04c0,6.41,3.87,11.9,9.39,14.29"/>
	<path class="st0" d="M230.86,139.42c0,4.97-0.49,9.84-1.43,14.57c-7.61,38.28-44.65,67.34-89.18,67.34
		c-40.58,0-74.94-24.13-86.47-57.37c-0.75-2.17-1.41-4.38-1.96-6.62c-1.43-5.76-2.18-11.77-2.18-17.92c0-0.83,0.01-1.66,0.04-2.48
		c0.64-19.39,8.72-37.08,21.77-50.82c8.05-8.47,17.97-15.45,29.19-20.39c4.66-2.05,9.55-3.75,14.61-5.07
		c2.31-0.6,4.66-1.12,7.05-1.54c3.43-0.64,6.93-1.08,10.48-1.33c2.46-0.19,4.95-0.28,7.46-0.28c1,0,2,0.01,2.99,0.05
		c33.49,0.98,62.39,18.38,77.14,43.6c6.44,11.01,10.19,23.5,10.45,36.76C230.86,138.42,230.86,138.92,230.86,139.42z"/>
	<path class="st2" d="M230.86,139.42c0,4.97-0.49,9.84-1.43,14.57c-7.61,38.28-44.65,67.34-89.18,67.34
		c-40.58,0-74.94-24.13-86.47-57.37c-0.75-2.17-1.41-4.38-1.96-6.62c-1.43-5.76-2.18-11.77-2.18-17.92c0-0.83,0.01-1.66,0.04-2.48
		c0.03-1.1,0.09-2.21,0.19-3.3c0.31,4.14,0.97,8.2,1.95,12.14c0.55,2.24,1.21,4.45,1.96,6.62c11.54,33.25,45.89,57.37,86.47,57.37
		c44.53,0,81.57-29.06,89.18-67.34c0.57-2.87,0.97-5.79,1.2-8.75c0.11,1.4,0.18,2.81,0.21,4.24
		C230.86,138.42,230.86,138.92,230.86,139.42z"/>
	<g>
		<path class="st3" d="M51.82,157.34c-1.43-5.76-2.18-11.77-2.18-17.92c0-0.83,0.01-1.66,0.04-2.48
			c0.64-19.39,8.72-37.08,21.77-50.82c8.05-8.47,17.97-15.45,29.19-20.39c1.43,5.76,2.18,11.77,2.18,17.92
			C102.82,116.05,82.01,144.06,51.82,157.34z"/>
		<path class="st1" d="M50.75,159.52l-0.45-1.8c-1.48-5.96-2.22-12.11-2.22-18.29c0-0.85,0.01-1.7,0.04-2.54
			c0.62-19.01,8.51-37.42,22.2-51.84c8.3-8.74,18.29-15.72,29.7-20.74l1.7-0.75l0.45,1.8c1.48,5.96,2.22,12.11,2.22,18.29
			c0,31.76-20.39,61.24-51.94,75.12L50.75,159.52z M99.56,67.95C89.25,72.73,80.18,79.2,72.59,87.2
			c-13.17,13.86-20.75,31.54-21.34,49.79c-0.03,0.81-0.04,1.62-0.04,2.43c0,5.3,0.57,10.57,1.7,15.71
			c29.88-13.84,48.35-41.07,48.35-71.48C101.26,78.36,100.69,73.08,99.56,67.95z"/>
	</g>
	<g>
		<path class="st4" d="M126.44,83.66c0,8.91-1.57,17.5-4.5,25.53c-10.05,27.72-36.03,48.93-68.16,54.77
			c-0.75-2.17-1.41-4.38-1.96-6.62c30.19-13.28,51.01-41.29,51.01-73.68c0-6.15-0.75-12.15-2.18-17.92
			c4.66-2.05,9.55-3.75,14.61-5.07c2.31-0.6,4.66-1.12,7.05-1.54C124.99,66.88,126.44,75.11,126.44,83.66z"/>
		<path class="st1" d="M52.74,165.74l-0.44-1.27c-0.77-2.23-1.44-4.5-2-6.76l-0.31-1.28l1.2-0.53
			c30.89-13.58,50.07-41.27,50.07-72.25c0-5.93-0.72-11.83-2.13-17.54l-0.32-1.28l1.2-0.53c4.74-2.09,9.74-3.82,14.85-5.15
			c2.31-0.6,4.72-1.13,7.16-1.57l1.31-0.24l0.44,1.26c2.8,8.07,4.22,16.5,4.22,25.04c0,8.93-1.55,17.7-4.6,26.07
			c-10.33,28.51-36.9,49.88-69.35,55.77L52.74,165.74z M53.66,158.23c0.35,1.32,0.74,2.63,1.17,3.94
			c30.75-6.03,55.83-26.43,65.64-53.51c2.93-8.03,4.41-16.44,4.41-25c0-7.74-1.22-15.38-3.62-22.74c-1.91,0.37-3.79,0.8-5.6,1.27
			c-4.52,1.17-8.95,2.67-13.18,4.47c1.27,5.55,1.92,11.27,1.92,17C104.39,115,84.52,144.14,53.66,158.23z"/>
	</g>
	<g>
		<path class="st5" d="M102.82,83.66c0,32.39-20.81,60.41-51.01,73.68c-1.43-5.76-2.18-11.77-2.18-17.92c0-0.83,0.01-1.66,0.04-2.48
			c13.05-13.75,21.14-31.43,21.77-50.82c8.05-8.47,17.97-15.45,29.19-20.39C102.07,71.5,102.82,77.51,102.82,83.66z"/>
		<path class="st1" d="M50.75,159.52l-0.45-1.8c-1.48-5.96-2.22-12.11-2.22-18.29c0-0.85,0.01-1.7,0.04-2.54l0.02-0.59l0.41-0.43
			C61.71,122,69.29,104.31,69.89,86.07l0.02-0.59l0.41-0.43c8.3-8.74,18.29-15.72,29.7-20.74l1.7-0.75l0.45,1.8
			c1.48,5.96,2.22,12.11,2.22,18.29c0,31.76-20.39,61.24-51.94,75.12L50.75,159.52z M51.22,137.59c-0.02,0.61-0.02,1.22-0.02,1.84
			c0,5.3,0.57,10.57,1.7,15.71c29.88-13.84,48.35-41.07,48.35-71.48c0-5.3-0.57-10.57-1.7-15.71c-10.12,4.7-19.05,11.02-26.56,18.83
			C72.23,105.38,64.52,123.38,51.22,137.59z"/>
	</g>
	<g>
		<path class="st4" d="M230.86,139.42c0,4.97-0.49,9.84-1.43,14.57c-7.94,2.05-16.33,3.16-25.01,3.16
			c-36.64,0-68.21-19.67-82.48-47.96c2.93-8.04,4.5-16.62,4.5-25.53c0-8.55-1.45-16.78-4.14-24.52c3.43-0.64,6.93-1.08,10.48-1.33
			c2.46-0.19,4.95-0.28,7.46-0.28c1,0,2,0.01,2.99,0.05c33.49,0.98,62.39,18.38,77.14,43.6c6.44,11.01,10.19,23.5,10.45,36.76
			C230.86,138.42,230.86,138.92,230.86,139.42z"/>
		<path class="st1" d="M204.42,158.72c-36,0-68.92-19.16-83.88-48.82l-0.3-0.6l0.23-0.64c2.92-8.02,4.41-16.44,4.41-25
			c0-8.19-1.36-16.27-4.05-24.01l-0.6-1.72l1.79-0.33c3.5-0.65,7.09-1.1,10.66-1.36c3.47-0.27,7.1-0.38,10.63-0.23
			c32.91,0.96,62.97,17.96,78.43,44.37c6.82,11.65,10.41,24.27,10.67,37.52c0.02,0.49,0.02,1.01,0.02,1.53
			c0,4.99-0.49,10-1.46,14.87l-0.19,0.96l-0.95,0.25C221.59,157.64,213.04,158.72,204.42,158.72z M123.64,109.08
			c14.57,28.27,46.19,46.51,80.78,46.51c8.03,0,15.98-0.96,23.66-2.87c0.81-4.37,1.21-8.84,1.21-13.3c0-0.48,0-0.96-0.02-1.44
			c-0.25-12.74-3.7-24.85-10.24-36.03c-14.92-25.48-43.98-41.89-75.84-42.82c-3.48-0.15-6.93-0.03-10.29,0.23
			c-2.86,0.2-5.73,0.54-8.55,1c2.42,7.54,3.64,15.37,3.64,23.3C128,92.36,126.54,100.91,123.64,109.08z"/>
	</g>
	<g>
		<path class="st5" d="M230.84,137.92c-2.46,0.19-4.96,0.28-7.47,0.28c-49.48,0-89.7-35.85-90.58-80.41
			c2.46-0.19,4.95-0.28,7.46-0.28c1,0,2,0.01,2.99,0.05c33.49,0.98,62.39,18.38,77.14,43.6
			C226.83,112.17,230.58,124.67,230.84,137.92z"/>
		<path class="st1" d="M223.37,139.77c-24.3,0-47.22-8.48-64.56-23.89c-17.36-15.43-27.15-36.04-27.59-58.05l-0.03-1.48l1.47-0.11
			c3.48-0.27,7.11-0.38,10.64-0.23c32.91,0.96,62.97,17.96,78.43,44.37c6.82,11.65,10.41,24.27,10.67,37.52l0.03,1.48l-1.47,0.11
			C228.47,139.67,225.92,139.77,223.37,139.77z M134.4,59.25c1.72,42.81,41.29,77.39,88.97,77.39c1.97,0,3.93-0.06,5.87-0.18
			c-0.48-12.16-3.91-23.77-10.2-34.51c-14.92-25.48-43.98-41.89-75.84-42.82C140.23,59.01,137.29,59.08,134.4,59.25z"/>
	</g>
	<g>
		<path class="st3" d="M220.39,101.16c-33.49-0.97-62.39-18.38-77.14-43.6C176.73,58.55,205.63,75.95,220.39,101.16z"/>
		<path class="st1" d="M223.16,102.81l-2.82-0.08c-32.93-0.95-62.99-17.95-78.45-44.37l-1.43-2.44l2.82,0.08
			c32.93,0.96,62.99,17.96,78.45,44.37L223.16,102.81z M146.11,59.26c14.84,23.31,41.75,38.47,71.42,40.21
			C202.69,76.17,175.78,61.01,146.11,59.26z"/>
	</g>
	<path class="st1" d="M140.25,224.46c-41.14,0-77.08-23.9-89.43-59.48c-0.79-2.27-1.47-4.59-2.04-6.89
		c-1.51-6.08-2.27-12.36-2.27-18.66c0-0.87,0.01-1.74,0.04-2.6c0.64-19.39,8.67-38.16,22.63-52.85c8.45-8.89,18.61-15.99,30.2-21.09
		c4.82-2.12,9.9-3.88,15.09-5.23c2.34-0.61,4.8-1.15,7.28-1.59c3.54-0.66,7.18-1.12,10.82-1.38c3.52-0.27,7.21-0.38,10.8-0.23
		c33.43,0.98,63.98,18.27,79.71,45.14c6.86,11.72,10.62,24.95,10.88,38.28c0.02,0.47,0.02,1.02,0.02,1.56
		c0,5.09-0.5,10.2-1.49,15.18C224.45,195.08,185.66,224.46,140.25,224.46z M140.25,60.64c-2.43,0-4.86,0.09-7.22,0.27
		c-3.42,0.24-6.83,0.67-10.15,1.29c-2.34,0.42-4.63,0.92-6.83,1.49c-4.87,1.26-9.63,2.91-14.14,4.9
		c-10.83,4.77-20.31,11.39-28.19,19.68c-12.9,13.58-20.33,30.9-20.91,48.77c-0.03,0.8-0.04,1.58-0.04,2.38
		c0,5.8,0.7,11.57,2.09,17.16c0.52,2.12,1.15,4.25,1.88,6.35c11.47,33.06,45.04,55.27,83.52,55.27c42.43,0,78.65-27.26,86.12-64.82
		c0.91-4.58,1.37-9.27,1.37-13.96c0-0.46,0-0.91-0.02-1.37c-0.25-12.5-3.62-24.36-10.03-35.31c-14.65-25.02-43.21-41.13-74.54-42.05
		C142.16,60.65,141.21,60.64,140.25,60.64z"/>
	<path class="st1" d="M176.35,177.63c-2.01,0-3.65-1.63-3.65-3.65c0-5.63-4.58-10.2-10.2-10.2s-10.2,4.58-10.2,10.2
		c0,2.01-1.63,3.65-3.65,3.65S145,176,145,173.98c0-9.65,7.85-17.5,17.5-17.5s17.5,7.85,17.5,17.5
		C180,176,178.36,177.63,176.35,177.63z"/>
	<path class="st1" d="M131.25,177.63c-2.01,0-3.65-1.63-3.65-3.65c0-5.63-4.58-10.2-10.2-10.2s-10.2,4.58-10.2,10.2
		c0,2.01-1.63,3.65-3.65,3.65c-2.01,0-3.65-1.63-3.65-3.65c0-9.65,7.85-17.5,17.5-17.5s17.5,7.85,17.5,17.5
		C134.9,176,133.27,177.63,131.25,177.63z"/>
	<path class="st1" d="M140.02,205.21c-8.24,0-15.91-4.43-20.01-11.56c-1-1.75-0.4-3.98,1.35-4.98c1.75-1,3.98-0.4,4.98,1.35
		c2.8,4.87,8.04,7.9,13.68,7.9s10.88-3.03,13.68-7.9c1-1.75,3.23-2.35,4.98-1.35c1.75,1,2.35,3.23,1.35,4.98
		C155.93,200.78,148.26,205.21,140.02,205.21z"/>
	<ellipse class="st5" cx="96.55" cy="184.94" rx="9.46" ry="4.86"/>
	<ellipse class="st5" cx="182.67" cy="184.94" rx="9.46" ry="4.86"/>
	<g>
		<path class="st3" d="M199.54,57.44c0,3.16-0.46,6.21-1.33,9.09c-0.58,1.94-2.86,2.79-4.61,1.75
			c-9.69-5.78-20.59-10.04-32.29-12.38c-4.85-0.97-9.83-1.62-14.91-1.89c-2.03-0.13-4.09-0.19-6.16-0.19c-0.01,0-0.03,0-0.04,0
			c-2.03,0-3.58-1.88-3.1-3.86c3.35-13.88,15.85-24.19,30.77-24.19c13.17,0,24.46,8.04,29.23,19.48c1.45,3.48,2.3,7.26,2.41,11.25
			C199.54,56.82,199.54,57.13,199.54,57.44z"/>
		<path class="st1" d="M195.22,70.3c-0.84,0-1.67-0.23-2.41-0.67c-9.74-5.81-20.44-9.92-31.79-12.19c-4.86-0.97-9.81-1.6-14.69-1.86
			c-2-0.12-4.04-0.19-6.08-0.19c0,0,0,0,0,0c-1.51,0-2.87-0.66-3.78-1.81c-0.89-1.13-1.21-2.58-0.87-3.97
			c3.61-14.95,16.88-25.39,32.29-25.39c13.46,0,25.5,8.02,30.68,20.44c1.57,3.77,2.42,7.75,2.53,11.81
			c0.02,0.28,0.02,0.63,0.02,0.98c0,3.25-0.47,6.46-1.39,9.54c-0.41,1.38-1.42,2.47-2.77,2.99C196.38,70.19,195.8,70.3,195.22,70.3z
			 M140.21,52.26c2.13,0,4.24,0.06,6.29,0.19c5.02,0.27,10.11,0.91,15.12,1.91c11.71,2.34,22.73,6.57,32.78,12.57
			c0.43,0.25,0.93,0.3,1.4,0.12c0.26-0.1,0.72-0.36,0.91-0.98c0.84-2.79,1.26-5.69,1.26-8.64c0-0.28,0-0.56-0.02-0.83
			c-0.1-3.74-0.87-7.33-2.29-10.75c-4.69-11.25-15.6-18.52-27.79-18.52c-13.95,0-25.98,9.46-29.25,22.99
			c-0.15,0.62,0.12,1.08,0.29,1.3C139.23,52.04,139.7,52.26,140.21,52.26C140.21,52.26,140.21,52.26,140.21,52.26z"/>
	</g>
	<g>
		<path class="st5" d="M199.54,57.44c0,4.58-0.97,8.92-2.72,12.84c-10.46-6.81-22.49-11.78-35.5-14.38
			c-4.85-0.97-9.83-1.62-14.91-1.89c5.13-10.57,15.96-17.85,28.49-17.85c8.66,0,16.51,3.47,22.21,9.1c1.45,3.48,2.3,7.26,2.41,11.25
			C199.54,56.82,199.54,57.13,199.54,57.44z"/>
		<path class="st1" d="M197.5,72.59l-1.53-1c-10.55-6.86-22.31-11.63-34.95-14.16c-4.86-0.97-9.81-1.6-14.69-1.86l-2.35-0.13
			l1.03-2.12c5.61-11.56,17.06-18.73,29.9-18.73c8.79,0,17.07,3.39,23.31,9.55l0.22,0.22l0.12,0.29c1.57,3.77,2.42,7.75,2.53,11.81
			c0.02,0.28,0.02,0.63,0.02,0.98c0,4.7-0.96,9.23-2.86,13.48L197.5,72.59z M148.93,52.61c4.24,0.33,8.5,0.91,12.7,1.76
			c12.4,2.48,23.98,7.05,34.46,13.59c1.26-3.35,1.89-6.88,1.89-10.52c0-0.28,0-0.56-0.02-0.83c-0.1-3.63-0.83-7.13-2.17-10.46
			c-5.62-5.44-13.03-8.43-20.89-8.43C164.07,37.72,154.32,43.37,148.93,52.61z"/>
	</g>
	<g>
		<path class="st4" d="M199.54,57.44c0,4.58-0.97,8.92-2.72,12.84c-10.46-6.81-22.49-11.78-35.5-14.38
			c5.24-3.85,11.7-6.12,18.71-6.12c7.35,0,14.12,2.5,19.49,6.72C199.54,56.82,199.54,57.13,199.54,57.44z"/>
		<path class="st1" d="M197.5,72.59l-1.53-1c-10.55-6.86-22.31-11.63-34.95-14.16l-3.48-0.7l2.86-2.1
			c5.73-4.2,12.51-6.42,19.63-6.42c7.51,0,14.59,2.44,20.46,7.06l0.55,0.43l0.05,0.69c0.02,0.35,0.02,0.69,0.02,1.04
			c0,4.7-0.96,9.23-2.86,13.48L197.5,72.59z M165.33,55.18c11.01,2.61,21.33,6.9,30.76,12.78c1.26-3.35,1.89-6.88,1.89-10.52
			c0-0.05,0-0.1,0-0.15c-5.2-3.89-11.39-5.95-17.95-5.95C174.82,51.35,169.8,52.66,165.33,55.18z"/>
	</g>
	<g>
		<path class="st1" d="M281.62,209.41c-1.32-1.36-1.97-3.93-1.97-7.71c0-2.55,0.27-5.82,0.8-9.81c0.53-3.99,1.42-9.48,2.65-16.47
			c2.14-12.91,3.83-24.1,5.06-33.56c0.74-5.92,1.11-10.86,1.11-14.81c0-3.7-1.36-5.55-4.07-5.55c-2.14,0-4.71,1.09-7.71,3.27
			c-3,2.18-6.31,5.66-9.93,10.43c-1.15,1.56-2.43,2.34-3.83,2.34c-1.15,0-2.16-0.56-3.02-1.67c-0.86-1.11-1.29-2.36-1.29-3.76
			c0-1.31,0.27-2.65,0.8-4.01c0.53-1.36,1.42-2.9,2.65-4.63c3.95-5.51,8.35-9.77,13.2-12.77c4.85-3,9.7-4.5,14.56-4.5
			c4.52,0,8,1.44,10.43,4.32c2.43,2.88,3.64,7.08,3.64,12.58c0,2.22-0.21,4.83-0.62,7.83c-0.41,3-0.78,5.45-1.11,7.34
			c-0.33,1.89-0.58,3.21-0.74,3.95c4.69-13.41,9.95-22.76,15.79-28.07c5.84-5.31,12.26-7.96,19.25-7.96c5.35,0,9.56,1.89,12.65,5.67
			c3.08,3.79,4.63,9.13,4.63,16.04c0,2.71-0.37,6.09-1.11,10.12c4.11-11.35,8.92-19.5,14.44-24.43c5.51-4.94,11.84-7.4,19-7.4
			c5.76,0,10.18,1.85,13.26,5.55c3.08,3.7,4.63,8.88,4.63,15.55c0,3.62-0.54,8.02-1.6,13.2l-7.53,35.29
			c-0.82,4.11-1.23,7.65-1.23,10.61c0,3.46,0.8,6.05,2.41,7.77s3.84,2.59,6.72,2.59c2.71,0,5.37-0.9,7.96-2.71
			c2.59-1.81,5.65-4.81,9.19-9.01c0.99-1.15,2.1-1.73,3.33-1.73c1.07,0,1.91,0.49,2.53,1.48c0.62,0.99,0.92,2.34,0.92,4.07
			c0,3.21-0.78,5.76-2.34,7.65c-4.28,5.18-8.51,8.97-12.71,11.35c-4.19,2.39-8.6,3.58-13.2,3.58c-6.99,0-12.46-2.08-16.41-6.23
			c-3.95-4.15-5.92-9.73-5.92-16.72c0-4.85,0.99-11.88,2.96-21.1l4.94-22.58c0.16-0.74,0.45-2.06,0.86-3.95
			c0.41-1.89,0.74-3.68,0.99-5.37c0.25-1.68,0.37-3.35,0.37-5c0-2.88-0.56-5.04-1.67-6.48c-1.11-1.44-2.7-2.16-4.75-2.16
			c-3.87,0-7.92,2.49-12.15,7.46c-4.24,4.98-8.27,13.22-12.09,24.74c-3.83,11.52-6.93,26.49-9.32,44.91
			c-0.58,4.94-1.58,8.25-3.02,9.93c-1.44,1.69-3.76,2.53-6.97,2.53c-2.8,0-4.83-0.66-6.11-1.97c-1.28-1.31-1.91-3.78-1.91-7.4
			c0-3.37,0.45-7.79,1.36-13.26c0.9-5.47,2.06-11.91,3.46-19.31c3.78-19.9,5.68-32.74,5.68-38.5c0-3.13-0.6-5.43-1.79-6.91
			c-1.19-1.48-2.98-2.22-5.37-2.22c-4.03,0-8.19,2.28-12.46,6.85c-4.28,4.57-8.45,12.67-12.52,24.31
			c-4.07,11.64-7.46,27.37-10.18,47.19c-0.58,4.19-1.42,7.11-2.53,8.76c-1.11,1.65-3.27,2.47-6.48,2.47
			C285.11,211.44,282.93,210.76,281.62,209.41z"/>
		<path class="st1" d="M482.85,174.55c0.57,1.07,0.86,2.43,0.86,4.07c0,3.95-1.19,6.29-3.58,7.03c-4.94,1.73-10.36,2.71-16.29,2.96
			c-1.56,6.91-4.65,12.44-9.25,16.6c-4.61,4.15-9.83,6.23-15.67,6.23c-4.94,0-9.15-1.19-12.65-3.58c-3.5-2.38-6.15-5.55-7.96-9.5
			c-1.81-3.95-2.71-8.22-2.71-12.83c0-6.25,1.19-11.82,3.58-16.72c2.38-4.89,5.68-8.72,9.87-11.47c4.19-2.75,8.84-4.13,13.94-4.13
			c6.25,0,11.29,2.16,15.11,6.48c3.83,4.32,6.07,9.64,6.72,15.98c3.87-0.25,8.47-1.07,13.82-2.47c0.66-0.16,1.23-0.25,1.73-0.25
			C481.45,172.95,482.28,173.48,482.85,174.55z M446.76,195.16c1.93-2.14,3.23-5.22,3.89-9.25c-2.55-1.73-4.5-3.99-5.86-6.79
			c-1.36-2.8-2.04-5.76-2.04-8.88c0-1.31,0.12-2.63,0.37-3.95h-0.62c-3.29,0-6.03,1.58-8.21,4.75c-2.18,3.17-3.27,7.63-3.27,13.39
			c0,4.52,0.88,7.98,2.65,10.36c1.77,2.39,3.84,3.58,6.23,3.58C442.55,198.36,444.83,197.3,446.76,195.16z"/>
		<path class="st1" d="M475.26,206.51c-1.28-3.29-1.91-8.55-1.91-15.79c0-10.69,1.52-20.85,4.56-30.47
			c0.74-2.38,1.95-4.13,3.64-5.24c1.68-1.11,4.05-1.67,7.09-1.67c1.64,0,2.8,0.21,3.45,0.62c0.66,0.41,0.99,1.19,0.99,2.34
			c0,1.32-0.62,4.28-1.85,8.88c-0.82,3.29-1.48,6.15-1.97,8.57c-0.49,2.43-0.91,5.45-1.23,9.07c2.22-6.42,4.87-11.84,7.96-16.29
			c3.08-4.44,6.25-7.75,9.5-9.93c3.25-2.18,6.31-3.27,9.19-3.27c2.88,0,4.91,0.66,6.11,1.97c1.19,1.32,1.79,3.33,1.79,6.04
			c0,2.63-0.78,7.4-2.34,14.31c-0.66,2.96-1.11,5.18-1.36,6.66c2.71-6.91,5.74-12.54,9.07-16.9c3.33-4.36,6.6-7.46,9.81-9.31
			c3.21-1.85,6.17-2.78,8.88-2.78c2.63,0,4.63,0.68,5.98,2.04c1.36,1.36,2.04,3.35,2.04,5.98c0,2.14-0.45,6.17-1.36,12.09
			c-0.82,5.02-1.48,9.77-1.97,14.25c-0.49,4.48-0.74,9.48-0.74,14.99c0,3.13-0.64,5.37-1.91,6.73c-1.28,1.36-3.35,2.04-6.23,2.04
			c-2.71,0-4.69-0.7-5.92-2.1c-1.23-1.4-1.85-3.49-1.85-6.29c0-3.29,0.57-8.72,1.73-16.29c0.99-6.58,1.48-10.78,1.48-12.58
			c0-1.31-0.45-1.97-1.36-1.97c-1.07,0-2.59,1.38-4.56,4.13c-1.97,2.76-3.95,6.4-5.92,10.92c-1.97,4.52-3.58,9.3-4.81,14.31
			c-0.91,3.95-1.95,6.58-3.15,7.9c-1.19,1.32-3.11,1.97-5.74,1.97c-2.71,0-4.75-1.3-6.11-3.89c-1.36-2.59-2.04-5.74-2.04-9.44
			c0-3.13,0.41-7.65,1.23-13.57c0.66-5.26,0.99-8.72,0.99-10.36c0-1.31-0.45-1.97-1.36-1.97c-1.23,0-2.8,1.48-4.69,4.44
			c-1.89,2.96-3.72,6.75-5.49,11.35c-1.77,4.61-3.19,9.13-4.26,13.57c-0.91,3.87-1.95,6.48-3.15,7.84
			c-1.19,1.36-3.07,2.04-5.61,2.04C478.74,211.44,476.54,209.8,475.26,206.51z"/>
		<path class="st7" d="M670.76,194.66l10.73,11.85c1.89,1.97,2.84,4.03,2.84,6.17c0,2.05-0.82,3.76-2.47,5.12
			c-1.65,1.36-3.83,2.04-6.54,2.04c-3.78,0-6.66-1.15-8.64-3.45l-10.36-12.22c-9.71,4.85-19,7.28-27.88,7.28
			c-6.58,0-12.34-1.03-17.27-3.08c-4.93-2.05-8.74-4.89-11.41-8.51c-2.67-3.62-4.01-7.65-4.01-12.09c0-6,1.87-11.62,5.61-16.84
			c3.74-5.22,9.85-10.38,18.32-15.48c-4.77-8.72-7.16-16.41-7.16-23.07c0-5.92,1.23-11.15,3.7-15.67c2.47-4.52,5.9-8.02,10.3-10.49
			c4.4-2.47,9.44-3.7,15.11-3.7c7.24,0,12.85,2.08,16.84,6.23c3.99,4.15,5.98,9.85,5.98,17.09c0,6.01-1.75,11.66-5.24,16.96
			c-3.5,5.31-9.69,10.71-18.57,16.23c5.26,7.16,12.21,15.59,20.85,25.29c5.43-4.85,10.81-10.98,16.16-18.38
			c0.9-1.31,1.97-2.24,3.21-2.78c1.23-0.53,2.75-0.8,4.56-0.8c4.77,0,7.16,1.36,7.16,4.07c0,1.73-0.91,4.03-2.71,6.91
			C684.62,181.38,678.24,188.49,670.76,194.66z M647.56,193.68c-8.72-10.45-15.59-19.37-20.61-26.77c-9.3,6.09-13.94,12.42-13.94,19
			c0,3.79,1.44,6.73,4.32,8.82c2.88,2.1,6.83,3.15,11.85,3.15C635.6,197.87,641.72,196.47,647.56,193.68z M631.65,119.83
			c-2.22,2.92-3.33,6.56-3.33,10.92c0,5.18,1.73,10.86,5.18,17.03c6.42-3.78,10.77-7.44,13.08-10.98c2.3-3.53,3.46-7.4,3.46-11.6
			c0-3.04-0.78-5.43-2.34-7.16c-1.56-1.73-3.87-2.59-6.91-2.59C636.91,115.45,633.87,116.91,631.65,119.83z"/>
		<path class="st1" d="M758.24,206.07c-7.24-3.58-12.79-8.65-16.66-15.24c-3.87-6.58-5.8-14.23-5.8-22.95
			c0-12.09,2.28-22.83,6.85-32.2c4.56-9.38,10.75-16.63,18.57-21.78c7.81-5.14,16.49-7.71,26.03-7.71c8.88,0,15.63,2.28,20.23,6.85
			c4.61,4.57,6.91,10.59,6.91,18.08c0,5.02-0.89,9.05-2.65,12.09c-1.77,3.04-4.3,4.57-7.59,4.57c-2.3,0-4.11-0.53-5.43-1.6
			c-1.32-1.07-1.97-2.63-1.97-4.69c0-0.74,0.16-2.1,0.49-4.07c0.49-2.47,0.74-4.44,0.74-5.92c0-7.48-3.99-11.23-11.97-11.23
			c-5.43,0-10.61,1.77-15.54,5.31c-4.94,3.54-8.93,8.74-11.97,15.61c-3.04,6.87-4.57,15.03-4.57,24.49c0,9.87,2.75,17.5,8.27,22.89
			c5.51,5.39,13.65,8.08,24.43,8.08c5.35,0,10.75-0.68,16.23-2.04c5.47-1.36,11.54-3.43,18.2-6.23c1.23-0.49,2.26-0.74,3.08-0.74
			c1.32,0,2.3,0.49,2.96,1.48c0.66,0.99,0.99,2.26,0.99,3.83c0,5.02-2.71,8.72-8.14,11.1c-5.84,2.55-11.91,4.42-18.2,5.61
			c-6.29,1.19-12.28,1.79-17.95,1.79C773.99,211.44,765.47,209.65,758.24,206.07z"/>
		<path class="st1" d="M889.45,184.79c0.62,0.99,0.92,2.34,0.92,4.07c0,3.29-0.78,5.84-2.34,7.65c-3.79,4.36-7.67,7.94-11.66,10.73
			c-3.99,2.8-8.53,4.19-13.63,4.19c-4.19,0-7.36-1.21-9.5-3.64c-2.14-2.43-3.21-5.94-3.21-10.55c0-2.3,0.57-6.42,1.73-12.34
			c1.07-5.18,1.6-8.76,1.6-10.73c0-1.31-0.45-1.97-1.36-1.97c-1.07,0-2.59,1.38-4.57,4.13c-1.97,2.76-3.95,6.4-5.92,10.92
			c-1.97,4.52-3.58,9.3-4.81,14.31c-1.56,6.58-5.43,9.87-11.6,9.87c-2.47,0-4.09-0.88-4.87-2.65c-0.78-1.77-1.17-4.95-1.17-9.56
			c0-2.63,0.04-4.73,0.12-6.29l0.12-9.87c0-12.67,1.3-25.87,3.89-39.61c2.59-13.74,6.42-25.27,11.47-34.61
			c5.06-9.33,11.12-14,18.2-14c3.78,0,6.85,1.63,9.19,4.87c2.34,3.25,3.52,7.46,3.52,12.65c0,8.31-2.43,16.92-7.28,25.85
			c-4.85,8.93-12.75,19.35-23.69,31.28c-0.25,4.28-0.37,8.68-0.37,13.2c2.71-6.99,5.74-12.69,9.07-17.09
			c3.33-4.4,6.62-7.55,9.87-9.44c3.25-1.89,6.23-2.84,8.95-2.84c5.35,0,8.02,2.67,8.02,8.02c0,3.21-0.91,9.01-2.71,17.4
			c-1.56,7.16-2.34,11.89-2.34,14.19c0,3.29,1.19,4.93,3.58,4.93c1.64,0,3.6-1.01,5.86-3.02c2.26-2.01,5.28-5.28,9.07-9.81
			c0.99-1.15,2.1-1.73,3.33-1.73C887.99,183.31,888.83,183.8,889.45,184.79z M845.34,113.42c-1.81,4.24-3.56,9.95-5.24,17.15
			c-1.69,7.2-3.06,15.03-4.13,23.5c5.1-6,9.31-12.54,12.65-19.62c3.33-7.07,5-13.49,5-19.25c0-2.63-0.29-4.65-0.86-6.05
			c-0.58-1.4-1.4-2.1-2.47-2.1C848.8,107.06,847.15,109.18,845.34,113.42z"/>
		<path class="st1" d="M883.9,205.77c-2.43-3.78-3.64-8.8-3.64-15.05c0-3.7,0.47-8.45,1.42-14.25c0.95-5.8,2.16-11.21,3.64-16.23
			c0.74-2.63,1.73-4.44,2.96-5.43c1.23-0.99,3.21-1.48,5.92-1.48c4.19,0,6.29,1.4,6.29,4.19c0,2.06-0.78,6.83-2.34,14.31
			c-1.97,9.05-2.96,15.18-2.96,18.38c0,2.47,0.33,4.36,0.99,5.67c0.66,1.32,1.77,1.97,3.33,1.97c1.48,0,3.33-1.03,5.55-3.08
			c2.22-2.05,5.18-5.31,8.88-9.75c0.99-1.15,2.1-1.73,3.33-1.73c1.07,0,1.91,0.49,2.53,1.48c0.62,0.99,0.93,2.34,0.93,4.07
			c0,3.29-0.78,5.84-2.34,7.65c-8.14,9.95-15.75,14.93-22.83,14.93C890.21,211.44,886.32,209.55,883.9,205.77z M888.77,142.78
			c-1.73-1.6-2.59-3.84-2.59-6.72c0-2.88,1.13-5.28,3.39-7.22c2.26-1.93,5.08-2.9,8.45-2.9c3.04,0,5.51,0.74,7.4,2.22
			c1.89,1.48,2.84,3.58,2.84,6.29c0,3.29-1.07,5.9-3.21,7.83c-2.14,1.93-4.98,2.9-8.51,2.9
			C893.09,145.19,890.5,144.38,888.77,142.78z"/>
		<path class="st1" d="M960.02,184.79c0.62,0.99,0.93,2.34,0.93,4.07c0,3.29-0.78,5.84-2.34,7.65c-3.54,4.36-7.38,7.94-11.54,10.73
			c-4.15,2.8-8.86,4.19-14.13,4.19c-7.24,0-12.61-3.29-16.1-9.87c-3.5-6.58-5.24-15.09-5.24-25.54c0-10.03,1.3-21.47,3.89-34.3
			c2.59-12.83,6.42-23.85,11.47-33.07c5.06-9.21,11.08-13.82,18.08-13.82c3.95,0,7.05,1.83,9.31,5.49
			c2.26,3.66,3.39,8.91,3.39,15.73c0,9.79-2.71,21.14-8.14,34.05c-5.43,12.91-12.79,25.7-22.09,38.37c0.57,3.37,1.52,5.78,2.84,7.22
			c1.31,1.44,3.04,2.16,5.18,2.16c3.37,0,6.33-0.97,8.88-2.9c2.55-1.93,5.8-5.24,9.75-9.93c0.99-1.15,2.1-1.73,3.33-1.73
			C958.56,183.31,959.41,183.8,960.02,184.79z M935.9,117.3c-2.39,6.83-4.48,15.3-6.29,25.42c-1.81,10.12-2.8,19.82-2.96,29.12
			c5.84-9.62,10.49-19.27,13.94-28.93c3.45-9.66,5.18-18.48,5.18-26.46c0-6.25-1.15-9.38-3.45-9.38
			C940.43,107.06,938.29,110.48,935.9,117.3z"/>
		<path class="st1" d="M1022.33,184.79c0.62,0.99,0.92,2.34,0.92,4.07c0,3.29-0.78,5.84-2.34,7.65c-3.37,4.11-7.08,7.63-11.11,10.55
			c-4.03,2.92-8.02,4.38-11.97,4.38c-6.25,0-11.02-3.66-14.31-10.98c-3.46,4.36-6.48,7.28-9.07,8.76c-2.59,1.48-5.61,2.22-9.07,2.22
			c-5.02,0-9.15-1.87-12.4-5.61c-3.25-3.74-4.87-8.62-4.87-14.62c0-6.58,1.4-12.69,4.19-18.32c2.8-5.63,6.64-10.24,11.54-13.82
			c4.89-3.58,10.38-5.69,16.47-6.35c1.56-15.96,4.54-29.59,8.95-40.9c4.4-11.31,10.18-16.96,17.33-16.96c3.54,0,6.48,1.6,8.82,4.81
			c2.34,3.21,3.52,8.06,3.52,14.56c0,9.21-2.26,19.99-6.79,32.33c-4.52,12.34-10.57,25.01-18.14,38c0.33,4.77,1.05,8.19,2.16,10.24
			c1.11,2.06,2.53,3.08,4.26,3.08c2.22,0,4.48-0.99,6.79-2.96c2.3-1.97,5.39-5.26,9.25-9.87c0.99-1.15,2.1-1.73,3.33-1.73
			C1020.87,183.31,1021.71,183.8,1022.33,184.79z M974.4,197.07c1.56-1.27,3.53-3.64,5.92-7.09c-0.82-4.44-1.23-9.42-1.23-14.93
			c0-1.97,0.08-5.18,0.25-9.62c-4.52,1.4-8.29,4.42-11.29,9.07c-3,4.65-4.5,9.81-4.5,15.48c0,6.01,2.05,9.01,6.17,9.01
			C971.27,198.98,972.83,198.34,974.4,197.07z M1000.55,115.27c-1.56,5.55-2.9,12.81-4.01,21.78c-1.11,8.97-1.91,18.34-2.41,28.13
			c9.21-20.07,13.82-36.19,13.82-48.37c0-3.13-0.27-5.55-0.8-7.28c-0.54-1.73-1.17-2.59-1.91-2.59
			C1003.68,106.94,1002.11,109.71,1000.55,115.27z"/>
		<path class="st1" d="M1015.42,206.51c-1.28-3.29-1.91-8.55-1.91-15.79c0-10.69,1.52-20.85,4.57-30.47
			c0.74-2.38,1.95-4.13,3.64-5.24c1.68-1.11,4.05-1.67,7.09-1.67c1.64,0,2.8,0.21,3.46,0.62c0.66,0.41,0.99,1.19,0.99,2.34
			c0,1.32-0.62,4.28-1.85,8.88c-0.82,3.29-1.48,6.17-1.97,8.64c-0.49,2.47-0.91,5.51-1.23,9.13c2.71-7.07,5.76-12.83,9.13-17.27
			c3.37-4.44,6.68-7.61,9.93-9.5c3.25-1.89,6.23-2.84,8.95-2.84c5.35,0,8.02,2.67,8.02,8.02c0,1.07-0.37,3.66-1.11,7.77
			c-0.66,3.29-0.99,5.35-0.99,6.17c0,2.88,1.03,4.32,3.08,4.32c2.3,0,5.26-1.81,8.88-5.43c1.07-1.07,2.18-1.6,3.33-1.6
			c1.07,0,1.91,0.47,2.53,1.42c0.62,0.95,0.93,2.2,0.93,3.76c0,3.04-0.82,5.43-2.47,7.16c-2.3,2.39-5,4.42-8.08,6.11
			c-3.08,1.69-6.35,2.53-9.81,2.53c-4.36,0-7.67-1.11-9.93-3.33c-2.26-2.22-3.39-5.22-3.39-9.01c0-1.23,0.12-2.47,0.37-3.7
			c0.16-1.64,0.25-2.75,0.25-3.33c0-1.31-0.45-1.97-1.36-1.97c-1.23,0-2.86,1.38-4.87,4.13c-2.02,2.76-4.01,6.4-5.98,10.92
			c-1.97,4.52-3.58,9.3-4.81,14.31c-0.91,3.87-1.96,6.48-3.15,7.84c-1.19,1.36-3.06,2.04-5.61,2.04
			C1018.9,211.44,1016.7,209.8,1015.42,206.51z"/>
		<path class="st1" d="M1126.96,184.79c0.62,0.99,0.92,2.34,0.92,4.07c0,3.29-0.78,5.84-2.34,7.65c-3.04,3.7-7.34,7.11-12.89,10.24
			c-5.55,3.13-11.5,4.69-17.83,4.69c-8.64,0-15.34-2.34-20.11-7.03c-4.77-4.69-7.16-11.11-7.16-19.25c0-5.68,1.19-10.96,3.58-15.85
			c2.38-4.89,5.69-8.78,9.93-11.66c4.24-2.88,9.03-4.32,14.37-4.32c4.77,0,8.59,1.42,11.47,4.26c2.88,2.84,4.32,6.68,4.32,11.54
			c0,5.68-2.04,10.55-6.11,14.62c-4.07,4.07-10.96,7.3-20.67,9.69c2.06,3.78,5.96,5.68,11.72,5.68c3.7,0,7.92-1.3,12.65-3.89
			c4.73-2.59,8.82-5.98,12.28-10.18c0.99-1.15,2.1-1.73,3.33-1.73C1125.5,183.31,1126.34,183.8,1126.96,184.79z M1085.62,170.73
			c-2.1,3.54-3.15,7.82-3.15,12.83v0.25c4.85-1.15,8.68-2.88,11.47-5.18c2.8-2.3,4.19-4.98,4.19-8.02c0-1.56-0.43-2.82-1.3-3.76
			c-0.86-0.94-2.04-1.42-3.52-1.42C1090.29,165.42,1087.72,167.19,1085.62,170.73z"/>
		<path class="st1" d="M1120.05,206.51c-1.28-3.29-1.91-8.55-1.91-15.79c0-10.69,1.52-20.85,4.57-30.47
			c0.74-2.38,1.95-4.13,3.64-5.24c1.68-1.11,4.05-1.67,7.09-1.67c1.64,0,2.8,0.21,3.46,0.62c0.66,0.41,0.99,1.19,0.99,2.34
			c0,1.32-0.62,4.28-1.85,8.88c-0.82,3.29-1.48,6.17-1.97,8.64s-0.91,5.51-1.23,9.13c2.71-7.07,5.76-12.83,9.13-17.27
			c3.37-4.44,6.68-7.61,9.93-9.5c3.25-1.89,6.23-2.84,8.95-2.84c2.63,0,4.63,0.68,5.98,2.04c1.36,1.36,2.04,3.35,2.04,5.98
			c0,2.14-0.45,6.17-1.36,12.09c-0.82,5.02-1.48,9.77-1.97,14.25c-0.49,4.48-0.74,9.48-0.74,14.99c0,3.13-0.64,5.37-1.91,6.73
			c-1.28,1.36-3.35,2.04-6.23,2.04c-2.72,0-4.69-0.7-5.92-2.1c-1.23-1.4-1.85-3.49-1.85-6.29c0-3.29,0.57-8.72,1.73-16.29
			c0.99-6.58,1.48-10.78,1.48-12.58c0-1.31-0.45-1.97-1.36-1.97c-1.07,0-2.57,1.38-4.5,4.13c-1.93,2.76-3.91,6.4-5.92,10.92
			c-2.02,4.52-3.64,9.3-4.87,14.31c-0.91,3.87-1.96,6.48-3.15,7.84c-1.19,1.36-3.06,2.04-5.61,2.04
			C1123.52,211.44,1121.32,209.8,1120.05,206.51z"/>
	</g>
</g>
</svg>
