<svg xmlns="http://www.w3.org/2000/svg" xmlns:xlink="http://www.w3.org/1999/xlink" version="1.1" style="enable-background:new 0 0 1201 347;" xml:space="preserve" width="1143.8571467496909" height="272.7142907745981"><rect id="backgroundrect" width="100%" height="100%" x="0" y="0" fill="none" stroke="none" class="" style=""/>
<style type="text/css">
	.st0{fill:#FCDCBA;}
	.st1{fill:#391540;}
	.st2{fill:#DA9774;}
	.st3{fill:#F2F2F2;}
	.st4{fill:#D97E85;}
	.st5{fill:#F2B6BB;}
	.st6{fill:#FFFFFF;}
	.st7{fill:#9BBF95;}
</style>

<g class="currentLayer" style=""><title>Layer 1</title><g id="svg_1" class="">
	<g id="svg_2">
		<path class="st0" d="M47.651430206298826,234.4771434020996 c-6.17,-0.21000000000000002 -11.11,-5.28 -11.11,-11.51 c0,-3.88 1.9300000000000002,-7.32 4.87,-9.41 C42.18143020629883,220.9571434020996 44.341430206298824,228.00714340209962 47.651430206298826,234.4771434020996 z" id="svg_3"/>
		<path class="st1" d="M41.401430206298826,213.5571434020996 c0.78,7.41 2.94,14.45 6.24,20.92 c-6.17,-0.21000000000000002 -11.11,-5.28 -11.11,-11.51 C36.53143020629882,219.0771434020996 38.46143020629883,215.6471434020996 41.401430206298826,213.5571434020996 M45.18143020629883,205.2071434020996 l-6.45,4.57 c-4.27,3.03 -6.82,7.96 -6.82,13.18 c0,8.75 6.84,15.83 15.58,16.13 l7.85,0.26 l-3.5700000000000003,-6.99 c-3.12,-6.1 -5.06,-12.59 -5.76,-19.3 L45.18143020629883,205.2071434020996 L45.18143020629883,205.2071434020996 z" id="svg_4"/>
	</g>
	<path class="st2" d="M41.88143020629883,217.0271434020996 c-1.05,1.73 -1.6500000000000001,3.77 -1.6500000000000001,5.94 c0,4.74 2.8600000000000003,8.8 6.94,10.57 " id="svg_5"/>
	<g id="svg_6">
		<path class="st0" d="M170.16143020629883,234.4771434020996 c6.17,-0.21000000000000002 11.11,-5.28 11.11,-11.51 c0,-3.88 -1.9300000000000002,-7.32 -4.87,-9.41 C175.62143020629884,220.9571434020996 173.46143020629881,228.00714340209962 170.16143020629883,234.4771434020996 z" id="svg_7"/>
		<path class="st1" d="M176.40143020629884,213.5571434020996 c2.94,2.09 4.87,5.53 4.87,9.41 c0,6.23 -4.94,11.3 -11.11,11.51 C173.46143020629881,228.00714340209962 175.62143020629884,220.9571434020996 176.40143020629884,213.5571434020996 M172.63143020629883,205.2071434020996 l-0.8300000000000001,7.86 c-0.7000000000000001,6.71 -2.64,13.2 -5.76,19.3 l-3.5700000000000003,6.99 l7.85,-0.26 c8.74,-0.29000000000000004 15.58,-7.38 15.58,-16.13 c0,-5.22 -2.55,-10.15 -6.82,-13.18 L172.63143020629883,205.2071434020996 L172.63143020629883,205.2071434020996 z" id="svg_8"/>
	</g>
	<path class="st2" d="M170.63143020629883,233.53714340209962 c4.08,-1.7600000000000002 6.94,-5.83 6.94,-10.57 c0,-2.17 -0.6000000000000001,-4.21 -1.6500000000000001,-5.94 " id="svg_9"/>
	<path class="st0" d="M41.77143020629883,207.31714340209962 c0,3.68 0.36000000000000004,7.28 1.06,10.77 c5.63,28.31 33.02,49.8 65.95,49.8 c30.01,0 55.41,-17.84 63.95,-42.43 c0.55,-1.6 1.04,-3.24 1.45,-4.890000000000001 c1.06,-4.26 1.61,-8.7 1.61,-13.25 c0,-0.6200000000000001 -0.010000000000000002,-1.23 -0.030000000000000006,-1.83 c-0.47000000000000003,-14.34 -6.45,-27.42 -16.1,-37.58 c-5.95,-6.27 -13.29,-11.42 -21.59,-15.08 c-3.45,-1.52 -7.06,-2.77 -10.81,-3.75 c-1.71,-0.45 -3.45,-0.8200000000000001 -5.21,-1.1400000000000001 c-2.54,-0.47000000000000003 -5.13,-0.8 -7.75,-0.99 c-1.82,-0.14 -3.66,-0.21000000000000002 -5.52,-0.21000000000000002 c-0.7400000000000001,0 -1.48,0.010000000000000002 -2.21,0.04000000000000001 c-24.76,0.7200000000000001 -46.14,13.6 -57.05,32.24 c-4.76,8.14 -7.54,17.38 -7.73,27.18 C41.77143020629883,206.5771434020996 41.77143020629883,206.9471434020996 41.77143020629883,207.31714340209962 z" id="svg_10"/>
	<path class="st2" d="M41.77143020629883,207.31714340209962 c0,3.68 0.36000000000000004,7.28 1.06,10.77 c5.63,28.31 33.02,49.8 65.95,49.8 c30.01,0 55.41,-17.84 63.95,-42.43 c0.55,-1.6 1.04,-3.24 1.45,-4.890000000000001 c1.06,-4.26 1.61,-8.7 1.61,-13.25 c0,-0.6200000000000001 -0.010000000000000002,-1.23 -0.030000000000000006,-1.83 c-0.020000000000000004,-0.8200000000000001 -0.07,-1.6300000000000001 -0.14,-2.44 c-0.23,3.06 -0.7200000000000001,6.07 -1.44,8.98 c-0.41000000000000003,1.6600000000000001 -0.8900000000000001,3.29 -1.45,4.890000000000001 c-8.53,24.59 -33.93,42.43 -63.95,42.43 c-32.93,0 -60.32,-21.49 -65.95,-49.8 c-0.42000000000000004,-2.12 -0.7200000000000001,-4.29 -0.8900000000000001,-6.47 c-0.08000000000000002,1.03 -0.13,2.08 -0.15000000000000002,3.14 C41.77143020629883,206.5771434020996 41.77143020629883,206.9471434020996 41.77143020629883,207.31714340209962 z" id="svg_11"/>
	<path class="st1" d="M40.56143020629882,218.5471434020996 c-0.7300000000000001,-3.68 -1.1,-7.46 -1.1,-11.22 c0,-0.4 0,-0.8 0.020000000000000004,-1.1600000000000001 c0.19000000000000003,-9.85 2.98,-19.64 8.05,-28.31 c11.63,-19.87 34.23,-32.66 58.95,-33.38 c2.66,-0.11000000000000001 5.39,-0.030000000000000006 7.99,0.17 c2.6900000000000004,0.19000000000000003 5.38,0.53 8,1.02 c1.84,0.33000000000000007 3.6500000000000004,0.7300000000000001 5.38,1.18 c3.84,0.99 7.59,2.3 11.16,3.87 c8.57,3.77 16.09,9.02 22.33,15.6 c10.32,10.86 16.26,24.75 16.73,39.09 c0.020000000000000004,0.6400000000000001 0.030000000000000006,1.28 0.030000000000000006,1.92 c0,4.66 -0.56,9.31 -1.6800000000000002,13.8 c-0.42000000000000004,1.7000000000000002 -0.93,3.42 -1.51,5.1 c-9.13,26.31 -35.7,43.98 -66.13,43.98 C75.20143020629882,270.20714340209963 46.511430206298826,248.4771434020996 40.56143020629882,218.5471434020996 zM106.63143020629883,149.09714340209962 c-23.17,0.6800000000000002 -44.29,12.59 -55.12,31.1 c-4.74,8.1 -7.23,16.87 -7.42,26.11 c-0.010000000000000002,0.3400000000000001 -0.010000000000000002,0.6800000000000002 -0.010000000000000002,1.01 c0,3.46 0.3400000000000001,6.94 1.01,10.32 c5.52,27.78 32.3,47.93 63.68,47.93 c28.46,0 53.28,-16.43 61.76,-40.87 c0.54,-1.55 1,-3.13 1.3900000000000001,-4.69 c1.02,-4.13 1.54,-8.4 1.54,-12.69 c0,-0.5900000000000001 -0.010000000000000002,-1.17 -0.030000000000000006,-1.7600000000000002 c-0.43000000000000005,-13.21 -5.93,-26.02 -15.47,-36.06 c-5.82,-6.13 -12.83,-11.03 -20.84,-14.55 c-3.34,-1.47 -6.86,-2.6900000000000004 -10.46,-3.62 c-1.62,-0.42000000000000004 -3.31,-0.79 -5.05,-1.1 c-2.46,-0.46 -4.98,-0.78 -7.51,-0.9500000000000001 c-1.75,-0.13 -3.55,-0.2 -5.34,-0.2 C108.07143020629883,149.0571434020996 107.36143020629882,149.06714340209962 106.63143020629883,149.09714340209962 z" id="svg_12"/>
	<path class="st1" d="M82.08143020629883,235.5771434020996 c1.49,0 2.7,-1.21 2.7,-2.7 c0,-4.16 3.39,-7.55 7.55,-7.55 c4.16,0 7.55,3.39 7.55,7.55 c0,1.49 1.21,2.7 2.7,2.7 s2.7,-1.21 2.7,-2.7 c0,-7.14 -5.8100000000000005,-12.94 -12.94,-12.94 c-7.14,0 -12.94,5.8100000000000005 -12.94,12.94 C79.38143020629883,234.3671434020996 80.59143020629882,235.5771434020996 82.08143020629883,235.5771434020996 z" id="svg_13"/>
	<path class="st1" d="M115.43143020629884,235.5771434020996 c1.49,0 2.7,-1.21 2.7,-2.7 c0,-4.16 3.39,-7.55 7.55,-7.55 c4.16,0 7.55,3.39 7.55,7.55 c0,1.49 1.21,2.7 2.7,2.7 c1.49,0 2.7,-1.21 2.7,-2.7 c0,-7.14 -5.8100000000000005,-12.94 -12.94,-12.94 c-7.14,0 -12.94,5.8100000000000005 -12.94,12.94 C112.73143020629882,234.3671434020996 113.94143020629883,235.5771434020996 115.43143020629884,235.5771434020996 z" id="svg_14"/>
	<path class="st1" d="M108.95143020629882,255.96714340209962 c6.1,0 11.77,-3.27 14.8,-8.55 c0.7400000000000001,-1.29 0.30000000000000004,-2.94 -0.99,-3.68 c-1.29,-0.7400000000000001 -2.94,-0.30000000000000004 -3.68,0.99 c-2.07,3.6 -5.95,5.84 -10.12,5.84 s-8.05,-2.24 -10.12,-5.84 c-0.7400000000000001,-1.29 -2.39,-1.7400000000000002 -3.68,-0.99 c-1.29,0.7400000000000001 -1.7400000000000002,2.39 -0.99,3.68 C97.18143020629884,252.6871434020996 102.85143020629883,255.96714340209962 108.95143020629882,255.96714340209962 z" id="svg_15"/>
	<path class="st1" d="M165.39143020629882,56.267143402099606 c-0.6000000000000001,0 -1.19,-0.17 -1.7000000000000002,-0.51 c-10.39,-6.76 -21.96,-11.45 -34.41,-13.94 c-4.79,-0.9600000000000001 -9.66,-1.57 -14.47,-1.83 c-3.31,-0.2 -6.8,-0.23 -9.69,-0.11000000000000001 c-0.92,0.030000000000000006 -1.79,-0.33000000000000007 -2.41,-0.99 c-0.6200000000000001,-0.6700000000000002 -0.92,-1.57 -0.8200000000000001,-2.48 c1.9500000000000002,-17.62 16.81,-30.9 34.56,-30.9 c14.09,0 26.7,8.4 32.12,21.4 c1.6400000000000001,3.94 2.5300000000000002,8.08 2.6500000000000004,12.31 c0.020000000000000004,0.36000000000000004 0.020000000000000004,0.7200000000000001 0.020000000000000004,1.08 c0,4.92 -1.01,9.67 -2.99,14.12 c-0.37000000000000005,0.8400000000000001 -1.09,1.46 -1.97,1.7200000000000002 C165.99143020629882,56.227143402099614 165.69143020629883,56.267143402099606 165.39143020629882,56.267143402099606 zM108.82143020629883,33.55714340209961 c2.13,0 4.27,0.07 6.35,0.19000000000000003 c5.08,0.27 10.25,0.92 15.34,1.94 c11.92,2.39 23.11,6.68 33.29,12.77 c0.79,-2.63 1.18,-5.36 1.18,-8.16 c0,-0.24000000000000002 0,-0.49000000000000005 -0.010000000000000002,-0.7300000000000001 c0,-0.04000000000000001 -0.010000000000000002,-0.08000000000000002 -0.010000000000000002,-0.13 c-0.09000000000000002,-3.48 -0.8200000000000001,-6.890000000000001 -2.17,-10.13 c-4.45,-10.66 -14.79,-17.55 -26.35,-17.55 c-13.34,0 -24.69,9.15 -27.73,21.79 C108.75143020629883,33.55714340209961 108.79143020629883,33.55714340209961 108.82143020629883,33.55714340209961 z" id="svg_16"/>
	<g id="svg_17">
		<path class="st0" d="M191.48143020629882,158.9971434020996 c8.35,-0.28 15.03,-7.14 15.03,-15.56 c0,-5.25 -2.6100000000000003,-9.9 -6.59,-12.73 C198.87143020629884,140.7271434020996 195.95143020629882,150.25714340209962 191.48143020629882,158.9971434020996 z" id="svg_18"/>
		<path class="st1" d="M199.92143020629882,130.71714340209962 c3.98,2.8200000000000003 6.59,7.47 6.59,12.73 c0,8.42 -6.68,15.28 -15.03,15.56 C195.95143020629882,150.25714340209962 198.87143020629884,140.7271434020996 199.92143020629882,130.71714340209962 M194.82143020629883,119.4271434020996 l-1.12,10.63 c-0.9500000000000001,9.07 -3.5700000000000003,17.85 -7.79,26.09 l-4.83,9.45 l10.61,-0.36000000000000004 c11.82,-0.4 21.07,-9.98 21.07,-21.81 c0,-7.07 -3.45,-13.73 -9.22,-17.83 L194.82143020629883,119.4271434020996 L194.82143020629883,119.4271434020996 z" id="svg_19"/>
	</g>
	<path class="st2" d="M192.12143020629884,157.7271434020996 c5.52,-2.39 9.39,-7.88 9.39,-14.29 c0,-2.94 -0.81,-5.69 -2.23,-8.04 " id="svg_20"/>
	<g id="svg_21">
		<path class="st0" d="M25.821430206298828,158.9971434020996 c-8.35,-0.28 -15.03,-7.14 -15.03,-15.56 c0,-5.25 2.6100000000000003,-9.9 6.59,-12.73 C18.431430206298828,140.7271434020996 21.35143020629883,150.25714340209962 25.821430206298828,158.9971434020996 z" id="svg_22"/>
		<path class="st1" d="M17.38143020629883,130.71714340209962 c1.05,10.02 3.9699999999999998,19.54 8.44,28.29 c-8.35,-0.28 -15.03,-7.14 -15.03,-15.56 C10.791430206298827,138.18714340209962 13.391430206298828,133.53714340209962 17.38143020629883,130.71714340209962 M22.481430206298825,119.4271434020996 l-8.72,6.19 c-5.77,4.1 -9.22,10.76 -9.22,17.83 c0,11.83 9.26,21.41 21.07,21.81 l10.61,0.36000000000000004 l-4.83,-9.45 c-4.22,-8.25 -6.84,-17.02 -7.79,-26.09 L22.481430206298825,119.4271434020996 L22.481430206298825,119.4271434020996 z" id="svg_23"/>
	</g>
	<path class="st2" d="M18.02143020629883,135.40714340209962 c-1.42,2.34 -2.23,5.1 -2.23,8.04 c0,6.41 3.87,11.9 9.39,14.29 " id="svg_24"/>
	<path class="st0" d="M199.43143020629884,122.2771434020996 c0,4.97 -0.49000000000000005,9.84 -1.4300000000000002,14.57 c-7.61,38.28 -44.65,67.34 -89.18,67.34 c-40.58,0 -74.94,-24.13 -86.47,-57.37 c-0.7500000000000001,-2.17 -1.4100000000000001,-4.38 -1.96,-6.62 c-1.4300000000000002,-5.76 -2.18,-11.77 -2.18,-17.92 c0,-0.8300000000000001 0.010000000000000002,-1.6600000000000001 0.04000000000000001,-2.48 c0.6400000000000001,-19.39 8.72,-37.08 21.77,-50.82 c8.05,-8.47 17.97,-15.45 29.19,-20.39 c4.66,-2.05 9.55,-3.75 14.61,-5.07 c2.31,-0.6000000000000001 4.66,-1.12 7.05,-1.54 c3.43,-0.6400000000000001 6.93,-1.08 10.48,-1.33 c2.46,-0.19000000000000003 4.95,-0.28 7.46,-0.28 c1,0 2,0.010000000000000002 2.99,0.05000000000000001 c33.49,0.98 62.39,18.38 77.14,43.6 c6.44,11.01 10.19,23.5 10.45,36.76 C199.43143020629884,121.2771434020996 199.43143020629884,121.7771434020996 199.43143020629884,122.2771434020996 z" id="svg_25"/>
	<path class="st2" d="M199.43143020629884,122.2771434020996 c0,4.97 -0.49000000000000005,9.84 -1.4300000000000002,14.57 c-7.61,38.28 -44.65,67.34 -89.18,67.34 c-40.58,0 -74.94,-24.13 -86.47,-57.37 c-0.7500000000000001,-2.17 -1.4100000000000001,-4.38 -1.96,-6.62 c-1.4300000000000002,-5.76 -2.18,-11.77 -2.18,-17.92 c0,-0.8300000000000001 0.010000000000000002,-1.6600000000000001 0.04000000000000001,-2.48 c0.030000000000000006,-1.1 0.09000000000000002,-2.21 0.19000000000000003,-3.3 c0.31000000000000005,4.14 0.97,8.2 1.9500000000000002,12.14 c0.55,2.24 1.21,4.45 1.96,6.62 c11.54,33.25 45.89,57.37 86.47,57.37 c44.53,0 81.57,-29.06 89.18,-67.34 c0.5700000000000001,-2.87 0.97,-5.79 1.2,-8.75 c0.11000000000000001,1.4 0.18000000000000002,2.81 0.21000000000000002,4.24 C199.43143020629884,121.2771434020996 199.43143020629884,121.7771434020996 199.43143020629884,122.2771434020996 z" id="svg_26"/>
	<g id="svg_27">
		<path class="st3" d="M20.39143020629883,140.1971434020996 c-1.4300000000000002,-5.76 -2.18,-11.77 -2.18,-17.92 c0,-0.8300000000000001 0.010000000000000002,-1.6600000000000001 0.04000000000000001,-2.48 c0.6400000000000001,-19.39 8.72,-37.08 21.77,-50.82 c8.05,-8.47 17.97,-15.45 29.19,-20.39 c1.4300000000000002,5.76 2.18,11.77 2.18,17.92 C71.39143020629882,98.9071434020996 50.58143020629883,126.91714340209961 20.39143020629883,140.1971434020996 z" id="svg_28"/>
		<path class="st1" d="M19.321430206298828,142.37714340209962 l-0.45,-1.8 c-1.48,-5.96 -2.22,-12.11 -2.22,-18.29 c0,-0.8500000000000001 0.010000000000000002,-1.7000000000000002 0.04000000000000001,-2.54 c0.6200000000000001,-19.01 8.51,-37.42 22.2,-51.84 c8.3,-8.74 18.29,-15.72 29.7,-20.74 l1.7000000000000002,-0.7500000000000001 l0.45,1.8 c1.48,5.96 2.22,12.11 2.22,18.29 c0,31.76 -20.39,61.24 -51.94,75.12 L19.321430206298828,142.37714340209962 zM68.13143020629883,50.80714340209961 C57.82143020629883,55.58714340209961 48.751430206298835,62.05714340209961 41.16143020629883,70.05714340209961 c-13.17,13.86 -20.75,31.54 -21.34,49.79 c-0.030000000000000006,0.81 -0.04000000000000001,1.62 -0.04000000000000001,2.43 c0,5.3 0.5700000000000001,10.57 1.7000000000000002,15.71 c29.88,-13.84 48.35,-41.07 48.35,-71.48 C69.83143020629883,61.21714340209961 69.26143020629883,55.93714340209961 68.13143020629883,50.80714340209961 z" id="svg_29"/>
	</g>
	<g id="svg_30">
		<path class="st4" d="M95.01143020629883,66.5171434020996 c0,8.91 -1.57,17.5 -4.5,25.53 c-10.05,27.72 -36.03,48.93 -68.16,54.77 c-0.7500000000000001,-2.17 -1.4100000000000001,-4.38 -1.96,-6.62 c30.19,-13.28 51.01,-41.29 51.01,-73.68 c0,-6.15 -0.7500000000000001,-12.15 -2.18,-17.92 c4.66,-2.05 9.55,-3.75 14.61,-5.07 c2.31,-0.6000000000000001 4.66,-1.12 7.05,-1.54 C93.56143020629882,49.737143402099605 95.01143020629883,57.96714340209961 95.01143020629883,66.5171434020996 z" id="svg_31"/>
		<path class="st1" d="M21.31143020629883,148.59714340209962 l-0.44000000000000006,-1.27 c-0.77,-2.23 -1.44,-4.5 -2,-6.76 l-0.31000000000000005,-1.28 l1.2,-0.53 c30.89,-13.58 50.07,-41.27 50.07,-72.25 c0,-5.93 -0.7200000000000001,-11.83 -2.13,-17.54 l-0.32000000000000006,-1.28 l1.2,-0.53 c4.74,-2.09 9.74,-3.8200000000000003 14.85,-5.15 c2.31,-0.6000000000000001 4.72,-1.13 7.16,-1.57 l1.31,-0.24000000000000002 l0.44000000000000006,1.26 c2.8,8.07 4.22,16.5 4.22,25.04 c0,8.93 -1.55,17.7 -4.6,26.07 c-10.33,28.51 -36.9,49.88 -69.35,55.77 L21.31143020629883,148.59714340209962 zM22.231430206298825,141.0871434020996 c0.35000000000000003,1.32 0.7400000000000001,2.63 1.17,3.94 c30.75,-6.03 55.83,-26.43 65.64,-53.51 c2.93,-8.03 4.41,-16.44 4.41,-25 c0,-7.74 -1.22,-15.38 -3.62,-22.74 c-1.9100000000000001,0.37000000000000005 -3.79,0.8 -5.6,1.27 c-4.52,1.17 -8.95,2.67 -13.18,4.47 c1.27,5.55 1.92,11.27 1.92,17 C72.96143020629883,97.85714340209961 53.091430206298824,126.9971434020996 22.231430206298825,141.0871434020996 z" id="svg_32"/>
	</g>
	<g id="svg_33">
		<path class="st5" d="M71.39143020629882,66.5171434020996 c0,32.39 -20.81,60.41 -51.01,73.68 c-1.4300000000000002,-5.76 -2.18,-11.77 -2.18,-17.92 c0,-0.8300000000000001 0.010000000000000002,-1.6600000000000001 0.04000000000000001,-2.48 c13.05,-13.75 21.14,-31.43 21.77,-50.82 c8.05,-8.47 17.97,-15.45 29.19,-20.39 C70.64143020629882,54.35714340209961 71.39143020629882,60.367143402099614 71.39143020629882,66.5171434020996 z" id="svg_34"/>
		<path class="st1" d="M19.321430206298828,142.37714340209962 l-0.45,-1.8 c-1.48,-5.96 -2.22,-12.11 -2.22,-18.29 c0,-0.8500000000000001 0.010000000000000002,-1.7000000000000002 0.04000000000000001,-2.54 l0.020000000000000004,-0.5900000000000001 l0.41000000000000003,-0.43000000000000005 C30.28143020629883,104.85714340209961 37.861430206298834,87.16714340209961 38.46143020629883,68.9271434020996 l0.020000000000000004,-0.5900000000000001 l0.41000000000000003,-0.43000000000000005 c8.3,-8.74 18.29,-15.72 29.7,-20.74 l1.7000000000000002,-0.7500000000000001 l0.45,1.8 c1.48,5.96 2.22,12.11 2.22,18.29 c0,31.76 -20.39,61.24 -51.94,75.12 L19.321430206298828,142.37714340209962 zM19.791430206298827,120.44714340209961 c-0.020000000000000004,0.6100000000000001 -0.020000000000000004,1.22 -0.020000000000000004,1.84 c0,5.3 0.5700000000000001,10.57 1.7000000000000002,15.71 c29.88,-13.84 48.35,-41.07 48.35,-71.48 c0,-5.3 -0.5700000000000001,-10.57 -1.7000000000000002,-15.71 c-10.12,4.7 -19.05,11.02 -26.56,18.83 C40.80143020629883,88.2371434020996 33.091430206298824,106.2371434020996 19.791430206298827,120.44714340209961 z" id="svg_35"/>
	</g>
	<g id="svg_36">
		<path class="st4" d="M199.43143020629884,122.2771434020996 c0,4.97 -0.49000000000000005,9.84 -1.4300000000000002,14.57 c-7.94,2.05 -16.33,3.16 -25.01,3.16 c-36.64,0 -68.21,-19.67 -82.48,-47.96 c2.93,-8.04 4.5,-16.62 4.5,-25.53 c0,-8.55 -1.45,-16.78 -4.14,-24.52 c3.43,-0.6400000000000001 6.93,-1.08 10.48,-1.33 c2.46,-0.19000000000000003 4.95,-0.28 7.46,-0.28 c1,0 2,0.010000000000000002 2.99,0.05000000000000001 c33.49,0.98 62.39,18.38 77.14,43.6 c6.44,11.01 10.19,23.5 10.45,36.76 C199.43143020629884,121.2771434020996 199.43143020629884,121.7771434020996 199.43143020629884,122.2771434020996 z" id="svg_37"/>
		<path class="st1" d="M172.99143020629882,141.5771434020996 c-36,0 -68.92,-19.16 -83.88,-48.82 l-0.30000000000000004,-0.6000000000000001 l0.23,-0.6400000000000001 c2.92,-8.02 4.41,-16.44 4.41,-25 c0,-8.19 -1.36,-16.27 -4.05,-24.01 l-0.6000000000000001,-1.7200000000000002 l1.79,-0.33000000000000007 c3.5,-0.6500000000000001 7.09,-1.1 10.66,-1.36 c3.47,-0.27 7.1,-0.38000000000000006 10.63,-0.23 c32.91,0.9600000000000001 62.97,17.96 78.43,44.37 c6.82,11.65 10.41,24.27 10.67,37.52 c0.020000000000000004,0.49000000000000005 0.020000000000000004,1.01 0.020000000000000004,1.53 c0,4.99 -0.49000000000000005,10 -1.46,14.870000000000001 l-0.19000000000000003,0.9600000000000001 l-0.9500000000000001,0.25 C190.16143020629883,140.4971434020996 181.61143020629882,141.5771434020996 172.99143020629882,141.5771434020996 zM92.21143020629883,91.93714340209961 c14.57,28.27 46.19,46.51 80.78,46.51 c8.03,0 15.98,-0.9600000000000001 23.66,-2.87 c0.81,-4.37 1.21,-8.84 1.21,-13.3 c0,-0.48000000000000004 0,-0.9600000000000001 -0.020000000000000004,-1.44 c-0.25,-12.74 -3.7,-24.85 -10.24,-36.03 c-14.92,-25.48 -43.98,-41.89 -75.84,-42.82 c-3.48,-0.15000000000000002 -6.93,-0.030000000000000006 -10.29,0.23 c-2.8600000000000003,0.2 -5.73,0.54 -8.55,1 c2.42,7.54 3.64,15.37 3.64,23.3 C96.57143020629883,75.21714340209961 95.11143020629883,83.7671434020996 92.21143020629883,91.93714340209961 z" id="svg_38"/>
	</g>
	<g id="svg_39">
		<path class="st5" d="M199.41143020629883,120.7771434020996 c-2.46,0.19000000000000003 -4.96,0.28 -7.47,0.28 c-49.48,0 -89.7,-35.85 -90.58,-80.41 c2.46,-0.19000000000000003 4.95,-0.28 7.46,-0.28 c1,0 2,0.010000000000000002 2.99,0.05000000000000001 c33.49,0.98 62.39,18.38 77.14,43.6 C195.40143020629884,95.02714340209961 199.15143020629884,107.52714340209961 199.41143020629883,120.7771434020996 z" id="svg_40"/>
		<path class="st1" d="M191.94143020629883,122.62714340209962 c-24.3,0 -47.22,-8.48 -64.56,-23.89 c-17.36,-15.43 -27.15,-36.04 -27.59,-58.05 l-0.030000000000000006,-1.48 l1.47,-0.11000000000000001 c3.48,-0.27 7.11,-0.38000000000000006 10.64,-0.23 c32.91,0.9600000000000001 62.97,17.96 78.43,44.37 c6.82,11.65 10.41,24.27 10.67,37.52 l0.030000000000000006,1.48 l-1.47,0.11000000000000001 C197.04143020629883,122.5271434020996 194.49143020629882,122.62714340209962 191.94143020629883,122.62714340209962 zM102.97143020629883,42.10714340209961 c1.7200000000000002,42.81 41.29,77.39 88.97,77.39 c1.97,0 3.93,-0.06000000000000001 5.87,-0.18000000000000002 c-0.48000000000000004,-12.16 -3.91,-23.77 -10.2,-34.51 c-14.92,-25.48 -43.98,-41.89 -75.84,-42.82 C108.80143020629882,41.86714340209961 105.86143020629882,41.93714340209961 102.97143020629883,42.10714340209961 z" id="svg_41"/>
	</g>
	<g id="svg_42">
		<path class="st3" d="M188.96143020629881,84.0171434020996 c-33.49,-0.97 -62.39,-18.38 -77.14,-43.6 C145.30143020629882,41.40714340209961 174.20143020629882,58.80714340209961 188.96143020629881,84.0171434020996 z" id="svg_43"/>
		<path class="st1" d="M191.73143020629882,85.66714340209961 l-2.8200000000000003,-0.08000000000000002 c-32.93,-0.9500000000000001 -62.99,-17.95 -78.45,-44.37 l-1.4300000000000002,-2.44 l2.8200000000000003,0.08000000000000002 c32.93,0.9600000000000001 62.99,17.96 78.45,44.37 L191.73143020629882,85.66714340209961 zM114.68143020629884,42.11714340209961 c14.84,23.31 41.75,38.47 71.42,40.21 C171.26143020629883,59.02714340209961 144.35143020629883,43.86714340209961 114.68143020629884,42.11714340209961 z" id="svg_44"/>
	</g>
	<path class="st1" d="M108.82143020629883,207.31714340209962 c-41.14,0 -77.08,-23.9 -89.43,-59.48 c-0.79,-2.27 -1.47,-4.59 -2.04,-6.890000000000001 c-1.51,-6.08 -2.27,-12.36 -2.27,-18.66 c0,-0.8700000000000001 0.010000000000000002,-1.7400000000000002 0.04000000000000001,-2.6 c0.6400000000000001,-19.39 8.67,-38.16 22.63,-52.85 c8.45,-8.89 18.61,-15.99 30.2,-21.09 c4.82,-2.12 9.9,-3.88 15.09,-5.23 c2.34,-0.6100000000000001 4.8,-1.15 7.28,-1.59 c3.54,-0.6600000000000001 7.18,-1.12 10.82,-1.3800000000000001 c3.52,-0.27 7.21,-0.38000000000000006 10.8,-0.23 c33.43,0.98 63.98,18.27 79.71,45.14 c6.86,11.72 10.620000000000001,24.95 10.88,38.28 c0.020000000000000004,0.47000000000000003 0.020000000000000004,1.02 0.020000000000000004,1.56 c0,5.09 -0.5,10.2 -1.49,15.18 C193.02143020629882,177.93714340209962 154.23143020629882,207.31714340209962 108.82143020629883,207.31714340209962 zM108.82143020629883,43.49714340209961 c-2.43,0 -4.86,0.09000000000000002 -7.22,0.27 c-3.42,0.24000000000000002 -6.83,0.6700000000000002 -10.15,1.29 c-2.34,0.42000000000000004 -4.63,0.92 -6.83,1.49 c-4.87,1.26 -9.63,2.91 -14.14,4.9 c-10.83,4.77 -20.31,11.39 -28.19,19.68 c-12.9,13.58 -20.33,30.9 -20.91,48.77 c-0.030000000000000006,0.8 -0.04000000000000001,1.58 -0.04000000000000001,2.38 c0,5.8 0.7000000000000001,11.57 2.09,17.16 c0.52,2.12 1.15,4.25 1.8800000000000001,6.35 c11.47,33.06 45.04,55.27 83.52,55.27 c42.43,0 78.65,-27.26 86.12,-64.82 c0.91,-4.58 1.37,-9.27 1.37,-13.96 c0,-0.46 0,-0.91 -0.020000000000000004,-1.37 c-0.25,-12.5 -3.62,-24.36 -10.03,-35.31 c-14.65,-25.02 -43.21,-41.13 -74.54,-42.05 C110.73143020629882,43.50714340209961 109.78143020629884,43.49714340209961 108.82143020629883,43.49714340209961 z" id="svg_45"/>
	<path class="st1" d="M144.92143020629882,160.4871434020996 c-2.01,0 -3.6500000000000004,-1.6300000000000001 -3.6500000000000004,-3.6500000000000004 c0,-5.63 -4.58,-10.2 -10.2,-10.2 s-10.2,4.58 -10.2,10.2 c0,2.01 -1.6300000000000001,3.6500000000000004 -3.6500000000000004,3.6500000000000004 S113.57143020629883,158.8571434020996 113.57143020629883,156.8371434020996 c0,-9.65 7.85,-17.5 17.5,-17.5 s17.5,7.85 17.5,17.5 C148.57143020629883,158.8571434020996 146.93143020629884,160.4871434020996 144.92143020629882,160.4871434020996 z" id="svg_46"/>
	<path class="st1" d="M99.82143020629883,160.4871434020996 c-2.01,0 -3.6500000000000004,-1.6300000000000001 -3.6500000000000004,-3.6500000000000004 c0,-5.63 -4.58,-10.2 -10.2,-10.2 s-10.2,4.58 -10.2,10.2 c0,2.01 -1.6300000000000001,3.6500000000000004 -3.6500000000000004,3.6500000000000004 c-2.01,0 -3.6500000000000004,-1.6300000000000001 -3.6500000000000004,-3.6500000000000004 c0,-9.65 7.85,-17.5 17.5,-17.5 s17.5,7.85 17.5,17.5 C103.47143020629883,158.8571434020996 101.84143020629884,160.4871434020996 99.82143020629883,160.4871434020996 z" id="svg_47"/>
	<path class="st1" d="M108.59143020629884,188.06714340209962 c-8.24,0 -15.91,-4.43 -20.01,-11.56 c-1,-1.75 -0.4,-3.98 1.35,-4.98 c1.75,-1 3.98,-0.4 4.98,1.35 c2.8,4.87 8.04,7.9 13.68,7.9 s10.88,-3.03 13.68,-7.9 c1,-1.75 3.23,-2.35 4.98,-1.35 c1.75,1 2.35,3.23 1.35,4.98 C124.50143020629883,183.6371434020996 116.83143020629882,188.06714340209962 108.59143020629884,188.06714340209962 z" id="svg_48"/>
	<ellipse class="st5" cx="65.12143325805664" cy="167.79714584350586" rx="9.460000038146973" ry="4.860000133514404" id="svg_49"/>
	<ellipse class="st5" cx="151.24142837524414" cy="167.79714584350586" rx="9.460000038146973" ry="4.860000133514404" id="svg_50"/>
	<g id="svg_51">
		<path class="st3" d="M168.11143020629882,40.29714340209961 c0,3.16 -0.46,6.21 -1.33,9.09 c-0.5800000000000001,1.94 -2.8600000000000003,2.79 -4.61,1.75 c-9.69,-5.78 -20.59,-10.04 -32.29,-12.38 c-4.85,-0.97 -9.83,-1.62 -14.91,-1.8900000000000001 c-2.03,-0.13 -4.09,-0.19000000000000003 -6.16,-0.19000000000000003 c-0.010000000000000002,0 -0.030000000000000006,0 -0.04000000000000001,0 c-2.03,0 -3.58,-1.8800000000000001 -3.1,-3.8600000000000003 c3.35,-13.88 15.85,-24.19 30.77,-24.19 c13.17,0 24.46,8.04 29.23,19.48 c1.45,3.48 2.3,7.26 2.41,11.25 C168.11143020629882,39.67714340209961 168.11143020629882,39.98714340209961 168.11143020629882,40.29714340209961 z" id="svg_52"/>
		<path class="st1" d="M163.79143020629883,53.15714340209961 c-0.8400000000000001,0 -1.6700000000000002,-0.23 -2.41,-0.6700000000000002 c-9.74,-5.8100000000000005 -20.44,-9.92 -31.79,-12.19 c-4.86,-0.97 -9.81,-1.6 -14.69,-1.86 c-2,-0.12000000000000001 -4.04,-0.19000000000000003 -6.08,-0.19000000000000003 c0,0 0,0 0,0 c-1.51,0 -2.87,-0.6600000000000001 -3.7800000000000002,-1.81 c-0.8900000000000001,-1.13 -1.21,-2.58 -0.8700000000000001,-3.9699999999999998 c3.6100000000000003,-14.95 16.88,-25.39 32.29,-25.39 c13.46,0 25.5,8.02 30.68,20.44 c1.57,3.77 2.42,7.75 2.5300000000000002,11.81 c0.020000000000000004,0.28 0.020000000000000004,0.6300000000000001 0.020000000000000004,0.98 c0,3.25 -0.47000000000000003,6.46 -1.3900000000000001,9.54 c-0.41000000000000003,1.3800000000000001 -1.42,2.47 -2.77,2.99 C164.95143020629882,53.04714340209961 164.37143020629884,53.15714340209961 163.79143020629883,53.15714340209961 zM108.78143020629884,35.11714340209961 c2.13,0 4.24,0.06000000000000001 6.29,0.19000000000000003 c5.02,0.27 10.11,0.91 15.12,1.9100000000000001 c11.71,2.34 22.73,6.57 32.78,12.57 c0.43000000000000005,0.25 0.93,0.30000000000000004 1.4,0.12000000000000001 c0.26,-0.1 0.7200000000000001,-0.36000000000000004 0.91,-0.98 c0.8400000000000001,-2.79 1.26,-5.69 1.26,-8.64 c0,-0.28 0,-0.56 -0.020000000000000004,-0.8300000000000001 c-0.1,-3.74 -0.8700000000000001,-7.33 -2.29,-10.75 c-4.69,-11.25 -15.6,-18.52 -27.79,-18.52 c-13.95,0 -25.98,9.46 -29.25,22.99 c-0.15000000000000002,0.6200000000000001 0.12000000000000001,1.08 0.29000000000000004,1.3 C107.80143020629882,34.89714340209961 108.27143020629882,35.11714340209961 108.78143020629884,35.11714340209961 C108.78143020629884,35.11714340209961 108.78143020629884,35.11714340209961 108.78143020629884,35.11714340209961 z" id="svg_53"/>
	</g>
	<g id="svg_54">
		<path class="st5" d="M168.11143020629882,40.29714340209961 c0,4.58 -0.97,8.92 -2.72,12.84 c-10.46,-6.8100000000000005 -22.49,-11.78 -35.5,-14.38 c-4.85,-0.97 -9.83,-1.62 -14.91,-1.8900000000000001 c5.13,-10.57 15.96,-17.85 28.49,-17.85 c8.66,0 16.51,3.47 22.21,9.1 c1.45,3.48 2.3,7.26 2.41,11.25 C168.11143020629882,39.67714340209961 168.11143020629882,39.98714340209961 168.11143020629882,40.29714340209961 z" id="svg_55"/>
		<path class="st1" d="M166.07143020629883,55.44714340209961 l-1.53,-1 c-10.55,-6.86 -22.31,-11.63 -34.95,-14.16 c-4.86,-0.97 -9.81,-1.6 -14.69,-1.86 l-2.35,-0.13 l1.03,-2.12 c5.61,-11.56 17.06,-18.73 29.9,-18.73 c8.79,0 17.07,3.39 23.31,9.55 l0.22000000000000003,0.22000000000000003 l0.12000000000000001,0.29000000000000004 c1.57,3.77 2.42,7.75 2.5300000000000002,11.81 c0.020000000000000004,0.28 0.020000000000000004,0.6300000000000001 0.020000000000000004,0.98 c0,4.7 -0.9600000000000001,9.23 -2.8600000000000003,13.48 L166.07143020629883,55.44714340209961 zM117.50143020629883,35.46714340209961 c4.24,0.33000000000000007 8.5,0.91 12.7,1.7600000000000002 c12.4,2.48 23.98,7.05 34.46,13.59 c1.26,-3.35 1.8900000000000001,-6.88 1.8900000000000001,-10.52 c0,-0.28 0,-0.56 -0.020000000000000004,-0.8300000000000001 c-0.1,-3.63 -0.8300000000000001,-7.13 -2.17,-10.46 c-5.62,-5.44 -13.03,-8.43 -20.89,-8.43 C132.64143020629882,20.57714340209961 122.89143020629882,26.227143402099607 117.50143020629883,35.46714340209961 z" id="svg_56"/>
	</g>
	<g id="svg_57">
		<path class="st4" d="M168.11143020629882,40.29714340209961 c0,4.58 -0.97,8.92 -2.72,12.84 c-10.46,-6.8100000000000005 -22.49,-11.78 -35.5,-14.38 c5.24,-3.85 11.7,-6.12 18.71,-6.12 c7.35,0 14.12,2.5 19.49,6.72 C168.11143020629882,39.67714340209961 168.11143020629882,39.98714340209961 168.11143020629882,40.29714340209961 z" id="svg_58"/>
		<path class="st1" d="M166.07143020629883,55.44714340209961 l-1.53,-1 c-10.55,-6.86 -22.31,-11.63 -34.95,-14.16 l-3.48,-0.7000000000000001 l2.8600000000000003,-2.1 c5.73,-4.2 12.51,-6.42 19.63,-6.42 c7.51,0 14.59,2.44 20.46,7.06 l0.55,0.43000000000000005 l0.05000000000000001,0.6900000000000002 c0.020000000000000004,0.35000000000000003 0.020000000000000004,0.6900000000000002 0.020000000000000004,1.04 c0,4.7 -0.9600000000000001,9.23 -2.8600000000000003,13.48 L166.07143020629883,55.44714340209961 zM133.90143020629884,38.03714340209961 c11.01,2.6100000000000003 21.33,6.9 30.76,12.78 c1.26,-3.35 1.8900000000000001,-6.88 1.8900000000000001,-10.52 c0,-0.05000000000000001 0,-0.1 0,-0.15000000000000002 c-5.2,-3.89 -11.39,-5.95 -17.95,-5.95 C143.39143020629882,34.20714340209961 138.37143020629884,35.517143402099606 133.90143020629884,38.03714340209961 z" id="svg_59"/>
	</g>
	<g id="svg_60">
		<path class="st6" d="M250.19143020629883,192.2671434020996 c-1.32,-1.36 -1.97,-3.93 -1.97,-7.71 c0,-2.55 0.27,-5.82 0.8,-9.81 c0.53,-3.99 1.42,-9.48 2.6500000000000004,-16.47 c2.14,-12.91 3.83,-24.1 5.06,-33.56 c0.7400000000000001,-5.92 1.11,-10.86 1.11,-14.81 c0,-3.7 -1.36,-5.55 -4.07,-5.55 c-2.14,0 -4.71,1.09 -7.71,3.27 c-3,2.18 -6.3100000000000005,5.66 -9.93,10.43 c-1.15,1.56 -2.43,2.34 -3.83,2.34 c-1.15,0 -2.16,-0.56 -3.02,-1.6700000000000002 c-0.8600000000000001,-1.11 -1.29,-2.36 -1.29,-3.7600000000000002 c0,-1.31 0.27,-2.6500000000000004 0.8,-4.01 c0.53,-1.36 1.42,-2.9 2.6500000000000004,-4.63 c3.95,-5.51 8.35,-9.77 13.2,-12.77 c4.85,-3 9.7,-4.5 14.56,-4.5 c4.52,0 8,1.44 10.43,4.32 c2.43,2.88 3.64,7.08 3.64,12.58 c0,2.22 -0.21000000000000002,4.83 -0.6200000000000001,7.83 c-0.41000000000000003,3 -0.78,5.45 -1.11,7.34 c-0.33000000000000007,1.8900000000000001 -0.5800000000000001,3.21 -0.7400000000000001,3.95 c4.69,-13.41 9.95,-22.76 15.79,-28.07 c5.84,-5.3100000000000005 12.26,-7.96 19.25,-7.96 c5.35,0 9.56,1.8900000000000001 12.65,5.67 c3.08,3.79 4.63,9.13 4.63,16.04 c0,2.71 -0.37000000000000005,6.09 -1.11,10.12 c4.11,-11.35 8.92,-19.5 14.44,-24.43 c5.51,-4.94 11.84,-7.4 19,-7.4 c5.76,0 10.18,1.85 13.26,5.55 c3.08,3.7 4.63,8.88 4.63,15.55 c0,3.62 -0.54,8.02 -1.6,13.2 l-7.53,35.29 c-0.8200000000000001,4.11 -1.23,7.65 -1.23,10.61 c0,3.46 0.8,6.05 2.41,7.77 s3.84,2.59 6.72,2.59 c2.71,0 5.37,-0.9 7.96,-2.71 c2.59,-1.81 5.65,-4.8100000000000005 9.19,-9.01 c0.99,-1.15 2.1,-1.73 3.33,-1.73 c1.07,0 1.9100000000000001,0.49000000000000005 2.5300000000000002,1.48 c0.6200000000000001,0.99 0.92,2.34 0.92,4.07 c0,3.21 -0.78,5.76 -2.34,7.65 c-4.28,5.18 -8.51,8.97 -12.71,11.35 c-4.19,2.39 -8.6,3.58 -13.2,3.58 c-6.99,0 -12.46,-2.08 -16.41,-6.23 c-3.95,-4.15 -5.92,-9.73 -5.92,-16.72 c0,-4.85 0.99,-11.88 2.96,-21.1 l4.94,-22.58 c0.16000000000000003,-0.7400000000000001 0.45,-2.06 0.8600000000000001,-3.95 c0.41000000000000003,-1.8900000000000001 0.7400000000000001,-3.68 0.99,-5.37 c0.25,-1.6800000000000002 0.37000000000000005,-3.35 0.37000000000000005,-5 c0,-2.88 -0.56,-5.04 -1.6700000000000002,-6.48 c-1.11,-1.44 -2.7,-2.16 -4.75,-2.16 c-3.87,0 -7.92,2.49 -12.15,7.46 c-4.24,4.98 -8.27,13.22 -12.09,24.74 c-3.83,11.52 -6.93,26.49 -9.32,44.91 c-0.5800000000000001,4.94 -1.58,8.25 -3.02,9.93 c-1.44,1.6900000000000002 -3.7600000000000002,2.5300000000000002 -6.97,2.5300000000000002 c-2.8,0 -4.83,-0.6600000000000001 -6.11,-1.97 c-1.28,-1.31 -1.9100000000000001,-3.7800000000000002 -1.9100000000000001,-7.4 c0,-3.37 0.45,-7.79 1.36,-13.26 c0.9,-5.47 2.06,-11.91 3.46,-19.31 c3.7800000000000002,-19.9 5.68,-32.74 5.68,-38.5 c0,-3.13 -0.6000000000000001,-5.43 -1.79,-6.91 c-1.19,-1.48 -2.98,-2.22 -5.37,-2.22 c-4.03,0 -8.19,2.2800000000000002 -12.46,6.85 c-4.28,4.57 -8.45,12.67 -12.52,24.31 c-4.07,11.64 -7.46,27.37 -10.18,47.19 c-0.5800000000000001,4.19 -1.42,7.11 -2.5300000000000002,8.76 c-1.11,1.6500000000000001 -3.27,2.47 -6.48,2.47 C253.68143020629884,194.2971434020996 251.50143020629883,193.6171434020996 250.19143020629883,192.2671434020996 z" id="svg_61"/>
		<path class="st6" d="M451.42143020629885,157.40714340209962 c0.5700000000000001,1.07 0.8600000000000001,2.43 0.8600000000000001,4.07 c0,3.95 -1.19,6.29 -3.58,7.03 c-4.94,1.73 -10.36,2.71 -16.29,2.96 c-1.56,6.91 -4.65,12.44 -9.25,16.6 c-4.61,4.15 -9.83,6.23 -15.67,6.23 c-4.94,0 -9.15,-1.19 -12.65,-3.58 c-3.5,-2.38 -6.15,-5.55 -7.96,-9.5 c-1.81,-3.95 -2.71,-8.22 -2.71,-12.83 c0,-6.25 1.19,-11.82 3.58,-16.72 c2.38,-4.890000000000001 5.68,-8.72 9.870000000000001,-11.47 c4.19,-2.75 8.84,-4.13 13.94,-4.13 c6.25,0 11.29,2.16 15.11,6.48 c3.83,4.32 6.07,9.64 6.72,15.98 c3.87,-0.25 8.47,-1.07 13.82,-2.47 c0.6600000000000001,-0.16000000000000003 1.23,-0.25 1.73,-0.25 C450.0214302062988,155.8071434020996 450.8514302062988,156.3371434020996 451.42143020629885,157.40714340209962 zM415.3314302062988,178.0171434020996 c1.9300000000000002,-2.14 3.23,-5.22 3.89,-9.25 c-2.55,-1.73 -4.5,-3.99 -5.86,-6.79 c-1.36,-2.8 -2.04,-5.76 -2.04,-8.88 c0,-1.31 0.12000000000000001,-2.63 0.37000000000000005,-3.95 h-0.6200000000000001 c-3.29,0 -6.03,1.58 -8.21,4.75 c-2.18,3.17 -3.27,7.63 -3.27,13.39 c0,4.52 0.8800000000000001,7.98 2.6500000000000004,10.36 c1.77,2.39 3.84,3.58 6.23,3.58 C411.12143020629884,181.21714340209962 413.4014302062988,180.15714340209962 415.3314302062988,178.0171434020996 z" id="svg_62"/>
		<path class="st6" d="M443.8314302062988,189.3671434020996 c-1.28,-3.29 -1.9100000000000001,-8.55 -1.9100000000000001,-15.79 c0,-10.69 1.52,-20.85 4.5600000000000005,-30.47 c0.7400000000000001,-2.38 1.9500000000000002,-4.13 3.64,-5.24 c1.6800000000000002,-1.11 4.05,-1.6700000000000002 7.09,-1.6700000000000002 c1.6400000000000001,0 2.8,0.21000000000000002 3.45,0.6200000000000001 c0.6600000000000001,0.41000000000000003 0.99,1.19 0.99,2.34 c0,1.32 -0.6200000000000001,4.28 -1.85,8.88 c-0.8200000000000001,3.29 -1.48,6.15 -1.97,8.57 c-0.49000000000000005,2.43 -0.91,5.45 -1.23,9.07 c2.22,-6.42 4.87,-11.84 7.96,-16.29 c3.08,-4.44 6.25,-7.75 9.5,-9.93 c3.25,-2.18 6.3100000000000005,-3.27 9.19,-3.27 c2.88,0 4.91,0.6600000000000001 6.11,1.97 c1.19,1.32 1.79,3.33 1.79,6.04 c0,2.63 -0.78,7.4 -2.34,14.31 c-0.6600000000000001,2.96 -1.11,5.18 -1.36,6.66 c2.71,-6.91 5.74,-12.54 9.07,-16.9 c3.33,-4.36 6.6,-7.46 9.81,-9.31 c3.21,-1.85 6.17,-2.7800000000000002 8.88,-2.7800000000000002 c2.63,0 4.63,0.6800000000000002 5.98,2.04 c1.36,1.36 2.04,3.35 2.04,5.98 c0,2.14 -0.45,6.17 -1.36,12.09 c-0.8200000000000001,5.02 -1.48,9.77 -1.97,14.25 c-0.49000000000000005,4.48 -0.7400000000000001,9.48 -0.7400000000000001,14.99 c0,3.13 -0.6400000000000001,5.37 -1.9100000000000001,6.73 c-1.28,1.36 -3.35,2.04 -6.23,2.04 c-2.71,0 -4.69,-0.7000000000000001 -5.92,-2.1 c-1.23,-1.4 -1.85,-3.49 -1.85,-6.29 c0,-3.29 0.5700000000000001,-8.72 1.73,-16.29 c0.99,-6.58 1.48,-10.78 1.48,-12.58 c0,-1.31 -0.45,-1.97 -1.36,-1.97 c-1.07,0 -2.59,1.3800000000000001 -4.5600000000000005,4.13 c-1.97,2.7600000000000002 -3.95,6.4 -5.92,10.92 c-1.97,4.52 -3.58,9.3 -4.8100000000000005,14.31 c-0.91,3.95 -1.9500000000000002,6.58 -3.15,7.9 c-1.19,1.32 -3.11,1.97 -5.74,1.97 c-2.71,0 -4.75,-1.3 -6.11,-3.89 c-1.36,-2.59 -2.04,-5.74 -2.04,-9.44 c0,-3.13 0.41000000000000003,-7.65 1.23,-13.57 c0.6600000000000001,-5.26 0.99,-8.72 0.99,-10.36 c0,-1.31 -0.45,-1.97 -1.36,-1.97 c-1.23,0 -2.8,1.48 -4.69,4.44 c-1.8900000000000001,2.96 -3.72,6.75 -5.49,11.35 c-1.77,4.61 -3.19,9.13 -4.26,13.57 c-0.91,3.87 -1.9500000000000002,6.48 -3.15,7.84 c-1.19,1.36 -3.07,2.04 -5.61,2.04 C447.31143020629884,194.2971434020996 445.11143020629885,192.65714340209962 443.8314302062988,189.3671434020996 z" id="svg_63"/>
		<path class="st7" d="M639.3314302062988,177.5171434020996 l10.73,11.85 c1.8900000000000001,1.97 2.84,4.03 2.84,6.17 c0,2.05 -0.8200000000000001,3.7600000000000002 -2.47,5.12 c-1.6500000000000001,1.36 -3.83,2.04 -6.54,2.04 c-3.7800000000000002,0 -6.66,-1.15 -8.64,-3.45 l-10.36,-12.22 c-9.71,4.85 -19,7.28 -27.88,7.28 c-6.58,0 -12.34,-1.03 -17.27,-3.08 c-4.93,-2.05 -8.74,-4.890000000000001 -11.41,-8.51 c-2.67,-3.62 -4.01,-7.65 -4.01,-12.09 c0,-6 1.87,-11.620000000000001 5.61,-16.84 c3.74,-5.22 9.85,-10.38 18.32,-15.48 c-4.77,-8.72 -7.16,-16.41 -7.16,-23.07 c0,-5.92 1.23,-11.15 3.7,-15.67 c2.47,-4.52 5.9,-8.02 10.3,-10.49 c4.4,-2.47 9.44,-3.7 15.11,-3.7 c7.24,0 12.85,2.08 16.84,6.23 c3.99,4.15 5.98,9.85 5.98,17.09 c0,6.01 -1.75,11.66 -5.24,16.96 c-3.5,5.3100000000000005 -9.69,10.71 -18.57,16.23 c5.26,7.16 12.21,15.59 20.85,25.29 c5.43,-4.85 10.81,-10.98 16.16,-18.38 c0.9,-1.31 1.97,-2.24 3.21,-2.7800000000000002 c1.23,-0.53 2.75,-0.8 4.5600000000000005,-0.8 c4.77,0 7.16,1.36 7.16,4.07 c0,1.73 -0.91,4.03 -2.71,6.91 C653.1914302062988,164.2371434020996 646.8114302062988,171.34714340209962 639.3314302062988,177.5171434020996 zM616.1314302062988,176.53714340209962 c-8.72,-10.45 -15.59,-19.37 -20.61,-26.77 c-9.3,6.09 -13.94,12.42 -13.94,19 c0,3.79 1.44,6.73 4.32,8.82 c2.88,2.1 6.83,3.15 11.85,3.15 C604.1714302062989,180.7271434020996 610.2914302062989,179.3271434020996 616.1314302062988,176.53714340209962 zM600.2214302062988,102.68714340209961 c-2.22,2.92 -3.33,6.5600000000000005 -3.33,10.92 c0,5.18 1.73,10.86 5.18,17.03 c6.42,-3.7800000000000002 10.77,-7.44 13.08,-10.98 c2.3,-3.5300000000000002 3.46,-7.4 3.46,-11.6 c0,-3.04 -0.78,-5.43 -2.34,-7.16 c-1.56,-1.73 -3.87,-2.59 -6.91,-2.59 C605.4814302062988,98.30714340209961 602.4414302062988,99.7671434020996 600.2214302062988,102.68714340209961 z" id="svg_64"/>
		<path class="st6" d="M726.8114302062988,188.9271434020996 c-7.24,-3.58 -12.79,-8.65 -16.66,-15.24 c-3.87,-6.58 -5.8,-14.23 -5.8,-22.95 c0,-12.09 2.2800000000000002,-22.83 6.85,-32.2 c4.5600000000000005,-9.38 10.75,-16.63 18.57,-21.78 c7.8100000000000005,-5.14 16.49,-7.71 26.03,-7.71 c8.88,0 15.63,2.2800000000000002 20.23,6.85 c4.61,4.57 6.91,10.59 6.91,18.08 c0,5.02 -0.8900000000000001,9.05 -2.6500000000000004,12.09 c-1.77,3.04 -4.3,4.57 -7.59,4.57 c-2.3,0 -4.11,-0.53 -5.43,-1.6 c-1.32,-1.07 -1.97,-2.63 -1.97,-4.69 c0,-0.7400000000000001 0.16000000000000003,-2.1 0.49000000000000005,-4.07 c0.49000000000000005,-2.47 0.7400000000000001,-4.44 0.7400000000000001,-5.92 c0,-7.48 -3.99,-11.23 -11.97,-11.23 c-5.43,0 -10.61,1.77 -15.54,5.3100000000000005 c-4.94,3.54 -8.93,8.74 -11.97,15.61 c-3.04,6.87 -4.57,15.03 -4.57,24.49 c0,9.870000000000001 2.75,17.5 8.27,22.89 c5.51,5.39 13.65,8.08 24.43,8.08 c5.35,0 10.75,-0.6800000000000002 16.23,-2.04 c5.47,-1.36 11.54,-3.43 18.2,-6.23 c1.23,-0.49000000000000005 2.26,-0.7400000000000001 3.08,-0.7400000000000001 c1.32,0 2.3,0.49000000000000005 2.96,1.48 c0.6600000000000001,0.99 0.99,2.26 0.99,3.83 c0,5.02 -2.71,8.72 -8.14,11.1 c-5.84,2.55 -11.91,4.42 -18.2,5.61 c-6.29,1.19 -12.28,1.79 -17.95,1.79 C742.5614302062988,194.2971434020996 734.0414302062989,192.50714340209962 726.8114302062988,188.9271434020996 z" id="svg_65"/>
		<path class="st6" d="M858.0214302062989,167.6471434020996 c0.6200000000000001,0.99 0.92,2.34 0.92,4.07 c0,3.29 -0.78,5.84 -2.34,7.65 c-3.79,4.36 -7.67,7.94 -11.66,10.73 c-3.99,2.8 -8.53,4.19 -13.63,4.19 c-4.19,0 -7.36,-1.21 -9.5,-3.64 c-2.14,-2.43 -3.21,-5.94 -3.21,-10.55 c0,-2.3 0.5700000000000001,-6.42 1.73,-12.34 c1.07,-5.18 1.6,-8.76 1.6,-10.73 c0,-1.31 -0.45,-1.97 -1.36,-1.97 c-1.07,0 -2.59,1.3800000000000001 -4.57,4.13 c-1.97,2.7600000000000002 -3.95,6.4 -5.92,10.92 c-1.97,4.52 -3.58,9.3 -4.8100000000000005,14.31 c-1.56,6.58 -5.43,9.870000000000001 -11.6,9.870000000000001 c-2.47,0 -4.09,-0.8800000000000001 -4.87,-2.6500000000000004 c-0.78,-1.77 -1.17,-4.95 -1.17,-9.56 c0,-2.63 0.04000000000000001,-4.73 0.12000000000000001,-6.29 l0.12000000000000001,-9.870000000000001 c0,-12.67 1.3,-25.87 3.89,-39.61 c2.59,-13.74 6.42,-25.27 11.47,-34.61 c5.06,-9.33 11.12,-14 18.2,-14 c3.7800000000000002,0 6.85,1.6300000000000001 9.19,4.87 c2.34,3.25 3.52,7.46 3.52,12.65 c0,8.31 -2.43,16.92 -7.28,25.85 c-4.85,8.93 -12.75,19.35 -23.69,31.28 c-0.25,4.28 -0.37000000000000005,8.68 -0.37000000000000005,13.2 c2.71,-6.99 5.74,-12.69 9.07,-17.09 c3.33,-4.4 6.62,-7.55 9.870000000000001,-9.44 c3.25,-1.8900000000000001 6.23,-2.84 8.95,-2.84 c5.35,0 8.02,2.67 8.02,8.02 c0,3.21 -0.91,9.01 -2.71,17.4 c-1.56,7.16 -2.34,11.89 -2.34,14.19 c0,3.29 1.19,4.93 3.58,4.93 c1.6400000000000001,0 3.6,-1.01 5.86,-3.02 c2.26,-2.01 5.28,-5.28 9.07,-9.81 c0.99,-1.15 2.1,-1.73 3.33,-1.73 C856.5614302062988,166.1671434020996 857.4014302062989,166.65714340209962 858.0214302062989,167.6471434020996 zM813.9114302062989,96.27714340209961 c-1.81,4.24 -3.56,9.95 -5.24,17.15 c-1.6900000000000002,7.2 -3.06,15.03 -4.13,23.5 c5.1,-6 9.31,-12.54 12.65,-19.62 c3.33,-7.07 5,-13.49 5,-19.25 c0,-2.63 -0.29000000000000004,-4.65 -0.8600000000000001,-6.05 c-0.5800000000000001,-1.4 -1.4,-2.1 -2.47,-2.1 C817.3714302062988,89.91714340209961 815.7214302062988,92.03714340209962 813.9114302062989,96.27714340209961 z" id="svg_66"/>
		<path class="st6" d="M852.4714302062988,188.62714340209962 c-2.43,-3.7800000000000002 -3.64,-8.8 -3.64,-15.05 c0,-3.7 0.47000000000000003,-8.45 1.42,-14.25 c0.9500000000000001,-5.8 2.16,-11.21 3.64,-16.23 c0.7400000000000001,-2.63 1.73,-4.44 2.96,-5.43 c1.23,-0.99 3.21,-1.48 5.92,-1.48 c4.19,0 6.29,1.4 6.29,4.19 c0,2.06 -0.78,6.83 -2.34,14.31 c-1.97,9.05 -2.96,15.18 -2.96,18.38 c0,2.47 0.33000000000000007,4.36 0.99,5.67 c0.6600000000000001,1.32 1.77,1.97 3.33,1.97 c1.48,0 3.33,-1.03 5.55,-3.08 c2.22,-2.05 5.18,-5.3100000000000005 8.88,-9.75 c0.99,-1.15 2.1,-1.73 3.33,-1.73 c1.07,0 1.9100000000000001,0.49000000000000005 2.5300000000000002,1.48 c0.6200000000000001,0.99 0.93,2.34 0.93,4.07 c0,3.29 -0.78,5.84 -2.34,7.65 c-8.14,9.95 -15.75,14.93 -22.83,14.93 C858.7814302062989,194.2971434020996 854.8914302062989,192.40714340209962 852.4714302062988,188.62714340209962 zM857.3414302062988,125.63714340209961 c-1.73,-1.6 -2.59,-3.84 -2.59,-6.72 c0,-2.88 1.13,-5.28 3.39,-7.22 c2.26,-1.9300000000000002 5.08,-2.9 8.45,-2.9 c3.04,0 5.51,0.7400000000000001 7.4,2.22 c1.8900000000000001,1.48 2.84,3.58 2.84,6.29 c0,3.29 -1.07,5.9 -3.21,7.83 c-2.14,1.9300000000000002 -4.98,2.9 -8.51,2.9 C861.6614302062989,128.0471434020996 859.0714302062988,127.2371434020996 857.3414302062988,125.63714340209961 z" id="svg_67"/>
		<path class="st6" d="M928.5914302062988,167.6471434020996 c0.6200000000000001,0.99 0.93,2.34 0.93,4.07 c0,3.29 -0.78,5.84 -2.34,7.65 c-3.54,4.36 -7.38,7.94 -11.54,10.73 c-4.15,2.8 -8.86,4.19 -14.13,4.19 c-7.24,0 -12.61,-3.29 -16.1,-9.870000000000001 c-3.5,-6.58 -5.24,-15.09 -5.24,-25.54 c0,-10.03 1.3,-21.47 3.89,-34.3 c2.59,-12.83 6.42,-23.85 11.47,-33.07 c5.06,-9.21 11.08,-13.82 18.08,-13.82 c3.95,0 7.05,1.83 9.31,5.49 c2.26,3.66 3.39,8.91 3.39,15.73 c0,9.79 -2.71,21.14 -8.14,34.05 c-5.43,12.91 -12.79,25.7 -22.09,38.37 c0.5700000000000001,3.37 1.52,5.78 2.84,7.22 c1.31,1.44 3.04,2.16 5.18,2.16 c3.37,0 6.33,-0.97 8.88,-2.9 c2.55,-1.9300000000000002 5.8,-5.24 9.75,-9.93 c0.99,-1.15 2.1,-1.73 3.33,-1.73 C927.1314302062988,166.1671434020996 927.9814302062988,166.65714340209962 928.5914302062988,167.6471434020996 zM904.4714302062988,100.1571434020996 c-2.39,6.83 -4.48,15.3 -6.29,25.42 c-1.81,10.12 -2.8,19.82 -2.96,29.12 c5.84,-9.620000000000001 10.49,-19.27 13.94,-28.93 c3.45,-9.66 5.18,-18.48 5.18,-26.46 c0,-6.25 -1.15,-9.38 -3.45,-9.38 C909.0014302062988,89.91714340209961 906.8614302062988,93.33714340209961 904.4714302062988,100.1571434020996 z" id="svg_68"/>
		<path class="st6" d="M990.9014302062989,167.6471434020996 c0.6200000000000001,0.99 0.92,2.34 0.92,4.07 c0,3.29 -0.78,5.84 -2.34,7.65 c-3.37,4.11 -7.08,7.63 -11.11,10.55 c-4.03,2.92 -8.02,4.38 -11.97,4.38 c-6.25,0 -11.02,-3.66 -14.31,-10.98 c-3.46,4.36 -6.48,7.28 -9.07,8.76 c-2.59,1.48 -5.61,2.22 -9.07,2.22 c-5.02,0 -9.15,-1.87 -12.4,-5.61 c-3.25,-3.74 -4.87,-8.620000000000001 -4.87,-14.620000000000001 c0,-6.58 1.4,-12.69 4.19,-18.32 c2.8,-5.63 6.640000000000001,-10.24 11.54,-13.82 c4.890000000000001,-3.58 10.38,-5.69 16.47,-6.35 c1.56,-15.96 4.54,-29.59 8.95,-40.9 c4.4,-11.31 10.18,-16.96 17.33,-16.96 c3.54,0 6.48,1.6 8.82,4.8100000000000005 c2.34,3.21 3.52,8.06 3.52,14.56 c0,9.21 -2.26,19.99 -6.79,32.33 c-4.52,12.34 -10.57,25.01 -18.14,38 c0.33000000000000007,4.77 1.05,8.19 2.16,10.24 c1.11,2.06 2.5300000000000002,3.08 4.26,3.08 c2.22,0 4.48,-0.99 6.79,-2.96 c2.3,-1.97 5.39,-5.26 9.25,-9.870000000000001 c0.99,-1.15 2.1,-1.73 3.33,-1.73 C989.4414302062988,166.1671434020996 990.2814302062989,166.65714340209962 990.9014302062989,167.6471434020996 zM942.9714302062988,179.9271434020996 c1.56,-1.27 3.5300000000000002,-3.64 5.92,-7.09 c-0.8200000000000001,-4.44 -1.23,-9.42 -1.23,-14.93 c0,-1.97 0.08000000000000002,-5.18 0.25,-9.620000000000001 c-4.52,1.4 -8.29,4.42 -11.29,9.07 c-3,4.65 -4.5,9.81 -4.5,15.48 c0,6.01 2.05,9.01 6.17,9.01 C939.8414302062988,181.8371434020996 941.4014302062989,181.1971434020996 942.9714302062988,179.9271434020996 zM969.1214302062988,98.1271434020996 c-1.56,5.55 -2.9,12.81 -4.01,21.78 c-1.11,8.97 -1.9100000000000001,18.34 -2.41,28.13 c9.21,-20.07 13.82,-36.19 13.82,-48.37 c0,-3.13 -0.27,-5.55 -0.8,-7.28 c-0.54,-1.73 -1.17,-2.59 -1.9100000000000001,-2.59 C972.2514302062988,89.7971434020996 970.6814302062988,92.5671434020996 969.1214302062988,98.1271434020996 z" id="svg_69"/>
		<path class="st6" d="M983.9914302062988,189.3671434020996 c-1.28,-3.29 -1.9100000000000001,-8.55 -1.9100000000000001,-15.79 c0,-10.69 1.52,-20.85 4.57,-30.47 c0.7400000000000001,-2.38 1.9500000000000002,-4.13 3.64,-5.24 c1.6800000000000002,-1.11 4.05,-1.6700000000000002 7.09,-1.6700000000000002 c1.6400000000000001,0 2.8,0.21000000000000002 3.46,0.6200000000000001 c0.6600000000000001,0.41000000000000003 0.99,1.19 0.99,2.34 c0,1.32 -0.6200000000000001,4.28 -1.85,8.88 c-0.8200000000000001,3.29 -1.48,6.17 -1.97,8.64 c-0.49000000000000005,2.47 -0.91,5.51 -1.23,9.13 c2.71,-7.07 5.76,-12.83 9.13,-17.27 c3.37,-4.44 6.68,-7.61 9.93,-9.5 c3.25,-1.8900000000000001 6.23,-2.84 8.95,-2.84 c5.35,0 8.02,2.67 8.02,8.02 c0,1.07 -0.37000000000000005,3.66 -1.11,7.77 c-0.6600000000000001,3.29 -0.99,5.35 -0.99,6.17 c0,2.88 1.03,4.32 3.08,4.32 c2.3,0 5.26,-1.81 8.88,-5.43 c1.07,-1.07 2.18,-1.6 3.33,-1.6 c1.07,0 1.9100000000000001,0.47000000000000003 2.5300000000000002,1.42 c0.6200000000000001,0.9500000000000001 0.93,2.2 0.93,3.7600000000000002 c0,3.04 -0.8200000000000001,5.43 -2.47,7.16 c-2.3,2.39 -5,4.42 -8.08,6.11 c-3.08,1.6900000000000002 -6.35,2.5300000000000002 -9.81,2.5300000000000002 c-4.36,0 -7.67,-1.11 -9.93,-3.33 c-2.26,-2.22 -3.39,-5.22 -3.39,-9.01 c0,-1.23 0.12000000000000001,-2.47 0.37000000000000005,-3.7 c0.16000000000000003,-1.6400000000000001 0.25,-2.75 0.25,-3.33 c0,-1.31 -0.45,-1.97 -1.36,-1.97 c-1.23,0 -2.8600000000000003,1.3800000000000001 -4.87,4.13 c-2.02,2.7600000000000002 -4.01,6.4 -5.98,10.92 c-1.97,4.52 -3.58,9.3 -4.8100000000000005,14.31 c-0.91,3.87 -1.96,6.48 -3.15,7.84 c-1.19,1.36 -3.06,2.04 -5.61,2.04 C987.4714302062988,194.2971434020996 985.2714302062989,192.65714340209962 983.9914302062988,189.3671434020996 z" id="svg_70"/>
		<path class="st6" d="M1095.5314302062989,167.6471434020996 c0.6200000000000001,0.99 0.92,2.34 0.92,4.07 c0,3.29 -0.78,5.84 -2.34,7.65 c-3.04,3.7 -7.34,7.11 -12.89,10.24 c-5.55,3.13 -11.5,4.69 -17.83,4.69 c-8.64,0 -15.34,-2.34 -20.11,-7.03 c-4.77,-4.69 -7.16,-11.11 -7.16,-19.25 c0,-5.68 1.19,-10.96 3.58,-15.85 c2.38,-4.890000000000001 5.69,-8.78 9.93,-11.66 c4.24,-2.88 9.03,-4.32 14.37,-4.32 c4.77,0 8.59,1.42 11.47,4.26 c2.88,2.84 4.32,6.68 4.32,11.54 c0,5.68 -2.04,10.55 -6.11,14.620000000000001 c-4.07,4.07 -10.96,7.3 -20.67,9.69 c2.06,3.7800000000000002 5.96,5.68 11.72,5.68 c3.7,0 7.92,-1.3 12.65,-3.89 c4.73,-2.59 8.82,-5.98 12.28,-10.18 c0.99,-1.15 2.1,-1.73 3.33,-1.73 C1094.0714302062988,166.1671434020996 1094.9114302062987,166.65714340209962 1095.5314302062989,167.6471434020996 zM1054.1914302062987,153.5871434020996 c-2.1,3.54 -3.15,7.82 -3.15,12.83 v0.25 c4.85,-1.15 8.68,-2.88 11.47,-5.18 c2.8,-2.3 4.19,-4.98 4.19,-8.02 c0,-1.56 -0.43000000000000005,-2.8200000000000003 -1.3,-3.7600000000000002 c-0.8600000000000001,-0.9400000000000001 -2.04,-1.42 -3.52,-1.42 C1058.8614302062988,148.2771434020996 1056.2914302062989,150.0471434020996 1054.1914302062987,153.5871434020996 z" id="svg_71"/>
		<path class="st6" d="M1088.6214302062988,189.3671434020996 c-1.28,-3.29 -1.9100000000000001,-8.55 -1.9100000000000001,-15.79 c0,-10.69 1.52,-20.85 4.57,-30.47 c0.7400000000000001,-2.38 1.9500000000000002,-4.13 3.64,-5.24 c1.6800000000000002,-1.11 4.05,-1.6700000000000002 7.09,-1.6700000000000002 c1.6400000000000001,0 2.8,0.21000000000000002 3.46,0.6200000000000001 c0.6600000000000001,0.41000000000000003 0.99,1.19 0.99,2.34 c0,1.32 -0.6200000000000001,4.28 -1.85,8.88 c-0.8200000000000001,3.29 -1.48,6.17 -1.97,8.64 s-0.91,5.51 -1.23,9.13 c2.71,-7.07 5.76,-12.83 9.13,-17.27 c3.37,-4.44 6.68,-7.61 9.93,-9.5 c3.25,-1.8900000000000001 6.23,-2.84 8.95,-2.84 c2.63,0 4.63,0.6800000000000002 5.98,2.04 c1.36,1.36 2.04,3.35 2.04,5.98 c0,2.14 -0.45,6.17 -1.36,12.09 c-0.8200000000000001,5.02 -1.48,9.77 -1.97,14.25 c-0.49000000000000005,4.48 -0.7400000000000001,9.48 -0.7400000000000001,14.99 c0,3.13 -0.6400000000000001,5.37 -1.9100000000000001,6.73 c-1.28,1.36 -3.35,2.04 -6.23,2.04 c-2.72,0 -4.69,-0.7000000000000001 -5.92,-2.1 c-1.23,-1.4 -1.85,-3.49 -1.85,-6.29 c0,-3.29 0.5700000000000001,-8.72 1.73,-16.29 c0.99,-6.58 1.48,-10.78 1.48,-12.58 c0,-1.31 -0.45,-1.97 -1.36,-1.97 c-1.07,0 -2.5700000000000003,1.3800000000000001 -4.5,4.13 c-1.9300000000000002,2.7600000000000002 -3.91,6.4 -5.92,10.92 c-2.02,4.52 -3.64,9.3 -4.87,14.31 c-0.91,3.87 -1.96,6.48 -3.15,7.84 c-1.19,1.36 -3.06,2.04 -5.61,2.04 C1092.0914302062988,194.2971434020996 1089.8914302062988,192.65714340209962 1088.6214302062988,189.3671434020996 z" id="svg_72"/>
	</g>
</g></g></svg>