<svg xmlns="http://www.w3.org/2000/svg" xmlns:xlink="http://www.w3.org/1999/xlink" version="1.1" style="enable-background:new 0 0 310.4 310.4;" xml:space="preserve" width="198.85714026211053" height="168.42856831453275"><rect id="backgroundrect" width="100%" height="100%" x="0" y="0" fill="none" stroke="none" style="" class=""/>
<style type="text/css">
	.st0{fill:#FCDCBA;}
	.st1{fill:#391540;}
	.st2{fill:#DA9774;}
	.st3{fill:#F2F2F2;}
	.st4{fill:#D97E85;}
	.st5{fill:#F2B6BB;}
</style>

<g class="currentLayer" style=""><title>Layer 1</title><g id="svg_1" class="">
	<g id="svg_2">
		<path class="st0" d="M19.609520721435544,118.0190414428711 c-8,-0.30000000000000004 -14.4,-6.8 -14.4,-14.9 c0,-5 2.5,-9.5 6.3,-12.2 C12.50952072143555,100.5190414428711 15.309520721435547,109.6190414428711 19.609520721435544,118.0190414428711 z" id="svg_3"/>
		<path class="st1" d="M11.50952072143555,90.9190414428711 c1,9.6 3.8,18.7 8.1,27.1 c-8,-0.30000000000000004 -14.4,-6.8 -14.4,-14.9 C5.109520721435544,98.1190414428711 7.609520721435544,93.6190414428711 11.50952072143555,90.9190414428711 M16.40952072143554,80.1190414428711 l-8.4,5.9 c-5.5,3.9 -8.8,10.3 -8.8,17.1 c0,11.3 8.9,20.5 20.2,20.9 l10.2,0.30000000000000004 l-4.6,-9.1 c-4,-7.9 -6.6,-16.3 -7.5,-25 L16.40952072143554,80.1190414428711 L16.40952072143554,80.1190414428711 z" id="svg_4"/>
	</g>
	<path class="st2" d="M12.109520721435544,95.4190414428711 c-1.4,2.2 -2.1,4.9 -2.1,7.7 c0,6.1 3.7,11.4 9,13.7 " id="svg_5"/>
	<g id="svg_6">
		<path class="st0" d="M178.40952072143554,118.0190414428711 c8,-0.30000000000000004 14.4,-6.8 14.4,-14.9 c0,-5 -2.5,-9.5 -6.3,-12.2 C185.50952072143554,100.5190414428711 182.70952072143555,109.6190414428711 178.40952072143554,118.0190414428711 z" id="svg_7"/>
		<path class="st1" d="M186.50952072143554,90.9190414428711 c3.8,2.7 6.3,7.2 6.3,12.2 c0,8.1 -6.4,14.7 -14.4,14.9 C182.70952072143555,109.6190414428711 185.50952072143554,100.5190414428711 186.50952072143554,90.9190414428711 M181.60952072143556,80.1190414428711 l-1.1,10.2 c-0.9,8.7 -3.4,17.1 -7.5,25 l-4.6,9.1 l10.2,-0.30000000000000004 c11.3,-0.4 20.2,-9.6 20.2,-20.9 c0,-6.8 -3.3,-13.2 -8.8,-17.1 L181.60952072143556,80.1190414428711 L181.60952072143556,80.1190414428711 z" id="svg_8"/>
	</g>
	<path class="st2" d="M179.10952072143556,116.81904144287108 c5.3,-2.3 9,-7.6 9,-13.7 c0,-2.8 -0.8,-5.5 -2.1,-7.7 " id="svg_9"/>
	<path class="st0" d="M11.909520721435541,82.81904144287108 c0,4.8 0.5,9.4 1.4,14 c7.3,36.7 42.8,64.6 85.5,64.6 c38.9,0 71.9,-23.1 82.9,-55 c0.7000000000000001,-2.1 1.3,-4.2 1.9,-6.3 c1.4,-5.5 2.1,-11.3 2.1,-17.2 c0,-0.8 0,-1.6 0,-2.4 c-0.6000000000000001,-18.6 -8.4,-35.6 -20.9,-48.7 c-7.7,-8.1 -17.2,-14.8 -28,-19.6 c-4.5,-2 -9.2,-3.6 -14,-4.9 c-2.2,-0.6000000000000001 -4.5,-1.1 -6.8,-1.5 c-3.3,-0.6000000000000001 -6.6,-1 -10.1,-1.3 c-2.4,-0.2 -4.7,-0.30000000000000004 -7.2,-0.30000000000000004 c-1,0 -1.9,0 -2.9,0 c-32.1,0.9 -59.8,17.6 -74,41.8 c-6.2,10.6 -9.8,22.5 -10,35.3 C11.909520721435541,81.81904144287108 11.909520721435541,82.31904144287108 11.909520721435541,82.81904144287108 z" id="svg_10"/>
	<path class="st2" d="M11.909520721435541,82.81904144287108 c0,4.8 0.5,9.4 1.4,14 c7.3,36.7 42.8,64.6 85.5,64.6 c38.9,0 71.9,-23.1 82.9,-55 c0.7000000000000001,-2.1 1.3,-4.2 1.9,-6.3 c1.4,-5.5 2.1,-11.3 2.1,-17.2 c0,-0.8 0,-1.6 0,-2.4 c0,-1.1 -0.1,-2.1 -0.2,-3.2 c-0.30000000000000004,4 -0.9,7.9 -1.9,11.6 c-0.5,2.1 -1.2,4.3 -1.9,6.3 c-11.1,31.9 -44,55 -82.9,55 c-42.7,0 -78.2,-27.9 -85.5,-64.6 c-0.5,-2.7 -0.9,-5.6 -1.1,-8.4 c-0.1,1.3 -0.2,2.7 -0.2,4.1 C11.909520721435541,81.81904144287108 11.909520721435541,82.31904144287108 11.909520721435541,82.81904144287108 z" id="svg_11"/>
	<path class="st1" d="M10.409520721435541,97.4190414428711 c-0.9,-4.8 -1.4,-9.7 -1.4,-14.6 c0,-0.5 0,-1 0,-1.5 c0.30000000000000004,-12.8 3.9,-25.5 10.4,-36.7 C34.50952072143555,18.819041442871097 63.80952072143555,2.219041442871088 95.80952072143555,1.3190414428710966 c3.4,-0.1 7,0 10.4,0.2 c3.5,0.2 7,0.7000000000000001 10.4,1.3 c2.4,0.4 4.7,0.9 7,1.5 c5,1.3 9.8,3 14.5,5 c11.1,4.9 20.9,11.7 29,20.2 c13.4,14.1 21.1,32.1 21.7,50.7 c0,0.8 0,1.7000000000000002 0,2.5 c0,6 -0.7000000000000001,12.1 -2.2,17.9 c-0.5,2.2 -1.2,4.4 -2,6.6 c-11.8,34.1 -46.3,57 -85.8,57 C55.30952072143555,164.4190414428711 18.109520721435544,136.2190414428711 10.409520721435541,97.4190414428711 zM96.10952072143556,7.319041442871097 c-30,0.9 -57.4,16.3 -71.5,40.3 c-6.1,10.5 -9.4,21.9 -9.6,33.9 c0,0.4 0,0.9 0,1.3 c0,4.5 0.4,9 1.3,13.4 c7.2,36 41.9,62.2 82.6,62.2 c36.9,0 69.1,-21.3 80.1,-53 c0.7000000000000001,-2 1.3,-4.1 1.8,-6.1 c1.3,-5.4 2,-10.9 2,-16.5 c0,-0.8 0,-1.5 0,-2.3 c-0.6000000000000001,-17.1 -7.7,-33.7 -20.1,-46.8 c-7.6,-8 -16.6,-14.3 -27,-18.9 c-4.3,-1.9 -8.9,-3.5 -13.6,-4.7 c-2.1,-0.5 -4.3,-1 -6.5,-1.4 c-3.2,-0.6000000000000001 -6.5,-1 -9.7,-1.2 c-2.3,-0.2 -4.6,-0.30000000000000004 -6.9,-0.30000000000000004 C97.90952072143554,7.219041442871088 97.00952072143554,7.319041442871097 96.10952072143556,7.319041442871097 z" id="svg_12"/>
	<path class="st1" d="M64.20952072143555,119.4190414428711 c1.9,0 3.5,-1.6 3.5,-3.5 c0,-5.4 4.4,-9.8 9.8,-9.8 s9.8,4.4 9.8,9.8 c0,1.9 1.6,3.5 3.5,3.5 c1.9,0 3.5,-1.6 3.5,-3.5 c0,-9.3 -7.5,-16.8 -16.8,-16.8 s-16.8,7.5 -16.8,16.8 C60.70952072143555,117.9190414428711 62.30952072143555,119.4190414428711 64.20952072143555,119.4190414428711 z" id="svg_13"/>
	<path class="st1" d="M107.50952072143554,119.4190414428711 c1.9,0 3.5,-1.6 3.5,-3.5 c0,-5.4 4.4,-9.8 9.8,-9.8 s9.8,4.4 9.8,9.8 c0,1.9 1.6,3.5 3.5,3.5 c1.9,0 3.5,-1.6 3.5,-3.5 c0,-9.3 -7.5,-16.8 -16.8,-16.8 s-16.8,7.5 -16.8,16.8 C104.00952072143554,117.9190414428711 105.50952072143554,119.4190414428711 107.50952072143554,119.4190414428711 z" id="svg_14"/>
	<path class="st1" d="M99.10952072143556,145.9190414428711 c7.9,0 15.3,-4.2 19.2,-11.1 c1,-1.7000000000000002 0.4,-3.8 -1.3,-4.8 c-1.7000000000000002,-1 -3.8,-0.4 -4.8,1.3 c-2.7,4.7 -7.7,7.6 -13.1,7.6 s-10.4,-2.9 -13.1,-7.6 c-1,-1.7000000000000002 -3.1,-2.3 -4.8,-1.3 c-1.7000000000000002,1 -2.3,3.1 -1.3,4.8 C83.80952072143555,141.6190414428711 91.20952072143555,145.9190414428711 99.10952072143556,145.9190414428711 z" id="svg_15"/>
</g></g></svg>