<svg xmlns="http://www.w3.org/2000/svg" height="410" width="512" style=""><rect id="backgroundrect" width="100%" height="100%" x="0" y="0" fill="none" stroke="none" class="" style=""/><g class="currentLayer" style=""><title>Layer 1</title><path d="m0 113.292969h113.292969v-113.292969h-113.292969zm30.003906-83.289063h53.289063v53.289063h-53.289063zm0 0" id="svg_1" class="" fill="#ffffff" fill-opacity="1"/><path d="m149.296875 0v113.292969h362.703125v-113.292969zm332.699219 83.292969h-302.695313v-53.289063h302.695313zm0 0" id="svg_2" class="" fill="#ffffff" fill-opacity="1"/><path d="m0 260.300781h113.292969v-113.292969h-113.292969zm30.003906-83.292969h53.289063v53.289063h-53.289063zm0 0" id="svg_3" class="" fill="#ffffff" fill-opacity="1"/><path d="m149.296875 260.300781h362.703125v-113.292969h-362.703125zm30.003906-83.292969h302.695313v53.289063h-302.695313zm0 0" id="svg_4" class="" fill="#ffffff" fill-opacity="1"/><path d="m0 407.308594h113.292969v-113.296875h-113.292969zm30.003906-83.292969h53.289063v53.289063h-53.289063zm0 0" id="svg_5" class="" fill="#ffffff" fill-opacity="1"/><path d="m149.296875 407.308594h362.703125v-113.296875h-362.703125zm30.003906-83.292969h302.695313v53.289063h-302.695313zm0 0" id="svg_6" class="" fill="#ffffff" fill-opacity="1"/></g></svg>