<?xml version="1.0" encoding="utf-8"?>
<!-- Generator: Adobe Illustrator 23.0.5, SVG Export Plug-In . SVG Version: 6.00 Build 0)  -->
<svg version="1.1" id="Capa_1" xmlns="http://www.w3.org/2000/svg" xmlns:xlink="http://www.w3.org/1999/xlink" x="0px" y="0px"
	 viewBox="0 0 414 310.4" style="enable-background:new 0 0 414 310.4;" xml:space="preserve">
<g>
	<path d="M149.5,209.1L149.5,209.1C149.6,209.1,149.6,209.1,149.5,209.1l171.8,0c4.2,0,7.9-2.8,9.1-6.9l37.9-132.6
		c1-3.5-0.1-7.3-2.9-9.8c-1.8-1.6-4.2-2.3-6.6-2.3l-218.9,0c-7.2,0-13.4-5-15-12l-4.1-18.5c-1-4.3-4.8-7.4-9.2-7.4l-56.5,0
		c-4.7,0-9,3.4-9.7,8.1c-0.8,5.9,3.7,10.9,9.4,10.9l36.8,0c7.3,0,13.6,5,15.2,12.2c7.9,35.3,30,135,31.5,141.8
		c-10.8,4.7-18.2,16-17,28.8c1.4,14.7,14.1,25.7,28.9,25.7H321c4.7,0,9-3.4,9.7-8.1c0.8-5.9-3.7-10.9-9.4-10.9H149.6
		c-6.2,0-11.1-6.1-9-12.6C141.8,211.7,145.5,209.1,149.5,209.1z M342.4,91.6l-25.8,90.3c-1.4,4.9-5.9,8.3-11,8.3H166.4
		c-5.4,0-10-3.7-11.2-9L135,90.5c-1.6-7.2,3.9-14,11.2-14H331C338.8,76.5,344.5,84,342.4,91.6z"/>
	<ellipse transform="matrix(0.1602 -0.9871 0.9871 0.1602 -117.4289 386.6272)" cx="168.5" cy="262.3" rx="28.4" ry="28.4"/>
	<ellipse transform="matrix(0.1602 -0.9871 0.9871 0.1602 -4.9894 518.784)" cx="302.4" cy="262.3" rx="28.4" ry="28.4"/>
	<path d="M277.1,138.9c8,0,11.7,9.8,5.9,15.2c-11.5,10.6-26.8,17-43.6,17s-32.1-6.4-43.6-17c-5.9-5.4-2.1-15.2,5.9-15.2H277.1z"/>
	<circle cx="200.5" cy="109.2" r="13.6"/>
	<circle cx="274.3" cy="109.2" r="13.6"/>
</g>
</svg>
