<svg xmlns="http://www.w3.org/2000/svg" xmlns:xlink="http://www.w3.org/1999/xlink" version="1.1" style="" xml:space="preserve" width="207.1428524717992" height="205.23809048053613"><rect id="backgroundrect" width="100%" height="100%" x="0" y="0" fill="none" stroke="none" style="" class=""/>
<style type="text/css">
	.st0{fill:#FCDCBA;}
	.st1{fill:#391540;}
	.st2{fill:#DA9774;}
	.st3{fill:#F2F2F2;}
	.st4{fill:#D97E85;}
	.st5{fill:#F2B6BB;}
</style>

<g class="currentLayer" style=""><title>Layer 1</title><g id="svg_1" class="">
	<path class="st1" d="M158.56666412353516,51.76666412353515 c-0.6000000000000001,0 -1.2,-0.2 -1.7000000000000002,-0.5 c-10.4,-6.8 -22,-11.4 -34.4,-13.9 c-4.8,-1 -9.7,-1.6 -14.5,-1.8 c-3.3,-0.2 -6.8,-0.2 -9.7,-0.1 c-0.9,0 -1.8,-0.30000000000000004 -2.4,-1 c-0.6000000000000001,-0.7000000000000001 -0.9,-1.6 -0.8,-2.5 c1.9,-17.6 16.8,-30.9 34.6,-30.9 c14.1,0 26.7,8.4 32.1,21.4 c1.6,3.9 2.5,8.1 2.6,12.3 c0,0.4 0,0.7000000000000001 0,1.1 c0,4.9 -1,9.7 -3,14.1 c-0.4,0.8 -1.1,1.5 -2,1.7000000000000002 C159.16666412353516,51.666664123535156 158.86666412353514,51.76666412353515 158.56666412353516,51.76666412353515 zM102.06666412353516,28.966664123535153 c2.1,0 4.3,0.1 6.4,0.2 c5.1,0.30000000000000004 10.2,0.9 15.3,1.9 c11.9,2.4 23.1,6.7 33.3,12.8 c0.8,-2.6 1.2,-5.4 1.2,-8.2 c0,-0.2 0,-0.5 0,-0.7000000000000001 c0,0 0,-0.1 0,-0.1 c-0.1,-3.5 -0.8,-6.9 -2.2,-10.1 c-4.4,-10.7 -14.8,-17.6 -26.3,-17.6 C116.36666412353514,7.266664123535158 104.96666412353517,16.36666412353516 102.06666412353516,28.966664123535153 C101.96666412353517,28.966664123535153 101.96666412353517,28.966664123535153 102.06666412353516,28.966664123535153 z" id="svg_2"/>
	<g id="svg_3">
		<path class="st0" d="M184.66666412353516,154.46666412353517 c8.3,-0.30000000000000004 15,-7.1 15,-15.6 c0,-5.3 -2.6,-9.9 -6.6,-12.7 C192.06666412353516,136.16666412353516 189.16666412353516,145.66666412353516 184.66666412353516,154.46666412353517 z" id="svg_4"/>
		<path class="st1" d="M193.16666412353516,126.16666412353516 c4,2.8 6.6,7.5 6.6,12.7 c0,8.4 -6.7,15.3 -15,15.6 C189.16666412353516,145.66666412353516 192.06666412353516,136.16666412353516 193.16666412353516,126.16666412353516 M188.06666412353516,114.86666412353514 l-1.1,10.6 c-1,9.1 -3.6,17.8 -7.8,26.1 l-4.8,9.5 l10.6,-0.4 c11.8,-0.4 21.1,-10 21.1,-21.8 c0,-7.1 -3.4,-13.7 -9.2,-17.8 L188.06666412353516,114.86666412353514 L188.06666412353516,114.86666412353514 z" id="svg_5"/>
	</g>
	<path class="st2" d="M185.36666412353514,153.16666412353516 c5.5,-2.4 9.4,-7.9 9.4,-14.3 c0,-2.9 -0.8,-5.7 -2.2,-8 " id="svg_6"/>
	<g id="svg_7">
		<path class="st0" d="M19.066664123535162,154.46666412353517 c-8.3,-0.30000000000000004 -15,-7.1 -15,-15.6 c0,-5.3 2.6,-9.9 6.6,-12.7 C11.666664123535156,136.16666412353516 14.566664123535162,145.66666412353516 19.066664123535162,154.46666412353517 z" id="svg_8"/>
		<path class="st1" d="M10.566664123535155,126.16666412353516 c1.1,10 4,19.5 8.4,28.3 c-8.3,-0.30000000000000004 -15,-7.1 -15,-15.6 C3.9666641235351534,133.66666412353516 6.566664123535155,128.96666412353517 10.566664123535155,126.16666412353516 M15.666664123535156,114.86666412353514 l-8.7,6.2 c-5.8,4.1 -9.2,10.8 -9.2,17.8 c0,11.8 9.3,21.4 21.1,21.8 l10.6,0.4 l-4.8,-9.5 c-4.2,-8.2 -6.8,-17 -7.8,-26.1 L15.666664123535156,114.86666412353514 L15.666664123535156,114.86666412353514 z" id="svg_9"/>
	</g>
	<path class="st2" d="M11.26666412353515,130.86666412353514 c-1.4,2.3 -2.2,5.1 -2.2,8 c0,6.4 3.9,11.9 9.4,14.3 " id="svg_10"/>
	<path class="st0" d="M192.66666412353516,117.76666412353515 c0,5 -0.5,9.8 -1.4,14.6 c-7.6,38.3 -44.6,67.3 -89.2,67.3 c-40.6,0 -74.9,-24.1 -86.5,-57.4 c-0.8,-2.2 -1.4,-4.4 -2,-6.6 c-1.4,-5.8 -2.2,-11.8 -2.2,-17.9 c0,-0.8 0,-1.7000000000000002 0,-2.5 c0.6000000000000001,-19.4 8.7,-37.1 21.8,-50.8 c8,-8.5 18,-15.4 29.2,-20.4 c4.7,-2.1 9.5,-3.8 14.6,-5.1 c2.3,-0.6000000000000001 4.7,-1.1 7,-1.5 c3.4,-0.6000000000000001 6.9,-1.1 10.5,-1.3 c2.5,-0.2 5,-0.30000000000000004 7.5,-0.30000000000000004 c1,0 2,0 3,0.1 c33.5,1 62.4,18.4 77.1,43.6 c6.4,11 10.2,23.5 10.5,36.8 C192.66666412353516,116.76666412353515 192.66666412353516,117.26666412353515 192.66666412353516,117.76666412353515 z" id="svg_11"/>
	<path class="st2" d="M192.66666412353516,117.76666412353515 c0,5 -0.5,9.8 -1.4,14.6 c-7.6,38.3 -44.6,67.3 -89.2,67.3 c-40.6,0 -74.9,-24.1 -86.5,-57.4 c-0.8,-2.2 -1.4,-4.4 -2,-6.6 c-1.4,-5.8 -2.2,-11.8 -2.2,-17.9 c0,-0.8 0,-1.7000000000000002 0,-2.5 c0,-1.1 0.1,-2.2 0.2,-3.3 c0.30000000000000004,4.1 1,8.2 1.9,12.1 c0.6000000000000001,2.2 1.2,4.5 2,6.6 c11.5,33.2 45.9,57.4 86.5,57.4 c44.5,0 81.6,-29.1 89.2,-67.3 c0.6000000000000001,-2.9 1,-5.8 1.2,-8.8 c0.1,1.4 0.2,2.8 0.2,4.2 C192.66666412353516,116.76666412353515 192.66666412353516,117.26666412353515 192.66666412353516,117.76666412353515 z" id="svg_12"/>
	<g id="svg_13">
		<path class="st3" d="M13.566664123535162,135.66666412353516 c-1.4,-5.8 -2.2,-11.8 -2.2,-17.9 c0,-0.8 0,-1.7000000000000002 0,-2.5 c0.6000000000000001,-19.4 8.7,-37.1 21.8,-50.8 c8,-8.5 18,-15.4 29.2,-20.4 c1.4,5.8 2.2,11.8 2.2,17.9 C64.56666412353516,94.36666412353514 43.76666412353515,122.36666412353514 13.566664123535162,135.66666412353516 z" id="svg_14"/>
		<path class="st1" d="M12.566664123535162,137.86666412353514 l-0.4,-1.8 c-1.5,-6 -2.2,-12.1 -2.2,-18.3 c0,-0.9 0,-1.7000000000000002 0,-2.5 c0.6000000000000001,-19 8.5,-37.4 22.2,-51.8 c8.3,-8.7 18.3,-15.7 29.7,-20.7 l1.7000000000000002,-0.7000000000000001 l0.4,1.8 c1.5,6 2.2,12.1 2.2,18.3 c0,31.8 -20.4,61.2 -51.9,75.1 L12.566664123535162,137.86666412353514 zM61.36666412353516,46.26666412353515 c-10.3,4.8 -19.4,11.3 -27,19.3 c-13.2,13.9 -20.7,31.5 -21.3,49.8 c0,0.8 0,1.6 0,2.4 c0,5.3 0.6000000000000001,10.6 1.7000000000000002,15.7 c29.9,-13.8 48.4,-41.1 48.4,-71.5 C63.06666412353516,56.666664123535156 62.46666412353515,51.36666412353516 61.36666412353516,46.26666412353515 z" id="svg_15"/>
	</g>
	<g id="svg_16">
		<path class="st4" d="M88.26666412353515,61.96666412353515 c0,8.9 -1.6,17.5 -4.5,25.5 c-10,27.7 -36,48.9 -68.2,54.8 c-0.8,-2.2 -1.4,-4.4 -2,-6.6 c30.2,-13.3 51,-41.3 51,-73.7 c0,-6.1 -0.8,-12.2 -2.2,-17.9 c4.7,-2.1 9.5,-3.8 14.6,-5.1 c2.3,-0.6000000000000001 4.7,-1.1 7,-1.5 C86.76666412353515,45.166664123535156 88.26666412353515,53.46666412353515 88.26666412353515,61.96666412353515 z" id="svg_17"/>
		<path class="st1" d="M14.566664123535162,144.06666412353516 l-0.4,-1.3 c-0.8,-2.2 -1.4,-4.5 -2,-6.8 l-0.30000000000000004,-1.3 l1.2,-0.5 c30.9,-13.6 50.1,-41.3 50.1,-72.3 c0,-5.9 -0.7000000000000001,-11.8 -2.1,-17.5 l-0.30000000000000004,-1.3 l1.2,-0.5 c4.7,-2.1 9.7,-3.8 14.9,-5.1 c2.3,-0.6000000000000001 4.7,-1.1 7.2,-1.6 l1.3,-0.2 l0.4,1.3 c2.8,8.1 4.2,16.5 4.2,25 c0,8.9 -1.5,17.7 -4.6,26.1 c-10.3,28.5 -36.9,49.9 -69.4,55.8 L14.566664123535162,144.06666412353516 zM15.466664123535153,136.56666412353516 c0.4,1.3 0.7000000000000001,2.6 1.2,3.9 c30.7,-6 55.8,-26.4 65.6,-53.5 c2.9,-8 4.4,-16.4 4.4,-25 c0,-7.7 -1.2,-15.4 -3.6,-22.7 c-1.9,0.4 -3.8,0.8 -5.6,1.3 c-4.5,1.2 -8.9,2.7 -13.2,4.5 c1.3,5.6 1.9,11.3 1.9,17 C66.16666412353516,93.26666412353515 46.26666412353515,122.46666412353517 15.466664123535153,136.56666412353516 z" id="svg_18"/>
	</g>
	<g id="svg_19">
		<path class="st5" d="M64.56666412353516,61.96666412353515 c0,32.4 -20.8,60.4 -51,73.7 c-1.4,-5.8 -2.2,-11.8 -2.2,-17.9 c0,-0.8 0,-1.7000000000000002 0,-2.5 c13,-13.7 21.1,-31.4 21.8,-50.8 c8,-8.5 18,-15.4 29.2,-20.4 C63.86666412353516,49.76666412353515 64.56666412353516,55.76666412353515 64.56666412353516,61.96666412353515 z" id="svg_20"/>
		<path class="st1" d="M12.566664123535162,137.86666412353514 l-0.4,-1.8 c-1.5,-6 -2.2,-12.1 -2.2,-18.3 c0,-0.9 0,-1.7000000000000002 0,-2.5 l0,-0.6000000000000001 l0.4,-0.4 C23.466664123535153,100.26666412353515 31.066664123535162,82.66666412353516 31.666664123535156,64.36666412353516 l0,-0.6000000000000001 l0.4,-0.4 c8.3,-8.7 18.3,-15.7 29.7,-20.7 l1.7000000000000002,-0.7000000000000001 l0.4,1.8 c1.5,6 2.2,12.1 2.2,18.3 c0,31.8 -20.4,61.2 -51.9,75.1 L12.566664123535162,137.86666412353514 zM12.966664123535153,115.86666412353514 c0,0.6000000000000001 0,1.2 0,1.8 c0,5.3 0.6000000000000001,10.6 1.7000000000000002,15.7 c29.9,-13.8 48.4,-41.1 48.4,-71.5 c0,-5.3 -0.6000000000000001,-10.6 -1.7000000000000002,-15.7 c-10.1,4.7 -19.1,11 -26.6,18.8 C34.06666412353516,83.66666412353516 26.26666412353515,101.66666412353516 12.966664123535153,115.86666412353514 z" id="svg_21"/>
	</g>
	<g id="svg_22">
		<path class="st4" d="M192.66666412353516,117.76666412353515 c0,5 -0.5,9.8 -1.4,14.6 c-7.9,2.1 -16.3,3.2 -25,3.2 c-36.6,0 -68.2,-19.7 -82.5,-48 c2.9,-8 4.5,-16.6 4.5,-25.5 c0,-8.5 -1.4,-16.8 -4.1,-24.5 c3.4,-0.6000000000000001 6.9,-1.1 10.5,-1.3 c2.5,-0.2 5,-0.30000000000000004 7.5,-0.30000000000000004 c1,0 2,0 3,0.1 c33.5,1 62.4,18.4 77.1,43.6 c6.4,11 10.2,23.5 10.5,36.8 C192.66666412353516,116.76666412353515 192.66666412353516,117.26666412353515 192.66666412353516,117.76666412353515 z" id="svg_23"/>
		<path class="st1" d="M166.16666412353516,137.06666412353516 c-36,0 -68.9,-19.2 -83.9,-48.8 l-0.30000000000000004,-0.6000000000000001 l0.2,-0.6000000000000001 c2.9,-8 4.4,-16.4 4.4,-25 c0,-8.2 -1.4,-16.3 -4.1,-24 l-0.6000000000000001,-1.7000000000000002 l1.8,-0.30000000000000004 c3.5,-0.6000000000000001 7.1,-1.1 10.7,-1.4 c3.5,-0.30000000000000004 7.1,-0.4 10.6,-0.2 c32.9,1 63,18 78.4,44.4 c6.8,11.6 10.4,24.3 10.7,37.5 c0,0.5 0,1 0,1.5 c0,5 -0.5,10 -1.5,14.9 l-0.2,1 l-1,0.2 C183.36666412353514,135.96666412353517 174.86666412353514,137.06666412353516 166.16666412353516,137.06666412353516 zM85.46666412353517,87.36666412353514 c14.6,28.3 46.2,46.5 80.8,46.5 c8,0 16,-1 23.7,-2.9 c0.8,-4.4 1.2,-8.8 1.2,-13.3 c0,-0.5 0,-1 0,-1.4 c-0.30000000000000004,-12.7 -3.7,-24.9 -10.2,-36 c-14.9,-25.5 -44,-41.9 -75.8,-42.8 c-3.5,-0.1 -6.9,0 -10.3,0.2 c-2.9,0.2 -5.7,0.5 -8.5,1 c2.4,7.5 3.6,15.4 3.6,23.3 C89.76666412353515,70.66666412353516 88.36666412353514,79.26666412353515 85.46666412353517,87.36666412353514 z" id="svg_24"/>
	</g>
	<g id="svg_25">
		<path class="st5" d="M192.66666412353516,116.26666412353515 c-2.5,0.2 -5,0.30000000000000004 -7.5,0.30000000000000004 c-49.5,0 -89.7,-35.9 -90.6,-80.4 c2.5,-0.2 5,-0.30000000000000004 7.5,-0.30000000000000004 c1,0 2,0 3,0.1 c33.5,1 62.4,18.4 77.1,43.6 C188.56666412353516,90.46666412353517 192.36666412353514,102.96666412353517 192.66666412353516,116.26666412353515 z" id="svg_26"/>
		<path class="st1" d="M185.16666412353516,118.06666412353516 c-24.3,0 -47.2,-8.5 -64.6,-23.9 c-17.4,-15.4 -27.2,-36 -27.6,-58 l0,-1.5 l1.5,-0.1 c3.5,-0.30000000000000004 7.1,-0.4 10.6,-0.2 c32.9,1 63,18 78.4,44.4 c6.8,11.6 10.4,24.3 10.7,37.5 l0,1.5 l-1.5,0.1 C190.26666412353515,117.96666412353517 187.66666412353516,118.06666412353516 185.16666412353516,118.06666412353516 zM96.16666412353516,37.56666412353516 c1.7000000000000002,42.8 41.3,77.4 89,77.4 c2,0 3.9,-0.1 5.9,-0.2 c-0.5,-12.2 -3.9,-23.8 -10.2,-34.5 c-14.9,-25.5 -44,-41.9 -75.8,-42.8 C101.96666412353517,37.36666412353516 99.06666412353516,37.36666412353516 96.16666412353516,37.56666412353516 z" id="svg_27"/>
	</g>
	<g id="svg_28">
		<path class="st3" d="M182.16666412353516,79.46666412353517 c-33.5,-1 -62.4,-18.4 -77.1,-43.6 C138.46666412353517,36.86666412353516 167.36666412353514,54.26666412353515 182.16666412353516,79.46666412353517 z" id="svg_29"/>
		<path class="st1" d="M184.96666412353517,81.16666412353516 l-2.8,-0.1 c-32.9,-1 -63,-18 -78.4,-44.4 l-1.4,-2.4 l2.8,0.1 c32.9,1 63,18 78.4,44.4 L184.96666412353517,81.16666412353516 zM107.86666412353514,37.56666412353516 c14.8,23.3 41.7,38.5 71.4,40.2 C164.46666412353517,54.46666412353515 137.56666412353516,39.36666412353516 107.86666412353514,37.56666412353516 z" id="svg_30"/>
	</g>
	<path class="st1" d="M102.06666412353516,202.76666412353518 c-41.1,0 -77.1,-23.9 -89.4,-59.5 c-0.8,-2.3 -1.5,-4.6 -2,-6.9 c-1.5,-6.1 -2.3,-12.4 -2.3,-18.7 c0,-0.9 0,-1.7000000000000002 0,-2.6 c0.6000000000000001,-19.4 8.7,-38.2 22.6,-52.9 c8.4,-8.9 18.6,-16 30.2,-21.1 c4.8,-2.1 9.9,-3.9 15.1,-5.2 c2.3,-0.6000000000000001 4.8,-1.1 7.3,-1.6 c3.5,-0.7000000000000001 7.2,-1.1 10.8,-1.4 c3.5,-0.30000000000000004 7.2,-0.4 10.8,-0.2 c33.4,1 64,18.3 79.7,45.1 c6.9,11.7 10.6,25 10.9,38.3 c0,0.5 0,1 0,1.6 c0,5.1 -0.5,10.2 -1.5,15.2 C186.26666412353515,173.36666412353514 147.46666412353517,202.76666412353518 102.06666412353516,202.76666412353518 zM102.06666412353516,38.96666412353515 c-2.4,0 -4.9,0.1 -7.2,0.30000000000000004 c-3.4,0.2 -6.8,0.7000000000000001 -10.2,1.3 c-2.3,0.4 -4.6,0.9 -6.8,1.5 c-4.9,1.3 -9.6,2.9 -14.1,4.9 c-10.8,4.8 -20.3,11.4 -28.2,19.7 c-12.9,13.6 -20.3,30.9 -20.9,48.8 c0,0.8 0,1.6 0,2.4 c0,5.8 0.7000000000000001,11.6 2.1,17.2 c0.5,2.1 1.2,4.3 1.9,6.3 c11.5,33.1 45,55.3 83.5,55.3 c42.4,0 78.7,-27.3 86.1,-64.8 c0.9,-4.6 1.4,-9.3 1.4,-14 c0,-0.5 0,-0.9 0,-1.4 c-0.2,-12.5 -3.6,-24.4 -10,-35.3 c-14.6,-25 -43.2,-41.1 -74.5,-42 C103.96666412353517,38.96666412353515 102.96666412353517,38.96666412353515 102.06666412353516,38.96666412353515 z" id="svg_31"/>
	<path class="st1" d="M138.16666412353516,155.96666412353517 c-2,0 -3.6,-1.6 -3.6,-3.6 c0,-5.6 -4.6,-10.2 -10.2,-10.2 s-10.2,4.6 -10.2,10.2 c0,2 -1.6,3.6 -3.6,3.6 s-3.6,-1.6 -3.6,-3.6 c0,-9.6 7.9,-17.5 17.5,-17.5 s17.5,7.9 17.5,17.5 C141.76666412353515,154.26666412353515 140.16666412353516,155.96666412353517 138.16666412353516,155.96666412353517 z" id="svg_32"/>
	<path class="st1" d="M93.06666412353516,155.96666412353517 c-2,0 -3.6,-1.6 -3.6,-3.6 c0,-5.6 -4.6,-10.2 -10.2,-10.2 s-10.2,4.6 -10.2,10.2 c0,2 -1.6,3.6 -3.6,3.6 c-2,0 -3.6,-1.6 -3.6,-3.6 c0,-9.6 7.9,-17.5 17.5,-17.5 S96.66666412353516,142.66666412353516 96.66666412353516,152.26666412353515 C96.66666412353516,154.26666412353515 95.06666412353516,155.96666412353517 93.06666412353516,155.96666412353517 z" id="svg_33"/>
	<path class="st1" d="M101.76666412353515,183.46666412353517 c-8.2,0 -15.9,-4.4 -20,-11.6 c-1,-1.7000000000000002 -0.4,-4 1.3,-5 c1.7000000000000002,-1 4,-0.4 5,1.3 c2.8,4.9 8,7.9 13.7,7.9 s10.9,-3 13.7,-7.9 c1,-1.7000000000000002 3.2,-2.3 5,-1.3 c1.7000000000000002,1 2.3,3.2 1.3,5 C117.66666412353516,179.06666412353516 110.06666412353516,183.46666412353517 101.76666412353515,183.46666412353517 z" id="svg_34"/>
	<ellipse class="st5" cx="58.366661071777344" cy="163.26667022705078" rx="9.5" ry="4.900000095367432" id="svg_35"/>
	<ellipse class="st5" cx="144.46666717529297" cy="163.26667022705078" rx="9.5" ry="4.900000095367432" id="svg_36"/>
	<g id="svg_37">
		<path class="st3" d="M161.36666412353514,35.76666412353515 c0,3.2 -0.5,6.2 -1.3,9.1 c-0.6000000000000001,1.9 -2.9,2.8 -4.6,1.8 c-9.7,-5.8 -20.6,-10 -32.3,-12.4 c-4.8,-1 -9.8,-1.6 -14.9,-1.9 c-2,-0.1 -4.1,-0.2 -6.2,-0.2 c0,0 0,0 0,0 c-2,0 -3.6,-1.9 -3.1,-3.9 c3.3,-13.9 15.9,-24.2 30.8,-24.2 c13.2,0 24.5,8 29.2,19.5 c1.4,3.5 2.3,7.3 2.4,11.2 C161.36666412353514,35.166664123535156 161.36666412353514,35.46666412353515 161.36666412353514,35.76666412353515 z" id="svg_38"/>
		<path class="st1" d="M156.96666412353517,48.56666412353516 c-0.8,0 -1.7000000000000002,-0.2 -2.4,-0.7000000000000001 c-9.7,-5.8 -20.4,-9.9 -31.8,-12.2 c-4.9,-1 -9.8,-1.6 -14.7,-1.9 c-2,-0.1 -4,-0.2 -6.1,-0.2 c0,0 0,0 0,0 c-1.5,0 -2.9,-0.7000000000000001 -3.8,-1.8 c-0.9,-1.1 -1.2,-2.6 -0.9,-4 c3.6,-14.9 16.9,-25.4 32.3,-25.4 c13.5,0 25.5,8 30.7,20.4 c1.6,3.8 2.4,7.7 2.5,11.8 c0,0.30000000000000004 0,0.6000000000000001 0,1 c0,3.3 -0.5,6.5 -1.4,9.5 c-0.4,1.4 -1.4,2.5 -2.8,3 C158.16666412353516,48.46666412353515 157.56666412353516,48.56666412353516 156.96666412353517,48.56666412353516 zM101.96666412353517,30.566664123535162 c2.1,0 4.2,0.1 6.3,0.2 c5,0.30000000000000004 10.1,0.9 15.1,1.9 c11.7,2.3 22.7,6.6 32.8,12.6 c0.4,0.30000000000000004 0.9,0.30000000000000004 1.4,0.1 c0.30000000000000004,-0.1 0.7000000000000001,-0.4 0.9,-1 c0.8,-2.8 1.3,-5.7 1.3,-8.6 c0,-0.30000000000000004 0,-0.6000000000000001 0,-0.8 c-0.1,-3.7 -0.9,-7.3 -2.3,-10.7 C152.76666412353515,12.966664123535153 141.86666412353514,5.666664123535156 129.66666412353516,5.666664123535156 c-14,0 -26,9.5 -29.2,23 c-0.2,0.6000000000000001 0.1,1.1 0.30000000000000004,1.3 C101.06666412353516,30.36666412353516 101.46666412353517,30.566664123535162 101.96666412353517,30.566664123535162 C101.96666412353517,30.566664123535162 101.96666412353517,30.566664123535162 101.96666412353517,30.566664123535162 z" id="svg_39"/>
	</g>
	<g id="svg_40">
		<path class="st5" d="M161.36666412353514,35.76666412353515 c0,4.6 -1,8.9 -2.7,12.8 c-10.5,-6.8 -22.5,-11.8 -35.5,-14.4 c-4.8,-1 -9.8,-1.6 -14.9,-1.9 c5.1,-10.6 16,-17.9 28.5,-17.9 c8.7,0 16.5,3.5 22.2,9.1 c1.4,3.5 2.3,7.3 2.4,11.2 C161.36666412353514,35.166664123535156 161.36666412353514,35.46666412353515 161.36666412353514,35.76666412353515 z" id="svg_41"/>
		<path class="st1" d="M159.26666412353515,50.86666412353516 l-1.5,-1 c-10.6,-6.9 -22.3,-11.6 -35,-14.2 c-4.9,-1 -9.8,-1.6 -14.7,-1.9 l-2.4,-0.1 l1,-2.1 c5.6,-11.6 17.1,-18.7 29.9,-18.7 c8.8,0 17.1,3.4 23.3,9.5 l0.2,0.2 l0.1,0.30000000000000004 c1.6,3.8 2.4,7.7 2.5,11.8 c0,0.30000000000000004 0,0.6000000000000001 0,1 c0,4.7 -1,9.2 -2.9,13.5 L159.26666412353515,50.86666412353516 zM110.66666412353516,30.966664123535153 c4.2,0.30000000000000004 8.5,0.9 12.7,1.8 c12.4,2.5 24,7.1 34.5,13.6 c1.3,-3.3 1.9,-6.9 1.9,-10.5 c0,-0.30000000000000004 0,-0.6000000000000001 0,-0.8 c-0.1,-3.6 -0.8,-7.1 -2.2,-10.5 c-5.6,-5.4 -13,-8.4 -20.9,-8.4 C125.86666412353514,16.066664123535162 116.06666412353516,21.666664123535156 110.66666412353516,30.966664123535153 z" id="svg_42"/>
	</g>
	<g id="svg_43">
		<path class="st4" d="M161.36666412353514,35.76666412353515 c0,4.6 -1,8.9 -2.7,12.8 c-10.5,-6.8 -22.5,-11.8 -35.5,-14.4 c5.2,-3.8 11.7,-6.1 18.7,-6.1 c7.3,0 14.1,2.5 19.5,6.7 C161.36666412353514,35.166664123535156 161.36666412353514,35.46666412353515 161.36666412353514,35.76666412353515 z" id="svg_44"/>
		<path class="st1" d="M159.26666412353515,50.86666412353516 l-1.5,-1 c-10.6,-6.9 -22.3,-11.6 -35,-14.2 l-3.5,-0.7000000000000001 l2.9,-2.1 c5.7,-4.2 12.5,-6.4 19.6,-6.4 c7.5,0 14.6,2.4 20.5,7.1 l0.5,0.4 l0,0.7000000000000001 c0,0.30000000000000004 0,0.7000000000000001 0,1 c0,4.7 -1,9.2 -2.9,13.5 L159.26666412353515,50.86666412353516 zM127.06666412353516,33.46666412353515 c11,2.6 21.3,6.9 30.8,12.8 c1.3,-3.3 1.9,-6.9 1.9,-10.5 c0,-0.1 0,-0.1 0,-0.2 c-5.2,-3.9 -11.4,-5.9 -17.9,-5.9 C136.56666412353516,29.666664123535156 131.56666412353516,30.966664123535153 127.06666412353516,33.46666412353515 z" id="svg_45"/>
	</g>
</g></g></svg>