<?xml version="1.0" encoding="utf-8"?>
<!-- Generator: Adobe Illustrator 23.0.5, SVG Export Plug-In . SVG Version: 6.00 Build 0)  -->
<svg version="1.1" id="Capa_1" xmlns="http://www.w3.org/2000/svg" xmlns:xlink="http://www.w3.org/1999/xlink" x="0px" y="0px"
	 viewBox="0 0 310.4 310.4" style="enable-background:new 0 0 310.4 310.4;fill:" xml:space="preserve">
<g>
	<g>
		<path d="M264.2,244L213,192.7c-4.6-4.6-4.1-10.8-1.8-14.8c10.6-17.6,14.9-37.5,12.5-57.6c-2.4-20.4-11.5-39-26.4-53.9
			c-17.4-17.4-40.7-27-65.4-27s-48,9.6-65.4,27c-36.1,36.1-36.1,94.8,0,130.8c17.4,17.4,40.3,27,64.5,27c16.5,0,32.8-4.5,47.1-13.1
			c0.9-0.5,3.2-1.7,6.3-1.7c3.2,0,6.2,1.3,8.6,3.6l51.2,51.2c4.3,4.4,9.6,6.9,14.3,6.9c3.1,0,5.8-1.1,7.9-3.3l1.6-1.6
			C273.9,260.1,270.6,250.4,264.2,244z M190,190c-15.5,15.5-36.2,24-58.1,24s-42.6-8.5-58.1-24s-24.1-36.2-24.1-58.1
			s8.5-42.6,24.1-58.1c15.5-15.5,36.2-24,58.1-24.1c22,0,42.6,8.5,58.1,24.1C222,105.7,222,157.9,190,190z"/>
	</g>
</g>
</svg>
