<svg xmlns="http://www.w3.org/2000/svg" xmlns:xlink="http://www.w3.org/1999/xlink" version="1.1" style="" xml:space="preserve" width="250.09523619221454" height="244.8095221660035"><rect id="backgroundrect" width="100%" height="100%" x="0" y="0" fill="none" stroke="none" style="" class=""/>

<g class="currentLayer" style=""><title>Layer 1</title><g id="svg_1" class="" fill="#ffffff" fill-opacity="1">
	<g id="svg_2" fill="#ffffff" fill-opacity="1">
		<path d="M229.91428298950194,209.71428298950195 L178.71428298950195,158.41428298950194 c-4.6,-4.6 -4.1,-10.8 -1.8,-14.8 c10.6,-17.6 14.9,-37.5 12.5,-57.6 c-2.4,-20.4 -11.5,-39 -26.4,-53.9 c-17.4,-17.4 -40.7,-27 -65.4,-27 s-48,9.6 -65.4,27 c-36.1,36.1 -36.1,94.8 0,130.8 c17.4,17.4 40.3,27 64.5,27 c16.5,0 32.8,-4.5 47.1,-13.1 c0.9,-0.5 3.2,-1.7000000000000002 6.3,-1.7000000000000002 c3.2,0 6.2,1.3 8.6,3.6 l51.2,51.2 c4.3,4.4 9.6,6.9 14.3,6.9 c3.1,0 5.8,-1.1 7.9,-3.3 l1.6,-1.6 C239.61428298950193,225.81428298950198 236.31428298950198,216.11428298950196 229.91428298950194,209.71428298950195 zM155.71428298950195,155.71428298950195 c-15.5,15.5 -36.2,24 -58.1,24 s-42.6,-8.5 -58.1,-24 s-24.1,-36.2 -24.1,-58.1 s8.5,-42.6 24.1,-58.1 c15.5,-15.5 36.2,-24 58.1,-24.1 c22,0 42.6,8.5 58.1,24.1 C187.71428298950195,71.41428298950196 187.71428298950195,123.61428298950196 155.71428298950195,155.71428298950195 z" id="svg_3" fill="#ffffff" fill-opacity="1"/>
	</g>
</g></g></svg>