<svg xmlns="http://www.w3.org/2000/svg" xmlns:xlink="http://www.w3.org/1999/xlink" version="1.1" style="enable-background:new 0 0 414 310.4;" xml:space="preserve" width="255.19047056790623" height="274.9523800873701"><rect id="backgroundrect" width="100%" height="100%" x="0" y="0" fill="none" stroke="none" style="" class=""/>
<style type="text/css">
	.st0{fill:#391540;}
	.st1{clip-path:url(#SVGID_1_);fill:#D97E85;}
	.st2{clip-path:url(#SVGID_1_);fill:#F2B6BB;}
	.st3{clip-path:url(#SVGID_1_);fill:#603813;}
	.st4{clip-path:url(#SVGID_1_);fill:#F8B0A5;}
	.st5{clip-path:url(#SVGID_1_);fill:#E98787;}
	.st6{clip-path:url(#SVGID_1_);fill:#8C6239;}
	.st7{clip-path:url(#SVGID_1_);fill:#FFFFFF;}
	.st8{clip-path:url(#SVGID_1_);fill:#AED4E5;}
	.st9{clip-path:url(#SVGID_1_);}
	.st10{fill:#9BBF95;}
	.st11{fill:#758E70;}
	.st12{fill:#52634D;}
</style>

<g class="currentLayer" style=""><title>Layer 1</title><g id="svg_1" class="">
	<defs transform="translate(-79.04762268066406,-19.04762077331543) ">
		<path id="SVGID_3_" d="M155.2,289.8c-11.6-1.2-23-4.3-33.6-9.7c-21.7-11.1-35.8-33.1-37.7-57.3c-2.5-31,16-54.6,37.2-74.5    c8.4-7.9,16.4-17.6,17.2-29.1c0.6-9.2-3.4-17.7-5.4-26.5c-1.9-8.4-1.6-17.2,1.1-25.4c14.1-43,65-55,104.4-42.7    c19.9,6.2,39.9,18.6,43,40.8c1.2,8.5,0.6,17.1,1.2,25.6c1.3,16.1,10.9,29,24.4,37.3c7.3,4.5,16.1,9.8,20.3,17.7    c4.7,8.9,3.2,21.1,0.2,30.2c-7.7,23.4-25.4,43.3-42.6,60.4c-7.3,7.2-15,14.3-23.3,20.4C232.8,278.1,192.4,293.6,155.2,289.8z"/>
	</defs>
	<clipPath id="SVGID_1_" transform="translate(-79.04762268066406,-19.04762077331543) ">
		<use xlink:href="#SVGID_3_" style="overflow:visible;" id="svg_2"/>
	</clipPath>
	<path class="st1" d="M76.15237731933593,270.7523792266846 c-11.6,-1.2 -23,-4.3 -33.6,-9.7 c-21.7,-11.1 -35.8,-33.1 -37.7,-57.3 c-2.5,-31 16,-54.6 37.2,-74.5 c8.4,-7.9 16.4,-17.6 17.2,-29.1 c0.6000000000000001,-9.2 -3.4,-17.7 -5.4,-26.5 c-1.9,-8.4 -1.6,-17.2 1.1,-25.4 c14.1,-43 65,-55 104.4,-42.7 c19.9,6.2 39.9,18.6 43,40.8 c1.2,8.5 0.6000000000000001,17.1 1.2,25.6 c1.3,16.1 10.9,29 24.4,37.3 c7.3,4.5 16.1,9.8 20.3,17.7 c4.7,8.9 3.2,21.1 0.2,30.2 c-7.7,23.4 -25.4,43.3 -42.6,60.4 c-7.3,7.2 -15,14.3 -23.3,20.4 C153.75237731933595,259.0523792266846 113.35237731933594,274.5523792266846 76.15237731933593,270.7523792266846 z" id="svg_3"/>
	<path class="st2" d="M60.152377319335926,36.45237922668457 c-2,3.6 -3.8,7.5 -5.2,11.8 c-2.7,8.2 -3,17 -1.1,25.4 c2,8.8 6.1,17.3 5.4,26.5 c-0.8,11.5 -8.8,21.2 -17.2,29.1 c-13.5,12.7 -25.9,26.9 -32.5,43.6 c8.6,2.3 17.9,1.7000000000000002 26,-1.7000000000000002 c11.7,-5 20.7,-15.9 23.4,-28.3 c2.7,-12.6 -0.7000000000000001,-26.3 4.2,-38.2 c4.1,-10.2 13.7,-17.5 17.7,-27.7 c3.4,-8.8 2,-19.1 -3.1,-27 C73.55237731933593,43.55237922668457 67.25237731933595,38.85237922668457 60.152377319335926,36.45237922668457 z" id="svg_4"/>
	<path class="st2" d="M248.25237731933595,126.95237922668457 c-4.2,-7.9 -12.9,-13.1 -20.3,-17.7 c-13.5,-8.3 -23.1,-21.2 -24.4,-37.3 c-0.7000000000000001,-8.3 -0.1,-16.7 -1.2,-24.9 c-7.5,4.3 -15.8,12.9 -15.9,30 c-0.30000000000000004,31.6 29.1,23.3 23.5,52.1 c-4.9,25.3 -26.7,51.6 12.4,70.9 c11.1,-12.8 20.9,-27.1 26.1,-42.9 C251.45237731933594,148.05237922668456 253.05237731933596,135.85237922668458 248.25237731933595,126.95237922668457 z" id="svg_5"/>
	<path class="st3" d="M90.15237731933593,78.85237922668458 c0,0 -28.2,15.6 -7,38.7 c21.1,23.1 -0.7000000000000001,28.4 1.7000000000000002,48.9 c2.3,20.5 26.4,27.1 26.4,27.1 l29.9,-61.8 l-15.7,-23.3 l-25.1,-21.7 C100.25237731933595,86.85237922668458 98.45237731933594,72.05237922668456 90.15237731933593,78.85237922668458 z" id="svg_6"/>
	<path class="st4" d="M92.55237731933593,79.05237922668456 c0,0 -1,6.6 4.4,12.4 c4.2,4.6 4.5,9.2 2.3,12.5 c1.2,2.6 11.9,13.7 16.6,13.7 c4.7,0 9.1,-2.7 11.1,2.5 c1.9,5 0,12 -5.7,15.5 c-5.7,3.5 -15.2,12.6 -18.7,18.7 c-3.5,6.2 48,-17.4 48.2,-22.9 c0.2,-5.5 -5.3,0.7000000000000001 -4,-19.4 c1.3,-20 -28,-50.7 -28,-50.7 S95.65237731933593,60.552379226684565 92.55237731933593,79.05237922668456 z" id="svg_7"/>
	<path class="st5" d="M94.75237731933595,77.05237922668456 c0,0 5.8,-4.3 13.3,0.8 c2.7,1.8 4.8,4.3 6.3,7.2 c2.6,5.3 1.7000000000000002,9.2 2.8,10.6 c2.2,2.6 17.1,-17.1 17.1,-17.1 l-32.8,-8.9 C101.35237731933594,69.65237922668457 93.25237731933595,73.75237922668457 94.75237731933595,77.05237922668456 z" id="svg_8"/>
	<path class="st5" d="M119.95237731933594,99.75237922668457 c0,0 0.4,2.1 10.2,6.4 c9.8,4.3 5,23.4 10.1,31.7 c5.1,8.4 17.9,-12.6 17.9,-12.6 L135.25237731933595,93.95237922668457 L119.95237731933594,99.75237922668457 z" id="svg_9"/>
	<path class="st6" d="M92.45237731933594,81.05237922668456 c0,0 1.6,-6.8 9.3,-6.8 c7.7,0 16.5,7.3 15.2,18.9 c-1.3,11.7 22.2,9.9 24.1,16.7 c1.9,6.8 1.5,13.7 15.3,29.7 c13.9,16.1 12.8,38.6 0,67.6 c0,0 6.9,23.1 10,41 c0,0 46.4,-19.4 53,-70.1 s-51.1,-33.9 -52.4,-72.3 c-0.9,-19.4 13.2,-32.6 -17.3,-52.2 C108.35237731933594,27.05237922668457 77.95237731933594,75.95237922668457 92.45237731933594,81.05237922668456 z" id="svg_10"/>
	<path class="st7" d="M121.15237731933593,135.75237922668458 c0,0 -24.6,14.7 -22.9,33.7 c1.7000000000000002,19 4.6,22.3 -13.1,40.7 c-23.4,24.2 -10.7,55.5 1.8,63.7 c12.6,8.3 64.9,-2.5 79.4,-25.6 c0,0 -1.1,-16.4 -10,-41 c0,0 12.1,-24.9 9.8,-44 c-2.3,-19 -10.7,-28.2 -15.5,-33.4 l-2.5,-3.5 c-0.4,-0.6000000000000001 -1.3,-0.6000000000000001 -1.7000000000000002,-0.1 c-2.7,3 -11.6,12.1 -28.1,21.4 C114.45237731933594,149.55237922668456 109.15237731933593,147.55237922668456 121.15237731933593,135.75237922668458 z" id="svg_11"/>
	<path class="st8" d="M166.25237731933595,163.35237922668458 c-2.3,-19 -10.7,-28.2 -15.5,-33.4 l-2.5,-3.5 c-0.4,-0.6000000000000001 -1.3,-0.6000000000000001 -1.7000000000000002,-0.1 c-1,1.1 -2.7,3 -5.4,5.3 c0,0 0,0 0,0 c0,0 37,27.6 9.6,71.9 c0,0 11.7,39.6 2.5,57.3 c5.6,-3.7 10.3,-7.9 13.3,-12.7 c0,0 -1.1,-16.4 -10,-41 C156.45237731933594,207.35237922668458 168.55237731933593,182.35237922668458 166.25237731933595,163.35237922668458 z" id="svg_12"/>
	<path class="st8" d="M98.45237731933594,210.15237922668456 c15.1,1.8 16.4,-9.7 16.4,-9.7 l-18,-4.5 l-0.4,0.2 c-1.9,3.3 -4.7,6.9 -9.1,11.6 C90.25237731933595,208.75237922668458 93.85237731933594,209.65237922668456 98.45237731933594,210.15237922668456 z" id="svg_13"/>
	<path class="st8" d="M156.45237731933594,207.35237922668458 c0,0 2.7,-5.6 5.4,-13.6 c-5.7,0.9 -11.1,2.8 -11.1,2.8 l-47.5,67.6 c0,0 32.3,-17.3 57.3,-44.3 C159.45237731933594,215.95237922668457 158.05237731933593,211.75237922668458 156.45237731933594,207.35237922668458 z" id="svg_14"/>
	<path class="st4" d="M133.55237731933593,165.05237922668456 c0,0 -2.9,-16.3 12.6,-20.7 c15.4,-4.4 20.4,25.5 19,37.1 c-1.4,11.6 -12,46.5 -60.5,81.8 c0,0 -2.6,1 -6.7,6.9 c-4.1,5.9 -17,6 -21.7,0.7000000000000001 c-4.7,-5.3 -6.2,-11.5 0,-10.6 c6.2,0.9 -0.9,-8.4 5,-7.6 s9,4.8 14.5,0.6000000000000001 c5.6,-4.3 20.9,-22.4 38.3,-48.2 C136.15237731933593,200.05237922668456 133.55237731933593,165.05237922668456 133.55237731933593,165.05237922668456 z" id="svg_15"/>
	<path class="st4" d="M91.25237731933595,197.95237922668457 c-0.2,-2.4 0.4,-4.7 1.6,-6.8 c1.9,-3 5.8,-7.6 11.2,-5.2 c2.6,1.2 1.6,4.7 4.1,5.3 c2.5,0.6000000000000001 8.8,1.3 6.6,9.7 c-2.2,8.4 -15,8.1 -20.3,3.4 C92.45237731933594,202.55237922668456 91.45237731933594,200.35237922668458 91.25237731933595,197.95237922668457 z" id="svg_16"/>
	<path class="st5" d="M165.15237731933593,181.45237922668457 c1.3,-11 -3.2,-38.8 -16.9,-37.5 l0,0 c0,0 13.4,21.9 6,47.3 c-7.3,25.4 -56.9,72.9 -56.9,72.9 s-4.1,8.2 -18.3,8.9 l0,0 c5.8,2.9 15.4,2.1 18.9,-2.9 c4.1,-5.9 6.7,-6.9 6.7,-6.9 C153.15237731933593,227.95237922668457 163.75237731933595,192.95237922668457 165.15237731933593,181.45237922668457 z" id="svg_17"/>
	<g class="st9" id="svg_18">
		<g id="svg_19">
			<g id="svg_20">
				<path class="st10" d="M49.152377319335926,263.7523792266846 c0,0 -20.2,-5.8 -26.2,-24.1 c-6.1,-18.3 1.7000000000000002,-31 1.7000000000000002,-31 s-2.5,4.3 12.4,16.5 C51.95237731933594,237.35237922668455 50.95237731933594,260.5523792266846 49.152377319335926,263.7523792266846 z" id="svg_21"/>
			</g>
			<path class="st11" d="M49.05237731933593,261.95237922668457 c-4.2,-3.6 -7.9,-7.7 -11,-12.3 l0.6000000000000001,-5 l-0.6000000000000001,-0.1 l-0.5,4.3 c-2.5,-3.8 -4.6,-7.9 -6.3,-12.2 l3,-5.1 l-0.5,-0.30000000000000004 L30.952377319335938,235.95237922668457 c-1.1,-2.9 -1.9,-5.9 -2.5,-9 l-0.6000000000000001,0.1 c0.6000000000000001,3 1.4,5.9 2.4,8.8 l-5.1,-3.1 l-0.30000000000000004,0.5 l5.8,3.5 c1.6,4.2 3.6,8.3 6.1,12.1 l-5,-2 l-0.2,0.6000000000000001 l5.8,2.3 c3.2,4.7 7,9 11.4,12.7 L49.05237731933593,261.95237922668457 z" id="svg_22"/>
		</g>
		<g id="svg_23">
			<g id="svg_24">
				<path class="st11" d="M70.25237731933595,276.35237922668455 c0,0 -11.1,-10.3 -6.5,-27.2 c4.6,-17 11.8,-30.1 -3.4,-45.5 c-15.3,-15.4 -22.4,-16.7 -21,-29.3 c-0.1,0.5 -3.5,2.1 -4.6,4.5 c-2.2,4.9 -3,10.5 -1.3,15.6 c1.9,5.8 6.8,10 7.4,16.3 c0.7000000000000001,7.7 -2.1,15.4 -2.1,23.1 c-0.1,16.1 7.8,31.7 22.4,39.1 C63.35237731933594,274.0523792266846 68.45237731933594,274.7523792266846 70.25237731933595,276.35237922668455 z" id="svg_25"/>
			</g>
			<path class="st12" d="M54.152377319335926,255.85237922668455 c-0.4,-1.1 -0.8,-2.2 -1.2,-3.3 c0.5,-0.1 0.8,-0.4 1.2,-0.6000000000000001 c0.1,-0.1 0.2,-0.2 0.30000000000000004,-0.2 c1.9,-1.4 3.7,-2.9 5.5,-4.6 l-0.4,-0.4 c-1.7000000000000002,1.6 -3.5,3.1 -5.4,4.5 c-0.1,0.1 -0.2,0.2 -0.30000000000000004,0.2 c-0.30000000000000004,0.30000000000000004 -0.6000000000000001,0.5 -1,0.5 c-1.7000000000000002,-5.4 -2.3,-10.7 -1.9,-15.6 c0.4,0 0.7000000000000001,-0.2 1,-0.30000000000000004 c0.1,0 0.1,-0.1 0.2,-0.1 l6,-2.9 l-0.30000000000000004,-0.5 l-6,2.9 c-0.1,0 -0.1,0.1 -0.2,0.1 c-0.2,0.1 -0.4,0.2 -0.6000000000000001,0.2 c0,-0.4 0.1,-0.7000000000000001 0.1,-1.1 c0.30000000000000004,-2.1 0.8,-4.2 1.3,-6.2 c0.6000000000000001,-2.6 1.2,-5.2 1.4,-7.9 l4.1,-5.6 l-0.5,-0.4 l-3.6,4.8 c0,-0.1 0,-0.30000000000000004 0,-0.4 c0.1,-6.3 -2.6,-12.5 -7.1,-16.8 l-0.4,0.4 c4.4,4.2 7,10.3 6.9,16.4 c0,0.2 0,0.5 0,0.7000000000000001 c-1.9,-1.9 -4.3,-3.6 -7.2,-5.3 l-0.30000000000000004,0.5 c3.1,1.8 5.5,3.6 7.5,5.6 c-0.2,2.6 -0.8,5.3 -1.4,7.8 c-0.5,2.1 -1,4.2 -1.3,6.3 c0,0.30000000000000004 -0.1,0.7000000000000001 -0.1,1 c-0.30000000000000004,-0.2 -0.6000000000000001,-0.4 -0.8,-0.6000000000000001 l-4.8,-5.1 l-0.4,0.4 l4.8,5.1 c0.30000000000000004,0.30000000000000004 0.7000000000000001,0.7000000000000001 1.2,0.8 c-0.4,4.9 0.2,10.2 1.8,15.6 c-0.5,-0.1 -1,-0.4 -1.3,-0.6000000000000001 l-5.4,-3.7 l-0.30000000000000004,0.5 l5.4,3.7 c0.5,0.30000000000000004 1.2,0.7000000000000001 1.9,0.7000000000000001 c0.4,1.2 0.8,2.4 1.3,3.5 c2.8,7.2 7,13.6 10.8,19 l0.5,-0.30000000000000004 C61.152377319335926,269.35237922668455 56.95237731933594,262.95237922668457 54.152377319335926,255.85237922668455 z" id="svg_26"/>
		</g>
		<path class="st10" d="M239.25237731933595,166.15237922668456 c-6.3,1.3 -8,5.1 -8.3,8.2 c-0.4,-1.7000000000000002 -0.9,-3.5 -1.6,-5.1 c-0.9,-2.2 -2.1,-4.3 -3.3,-6.3 c-0.7000000000000001,-1.2 -1.4,-2.5 -2.1,-3.8 c-1.9,-3.8 -2.8,-7 -2.7,-9.9 c10.4,1.4 11.1,-7.8 11.1,-7.8 c-6.9,-1.4 -9.6,2.5 -10.7,5.2 c0.8,-3.4 2.9,-6.5 4.6,-9.1 c1.8,-2.7 3.9,-5.8 4.7,-9.2 c7.5,0.6000000000000001 7.6,-6 7.6,-6 c-4.6,-0.7000000000000001 -6.5,1.8 -7.3,3.8 c0.30000000000000004,-3.9 -1.7000000000000002,-8.5 -5.7,-9.6 l-0.2,0.6000000000000001 c3.8,1.1 5.6,5.6 5.2,9.4 c-0.4,3.1 -1.9,5.9 -3.5,8.5 c1.5,-7.5 -5.7,-11 -5.7,-11 c-1.9,8.4 3.8,11.5 5.2,11.7 c-0.30000000000000004,0.5 -0.7000000000000001,1.1 -1,1.6 c-2,3 -4.5,6.8 -5,11 c-0.30000000000000004,3.2 0.5,6.6 2.5,10.7 c-4.4,-4.7 -11.1,-3.6 -11.1,-3.6 c4.1,9.9 12.2,8.6 13.4,7.9 c0,0 0,0 0,0 c1.1,2 2.3,4.1 3.2,6.2 c2,4.8 2.5,10.1 1.7000000000000002,15.2 c-0.8,-8.9 -10,-10.7 -10,-10.7 c0.4,10.5 8.2,12.3 9.8,12 c-1.1,5.3 -3.6,10.3 -7.5,14.2 l0.4,0.4 c5.7,-5.7 8.6,-13.9 8.2,-21.9 C242.45237731933594,175.65237922668456 239.25237731933595,166.15237922668456 239.25237731933595,166.15237922668456 z" id="svg_27"/>
	</g>
</g></g></svg>