<svg xmlns="http://www.w3.org/2000/svg" xmlns:xlink="http://www.w3.org/1999/xlink" version="1.1" style="enable-background:new 0 0 414 310.4;" xml:space="preserve" width="342.80950927734375" height="286.5714416503906"><rect id="backgroundrect" width="100%" height="100%" x="0" y="0" fill="none" stroke="none" style="" class=""/>

<g class="currentLayer" style=""><title>Layer 1</title><g id="svg_1" class="selected" fill="#ffffff" fill-opacity="1">
	<path d="M113.30952072143555,196.719047164917 L113.30952072143555,196.719047164917 C113.40952072143554,196.719047164917 113.40952072143554,196.719047164917 113.30952072143555,196.719047164917 l171.8,0 c4.2,0 7.9,-2.8 9.1,-6.9 l37.9,-132.6 c1,-3.5 -0.1,-7.3 -2.9,-9.8 c-1.8,-1.6 -4.2,-2.3 -6.6,-2.3 l-218.9,0 c-7.2,0 -13.4,-5 -15,-12 l-4.1,-18.5 c-1,-4.3 -4.8,-7.4 -9.2,-7.4 l-56.5,0 c-4.7,0 -9,3.4 -9.7,8.1 c-0.8,5.9 3.7,10.9 9.4,10.9 l36.8,0 c7.3,0 13.6,5 15.2,12.2 c7.9,35.3 30,135 31.5,141.8 c-10.8,4.7 -18.2,16 -17,28.8 c1.4,14.7 14.1,25.7 28.9,25.7 H284.80952072143555 c4.7,0 9,-3.4 9.7,-8.1 c0.8,-5.9 -3.7,-10.9 -9.4,-10.9 H113.40952072143554 c-6.2,0 -11.1,-6.1 -9,-12.6 C105.60952072143556,199.31904716491698 109.30952072143555,196.719047164917 113.30952072143555,196.719047164917 zM306.2095207214355,79.21904716491699 l-25.8,90.3 c-1.4,4.9 -5.9,8.3 -11,8.3 H130.20952072143555 c-5.4,0 -10,-3.7 -11.2,-9 L98.80952072143555,78.11904716491699 c-1.6,-7.2 3.9,-14 11.2,-14 H294.80952072143555 C302.60952072143556,64.11904716491699 308.30952072143555,71.61904716491699 306.2095207214355,79.21904716491699 z" id="svg_2" fill="#ffffff" fill-opacity="1"/>
	<ellipse transform="matrix(0.1602,-0.9871,0.9871,0.1602,-117.4289,386.6272) " cx="174.92332458496094" cy="224.59408569335938" rx="28.399999618530273" ry="28.399999618530273" id="svg_3" fill="#ffffff" fill-opacity="1"/>
	<ellipse transform="matrix(0.1602,-0.9871,0.9871,0.1602,-4.9894,518.784) " cx="308.8233337402344" cy="224.59408569335938" rx="28.399999618530273" ry="28.399999618530273" id="svg_4" fill="#ffffff" fill-opacity="1"/>
	<path d="M240.90952072143557,126.519047164917 c8,0 11.7,9.8 5.9,15.2 c-11.5,10.6 -26.8,17 -43.6,17 s-32.1,-6.4 -43.6,-17 c-5.9,-5.4 -2.1,-15.2 5.9,-15.2 H240.90952072143557 z" id="svg_5" fill="#ffffff" fill-opacity="1"/>
	<circle cx="164.3095245361328" cy="96.81904602050781" r="13.600000381469727" id="svg_6" fill="#ffffff" fill-opacity="1"/>
	<circle cx="238.10951232910156" cy="96.81904602050781" r="13.600000381469727" id="svg_7" fill="#ffffff" fill-opacity="1"/>
</g></g></svg>